<svg width="121" height="74" viewBox="0 0 121 74" fill="none" xmlns="http://www.w3.org/2000/svg">
<g filter="url(#filter0_dd)">
<path d="M84.5131 8.58691H36.8806C21.0965 8.58691 8.30103 21.3824 8.30103 37.1665C8.30103 52.9505 21.0965 65.746 36.8806 65.746H84.5131C100.297 65.746 113.093 52.9505 113.093 37.1665C113.093 21.3824 100.297 8.58691 84.5131 8.58691Z" fill="url(#paint0_radial)"/>
<path d="M84.5134 10.0156H36.8808C21.8859 10.0156 9.73022 22.1713 9.73022 37.1662C9.73022 52.161 21.8859 64.3168 36.8808 64.3168H84.5134C99.5082 64.3168 111.664 52.161 111.664 37.1662C111.664 22.1713 99.5082 10.0156 84.5134 10.0156Z" stroke="url(#paint1_radial)" stroke-width="2.85795"/>
</g>
<defs>
<filter id="filter0_dd" x="0.679813" y="0.965702" width="120.034" height="72.4015" filterUnits="userSpaceOnUse" color-interpolation-filters="sRGB">
<feFlood flood-opacity="0" result="BackgroundImageFix"/>
<feColorMatrix in="SourceAlpha" type="matrix" values="0 0 0 0 0 0 0 0 0 0 0 0 0 0 0 0 0 0 127 0"/>
<feOffset dx="-3.81061" dy="-3.81061"/>
<feGaussianBlur stdDeviation="1.9053"/>
<feColorMatrix type="matrix" values="0 0 0 0 0.27451 0 0 0 0 0.478431 0 0 0 0 0.478431 0 0 0 1 0"/>
<feBlend mode="normal" in2="BackgroundImageFix" result="effect1_dropShadow"/>
<feColorMatrix in="SourceAlpha" type="matrix" values="0 0 0 0 0 0 0 0 0 0 0 0 0 0 0 0 0 0 127 0"/>
<feOffset dx="3.81061" dy="3.81061"/>
<feGaussianBlur stdDeviation="1.9053"/>
<feColorMatrix type="matrix" values="0 0 0 0 0.231373 0 0 0 0 0.435294 0 0 0 0 0.435294 0 0 0 1 0"/>
<feBlend mode="normal" in2="effect1_dropShadow" result="effect2_dropShadow"/>
<feBlend mode="normal" in="SourceGraphic" in2="effect2_dropShadow" result="shape"/>
</filter>
<radialGradient id="paint0_radial" cx="0" cy="0" r="1" gradientUnits="userSpaceOnUse" gradientTransform="translate(8.30103 8.58691) rotate(28.6105) scale(119.367 207.251)">
<stop stop-color="#447878"/>
<stop offset="1" stop-color="#3C7070"/>
</radialGradient>
<radialGradient id="paint1_radial" cx="0" cy="0" r="1" gradientUnits="userSpaceOnUse" gradientTransform="translate(8.30125 8.58664) rotate(28.6105) scale(119.367 245.205)">
<stop stop-color="#487C7C"/>
<stop offset="1" stop-color="#396D6D"/>
</radialGradient>
</defs>
</svg>
