<svg width="92" height="85" viewBox="0 0 92 85" fill="none" xmlns="http://www.w3.org/2000/svg">
<circle cx="56.0762" cy="81.4451" r="2.51428" transform="rotate(133.75 56.0762 81.4451)" fill="black"/>
<ellipse cx="52.2157" cy="48.2971" rx="1.67619" ry="1.70856" transform="rotate(41.25 52.2157 48.2971)" fill="black"/>
<circle cx="32.6163" cy="70.5566" r="2.51428" transform="rotate(41.25 32.6163 70.5566)" fill="black"/>
<circle cx="34.8023" cy="44.1746" r="2.09524" transform="rotate(-5.00015 34.8023 44.1746)" fill="black"/>
<circle cx="61.2001" cy="63.9404" r="2.51428" transform="rotate(87.5 61.2001 63.9404)" fill="black"/>
<path fill-rule="evenodd" clip-rule="evenodd" d="M34.2228 71.1075C35.2974 69.4072 58.1978 64.2427 59.8982 65.3172L59.3767 63.0048C58.3021 64.7052 35.4017 69.8696 33.7013 68.7951L34.2228 71.1075Z" fill="black"/>
<path fill-rule="evenodd" clip-rule="evenodd" d="M34.0706 69.1119C32.7504 67.5943 34.2002 46.7504 35.7178 45.4302L33.353 45.2657C34.6732 46.7833 33.2234 67.6272 31.7058 68.9474L34.0706 69.1119Z" fill="black"/>
<path fill-rule="evenodd" clip-rule="evenodd" d="M34.4786 70.1034C34.3483 68.0962 50.0209 50.2467 52.0281 50.1164L50.2468 48.5523C50.3771 50.5595 34.7045 68.409 32.6973 68.5394L34.4786 70.1034Z" fill="black"/>
<path fill-rule="evenodd" clip-rule="evenodd" d="M33.3747 71.7888C35.2668 71.1063 53.5055 79.6757 54.188 81.5678L55.196 79.4223C53.3039 80.1048 35.0652 71.5354 34.3827 69.6433L33.3747 71.7888Z" fill="black"/>
<path fill-rule="evenodd" clip-rule="evenodd" d="M60.5608 62.2404C58.5689 62.5198 36.557 45.9246 36.2775 43.9327L34.8504 45.8255C36.8424 45.546 58.8543 62.1413 59.1338 64.1332L60.5608 62.2404Z" fill="black"/>
<path fill-rule="evenodd" clip-rule="evenodd" d="M61.2314 62.2823C59.2898 61.757 53.0122 50.8231 53.5375 48.8814L51.4817 50.0617C53.4233 50.587 59.701 61.5209 59.1757 63.4626L61.2314 62.2823Z" fill="black"/>
<path fill-rule="evenodd" clip-rule="evenodd" d="M59.322 64.7029C60.2852 66.4688 56.7277 78.5644 54.9619 79.5275L57.2361 80.1964C56.2729 78.4306 59.8304 66.335 61.5962 65.3718L59.322 64.7029Z" fill="black"/>
<path fill-rule="evenodd" clip-rule="evenodd" d="M35.4836 45.6007C37.2057 44.5614 49.4449 47.5877 50.4842 49.3098L51.0532 47.0086C49.3311 48.0479 37.0919 45.0216 36.0525 43.2995L35.4836 45.6007Z" fill="black"/>
<path fill-rule="evenodd" clip-rule="evenodd" d="M34.1797 45.7836C36.1214 46.3089 54.6719 78.6197 54.1466 80.5613L56.2024 79.381C54.2608 78.8557 35.7102 46.545 36.2355 44.6033L34.1797 45.7836Z" fill="black"/>
<path fill-rule="evenodd" clip-rule="evenodd" d="M50.8814 49.7598C52.4607 51.0054 55.6942 78.3817 54.4486 79.961L56.8027 79.683C55.2234 78.4373 51.9899 51.0611 53.2355 49.4817L50.8814 49.7598Z" fill="black"/>
<circle cx="75.3566" cy="14.6866" r="2.51428" transform="rotate(13.75 75.3566 14.6866)" fill="black"/>
<ellipse cx="48.5796" cy="34.6038" rx="1.67619" ry="1.70856" transform="rotate(-78.75 48.5796 34.6038)" fill="black"/>
<circle cx="77.6567" cy="40.4476" r="2.51428" transform="rotate(-78.75 77.6567 40.4476)" fill="black"/>
<circle cx="53.7162" cy="51.7454" r="2.09524" transform="rotate(-125 53.7162 51.7454)" fill="black"/>
<circle cx="57.635" cy="19.0016" r="2.51428" transform="rotate(-32.5 57.635 19.0016)" fill="black"/>
<path fill-rule="evenodd" clip-rule="evenodd" d="M77.3306 38.7808C75.3208 38.7004 59.398 21.4503 59.4784 19.4404L57.7365 21.0483C59.7464 21.1287 75.6692 38.3788 75.5887 40.3887L77.3306 38.7808Z" fill="black"/>
<path fill-rule="evenodd" clip-rule="evenodd" d="M75.6783 39.9106C75.0242 41.8126 56.2479 50.9791 54.3458 50.3249L55.3857 52.4551C56.0399 50.553 74.8162 41.3866 76.7183 42.0407L75.6783 39.9106Z" fill="black"/>
<path fill-rule="evenodd" clip-rule="evenodd" d="M76.3331 39.0615C74.66 40.1779 51.3655 35.5298 50.2491 33.8567L49.7852 36.1814C51.4583 35.0649 74.7527 39.713 75.8692 41.3861L76.3331 39.0615Z" fill="black"/>
<path fill-rule="evenodd" clip-rule="evenodd" d="M78.3447 39.1747C76.8076 37.8774 75.1095 17.7975 76.4069 16.2604L74.0448 16.4601C75.5819 17.7575 77.28 37.8374 75.9826 39.3745L78.3447 39.1747Z" fill="black"/>
<path fill-rule="evenodd" clip-rule="evenodd" d="M56.4823 20.4051C57.7203 21.9904 54.3544 49.3509 52.7691 50.5889L55.1218 50.8783C53.8839 49.293 57.2498 21.9325 58.8351 20.6945L56.4823 20.4051Z" fill="black"/>
<path fill-rule="evenodd" clip-rule="evenodd" d="M56.1834 19.8035C56.6993 21.7476 50.3691 32.6512 48.4249 33.1671L50.475 34.3573C49.959 32.4131 56.2893 21.5096 58.2334 20.9937L56.1834 19.8035Z" fill="black"/>
<path fill-rule="evenodd" clip-rule="evenodd" d="M59.2345 20.2467C60.2821 18.5296 72.536 15.5627 74.253 16.6103L73.6952 14.3064C72.6475 16.0235 60.3937 18.9904 58.6767 17.9428L59.2345 20.2467Z" fill="black"/>
<path fill-rule="evenodd" clip-rule="evenodd" d="M54.6105 50.4424C52.8494 49.4707 49.3506 37.3581 50.3223 35.5969L48.045 36.2547C49.8061 37.2265 53.3048 49.3391 52.3331 51.1003L54.6105 50.4424Z" fill="black"/>
<path fill-rule="evenodd" clip-rule="evenodd" d="M55.421 51.4802C54.9051 49.536 73.6118 17.3154 75.556 16.7995L73.5059 15.6093C74.0218 17.5534 55.3151 49.7741 53.371 50.29L55.421 51.4802Z" fill="black"/>
<path fill-rule="evenodd" clip-rule="evenodd" d="M50.5137 35.0281C50.8028 33.0375 72.8945 16.549 74.8851 16.8381L73.4672 14.9384C73.1781 16.929 51.0863 33.4175 49.0958 33.1284L50.5137 35.0281Z" fill="black"/>
<circle cx="36.8137" cy="3.55489" r="2.51428" transform="rotate(-46.25 36.8137 3.55489)" fill="black"/>
<ellipse cx="40.6742" cy="36.7029" rx="1.67619" ry="1.70856" transform="rotate(-138.75 40.6742 36.7029)" fill="black"/>
<circle cx="60.2735" cy="14.4434" r="2.51428" transform="rotate(-138.75 60.2735 14.4434)" fill="black"/>
<circle cx="58.0875" cy="40.8254" r="2.09524" transform="rotate(175 58.0875 40.8254)" fill="black"/>
<circle cx="31.6898" cy="21.0596" r="2.51428" transform="rotate(-92.5 31.6898 21.0596)" fill="black"/>
<path fill-rule="evenodd" clip-rule="evenodd" d="M58.6671 13.8925C57.5925 15.5928 34.692 20.7573 32.9917 19.6828L33.5132 21.9952C34.5877 20.2948 57.4882 15.1304 59.1885 16.2049L58.6671 13.8925Z" fill="black"/>
<path fill-rule="evenodd" clip-rule="evenodd" d="M58.8193 15.8881C60.1395 17.4057 58.6897 38.2496 57.1721 39.5698L59.5369 39.7343C58.2167 38.2167 59.6665 17.3728 61.1841 16.0526L58.8193 15.8881Z" fill="black"/>
<path fill-rule="evenodd" clip-rule="evenodd" d="M58.4113 14.8966C58.5416 16.9038 42.869 34.7533 40.8618 34.8836L42.6431 36.4477C42.5128 34.4405 58.1854 16.591 60.1926 16.4606L58.4113 14.8966Z" fill="black"/>
<path fill-rule="evenodd" clip-rule="evenodd" d="M59.5152 13.2112C57.6231 13.8937 39.3843 5.32434 38.7019 3.43223L37.6938 5.57771C39.586 4.89524 57.8247 13.4646 58.5072 15.3567L59.5152 13.2112Z" fill="black"/>
<path fill-rule="evenodd" clip-rule="evenodd" d="M32.3291 22.7596C34.321 22.4802 56.3329 39.0754 56.6124 41.0673L58.0394 39.1745C56.0475 39.454 34.0356 22.8587 33.7561 20.8668L32.3291 22.7596Z" fill="black"/>
<path fill-rule="evenodd" clip-rule="evenodd" d="M31.6587 22.7177C33.6003 23.243 39.8779 34.1769 39.3527 36.1186L41.4084 34.9383C39.4668 34.413 33.1892 23.4791 33.7144 21.5374L31.6587 22.7177Z" fill="black"/>
<path fill-rule="evenodd" clip-rule="evenodd" d="M33.5681 20.2971C32.6049 18.5312 36.1624 6.43565 37.9282 5.47247L35.6541 4.8036C36.6172 6.56942 33.0598 18.665 31.2939 19.6282L33.5681 20.2971Z" fill="black"/>
<path fill-rule="evenodd" clip-rule="evenodd" d="M57.4063 39.3993C55.6842 40.4386 43.445 37.4123 42.4057 35.6902L41.8367 37.9914C43.5588 36.9521 55.798 39.9784 56.8373 41.7005L57.4063 39.3993Z" fill="black"/>
<path fill-rule="evenodd" clip-rule="evenodd" d="M58.7101 39.2164C56.7685 38.6911 38.218 6.38031 38.7433 4.43869L36.6875 5.61896C38.6291 6.14426 57.1797 38.455 56.6544 40.3967L58.7101 39.2164Z" fill="black"/>
<path fill-rule="evenodd" clip-rule="evenodd" d="M42.0085 35.2402C40.4292 33.9946 37.1956 6.61828 38.4413 5.03897L36.0872 5.31703C37.6665 6.56267 40.9 33.9389 39.6544 35.5183L42.0085 35.2402Z" fill="black"/>
<circle cx="84.9882" cy="53.6316" r="2.51428" transform="rotate(73.75 84.9882 53.6316)" fill="black"/>
<ellipse cx="54.3508" cy="40.4008" rx="1.67619" ry="1.70856" transform="rotate(-18.75 54.3508 40.4008)" fill="black"/>
<circle cx="63.8284" cy="68.5042" r="2.51428" transform="rotate(-18.75 63.8284 68.5042)" fill="black"/>
<circle cx="42.074" cy="53.42" r="2.09524" transform="rotate(-65.0001 42.074 53.42)" fill="black"/>
<circle cx="72.3905" cy="40.4419" r="2.51428" transform="rotate(27.5 72.3905 40.4419)" fill="black"/>
<path fill-rule="evenodd" clip-rule="evenodd" d="M65.1089 67.3883C64.1736 65.6075 71.1513 43.1929 72.932 42.2576L70.6687 41.553C71.6039 43.3338 64.6263 65.7484 62.8455 66.6837L65.1089 67.3883Z" fill="black"/>
<path fill-rule="evenodd" clip-rule="evenodd" d="M63.3043 66.5224C61.33 66.9069 44.0035 55.2294 43.619 53.2551L42.2942 55.2208C44.2685 54.8362 61.595 66.5138 61.9795 68.4881L63.3043 66.5224Z" fill="black"/>
<path fill-rule="evenodd" clip-rule="evenodd" d="M64.3671 66.6648C62.5637 65.7741 54.9418 43.2765 55.8325 41.473L53.5874 42.2336C55.3909 43.1243 63.0127 65.622 62.122 67.4254L64.3671 66.6648Z" fill="black"/>
<path fill-rule="evenodd" clip-rule="evenodd" d="M65.2748 68.4635C65.6298 66.4836 82.1704 54.9731 84.1503 55.3281L82.7963 53.3824C82.4412 55.3622 65.9006 66.8728 63.9208 66.5178L65.2748 68.4635Z" fill="black"/>
<path fill-rule="evenodd" clip-rule="evenodd" d="M70.5986 40.1454C69.8446 42.0102 44.4668 52.7755 42.602 52.0215L43.5277 54.2038C44.2816 52.339 69.6595 41.5737 71.5243 42.3277L70.5986 40.1454Z" fill="black"/>
<path fill-rule="evenodd" clip-rule="evenodd" d="M70.97 39.5857C69.5443 41.0045 56.9364 40.9742 55.5176 39.5484L55.5119 41.9189C56.9376 40.5001 69.5454 40.5304 70.9643 41.9562L70.97 39.5857Z" fill="black"/>
<path fill-rule="evenodd" clip-rule="evenodd" d="M72.1119 42.4496C74.1228 42.4983 82.8191 51.627 82.7704 53.6378L84.4867 52.0028C82.4759 51.954 73.7795 42.8253 73.8283 40.8145L72.1119 42.4496Z" fill="black"/>
<path fill-rule="evenodd" clip-rule="evenodd" d="M43.6497 53.5431C43.6107 51.532 52.3512 42.4457 54.3622 42.4067L52.6538 40.7633C52.6929 42.7743 43.9524 51.8607 41.9413 51.8997L43.6497 53.5431Z" fill="black"/>
<path fill-rule="evenodd" clip-rule="evenodd" d="M43.1562 54.7637C44.5819 53.3449 81.8392 53.435 83.258 54.8608L83.2637 52.4903C81.838 53.9091 44.5808 53.819 43.1619 52.3933L43.1562 54.7637Z" fill="black"/>
<path fill-rule="evenodd" clip-rule="evenodd" d="M54.9505 42.2878C56.8189 41.5429 82.1442 52.4307 82.8891 54.2991L83.8254 52.1213C81.9569 52.8662 56.6316 41.9784 55.8867 40.11L54.9505 42.2878Z" fill="black"/>
<circle cx="17.5328" cy="70.3135" r="2.51428" transform="rotate(-166.25 17.5328 70.3135)" fill="black"/>
<ellipse cx="44.3098" cy="50.3963" rx="1.67619" ry="1.70856" transform="rotate(101.25 44.3098 50.3963)" fill="black"/>
<circle cx="15.233" cy="44.5524" r="2.51428" transform="rotate(101.25 15.233 44.5524)" fill="black"/>
<circle cx="39.1732" cy="33.2547" r="2.09524" transform="rotate(55.0001 39.1732 33.2547)" fill="black"/>
<circle cx="35.2541" cy="65.9985" r="2.51428" transform="rotate(147.5 35.2541 65.9985)" fill="black"/>
<path fill-rule="evenodd" clip-rule="evenodd" d="M15.5589 46.2192C17.5687 46.2996 33.4914 63.5498 33.411 65.5596L35.1529 63.9518C33.1431 63.8714 17.2204 46.6212 17.3008 44.6113L15.5589 46.2192Z" fill="black"/>
<path fill-rule="evenodd" clip-rule="evenodd" d="M17.2111 45.0894C17.8653 43.1874 36.6416 34.021 38.5437 34.6752L37.5037 32.545C36.8496 34.4471 18.0732 43.6134 16.1712 42.9592L17.2111 45.0894Z" fill="black"/>
<path fill-rule="evenodd" clip-rule="evenodd" d="M16.5564 45.9385C18.2295 44.8221 41.5239 49.4703 42.6404 51.1434L43.1043 48.8188C41.4312 49.9352 18.1367 45.287 17.0203 43.6139L16.5564 45.9385Z" fill="black"/>
<path fill-rule="evenodd" clip-rule="evenodd" d="M14.5446 45.8253C16.0817 47.1226 17.7797 67.2025 16.4823 68.7396L18.8444 68.5399C17.3073 67.2425 15.6093 47.1626 16.9067 45.6255L14.5446 45.8253Z" fill="black"/>
<path fill-rule="evenodd" clip-rule="evenodd" d="M36.4068 64.595C35.1688 63.0097 38.5349 35.6492 40.1202 34.4112L37.7675 34.1218C39.0054 35.7071 35.6394 63.0675 34.0541 64.3055L36.4068 64.595Z" fill="black"/>
<path fill-rule="evenodd" clip-rule="evenodd" d="M36.7058 65.1966C36.1899 63.2525 42.5202 52.349 44.4643 51.8331L42.4143 50.6429C42.9302 52.587 36.5999 63.4905 34.6557 64.0064L36.7058 65.1966Z" fill="black"/>
<path fill-rule="evenodd" clip-rule="evenodd" d="M33.6547 64.7534C32.607 66.4704 20.3532 69.4373 18.6362 68.3896L19.194 70.6936C20.2416 68.9765 32.4955 66.0097 34.2125 67.0573L33.6547 64.7534Z" fill="black"/>
<path fill-rule="evenodd" clip-rule="evenodd" d="M38.2787 34.5576C40.0399 35.5294 43.5386 47.6421 42.5668 49.4032L44.8442 48.7454C43.0831 47.7736 39.5844 35.6609 40.5561 33.8998L38.2787 34.5576Z" fill="black"/>
<path fill-rule="evenodd" clip-rule="evenodd" d="M37.4686 33.5199C37.9844 35.464 19.2776 67.6846 17.3335 68.2005L19.3835 69.3907C18.8676 67.4465 37.5744 35.226 39.5186 34.7101L37.4686 33.5199Z" fill="black"/>
<path fill-rule="evenodd" clip-rule="evenodd" d="M42.3756 49.972C42.0865 51.9626 19.9946 68.451 18.0041 68.1619L19.422 70.0616C19.7111 68.071 41.8029 51.5826 43.7935 51.8718L42.3756 49.972Z" fill="black"/>
<circle cx="7.90117" cy="31.3684" r="2.51428" transform="rotate(-106.25 7.90117 31.3684)" fill="black"/>
<ellipse cx="38.5386" cy="44.599" rx="1.67619" ry="1.70856" transform="rotate(161.25 38.5386 44.599)" fill="black"/>
<circle cx="29.061" cy="16.4957" r="2.51428" transform="rotate(161.25 29.061 16.4957)" fill="black"/>
<circle cx="50.8154" cy="31.5798" r="2.09524" transform="rotate(115 50.8154 31.5798)" fill="black"/>
<circle cx="20.4996" cy="44.558" r="2.51428" transform="rotate(-152.5 20.4996 44.558)" fill="black"/>
<path fill-rule="evenodd" clip-rule="evenodd" d="M27.7809 17.6116C28.7162 19.3924 21.7386 41.807 19.9579 42.7423L22.2212 43.4469C21.286 41.6661 28.2635 19.2515 30.0443 18.3162L27.7809 17.6116Z" fill="black"/>
<path fill-rule="evenodd" clip-rule="evenodd" d="M29.5853 18.4775C31.5596 18.0929 48.8862 29.7704 49.2707 31.7447L50.5955 29.779C48.6212 30.1635 31.2947 18.4861 30.9101 16.5118L29.5853 18.4775Z" fill="black"/>
<path fill-rule="evenodd" clip-rule="evenodd" d="M28.5222 18.3351C30.3257 19.2258 37.9476 41.7234 37.0569 43.5268L39.302 42.7662C37.4986 41.8755 29.8766 19.3779 30.7674 17.5744L28.5222 18.3351Z" fill="black"/>
<path fill-rule="evenodd" clip-rule="evenodd" d="M27.6148 16.5364C27.2598 18.5162 10.7192 30.0269 8.73937 29.6719L10.0934 31.6176C10.4484 29.6377 26.989 18.1271 28.9688 18.4821L27.6148 16.5364Z" fill="black"/>
<path fill-rule="evenodd" clip-rule="evenodd" d="M22.2911 44.8545C23.045 42.9897 48.4228 32.2243 50.2876 32.9782L49.3619 30.796C48.6079 32.6608 23.2302 43.4261 21.3654 42.6722L22.2911 44.8545Z" fill="black"/>
<path fill-rule="evenodd" clip-rule="evenodd" d="M21.9196 45.4142C23.3453 43.9954 35.9532 44.0257 37.3721 45.4514L37.3778 43.0809C35.9521 44.4998 23.3442 44.4695 21.9253 43.0437L21.9196 45.4142Z" fill="black"/>
<path fill-rule="evenodd" clip-rule="evenodd" d="M20.778 42.5503C18.7671 42.5016 10.0708 33.373 10.1195 31.3621L8.40318 32.9972C10.414 33.046 19.1104 42.1746 19.0617 44.1854L20.778 42.5503Z" fill="black"/>
<path fill-rule="evenodd" clip-rule="evenodd" d="M49.2399 31.4567C49.2789 33.4677 40.5385 42.5541 38.5274 42.5932L40.2358 44.2365C40.1968 42.2255 48.9372 33.1391 50.9483 33.1L49.2399 31.4567Z" fill="black"/>
<path fill-rule="evenodd" clip-rule="evenodd" d="M49.7337 30.236C48.308 31.6549 11.0507 31.5649 9.63188 30.1392L9.62615 32.5097C11.0519 31.0908 48.3091 31.1808 49.728 32.6065L49.7337 30.236Z" fill="black"/>
<path fill-rule="evenodd" clip-rule="evenodd" d="M37.939 42.712C36.0706 43.4569 10.7452 32.5693 10.0003 30.7009L9.06405 32.8786C10.9325 32.1337 36.2578 43.0214 37.0028 44.8898L37.939 42.712Z" fill="black"/>
</svg>
