<svg width="228" height="398" viewBox="0 0 228 398" fill="none" xmlns="http://www.w3.org/2000/svg">
<g filter="url(#filter0_ddii)">
<rect x="14" y="14" width="200" height="369.46" rx="60" fill="url(#paint0_radial)"/>
</g>
<g filter="url(#filter1_dd)">
<circle cx="68.5" cy="327.5" r="27.5" fill="url(#paint1_radial)"/>
<circle cx="68.5" cy="327.5" r="25" stroke="url(#paint2_radial)" stroke-width="5"/>
</g>
<g filter="url(#filter2_ii)">
<circle cx="68.5" cy="327.5" r="7.5" fill="url(#paint3_radial)"/>
</g>
<g filter="url(#filter3_f)">
<circle cx="68.5" cy="327.5" r="3.5" fill="#00FF29"/>
</g>
<circle cx="68.5" cy="327.5" r="3.5" fill="#00FF29"/>
<g filter="url(#filter4_dd)">
<circle cx="160.5" cy="327.5" r="27.5" fill="url(#paint4_radial)"/>
<circle cx="160.5" cy="327.5" r="25" stroke="url(#paint5_radial)" stroke-width="5"/>
</g>
<g filter="url(#filter5_ii)">
<circle cx="160.5" cy="327.5" r="7.5" fill="url(#paint6_radial)"/>
</g>
<g filter="url(#filter6_f)">
<circle cx="160.5" cy="327.5" r="3.5" fill="#00FF29"/>
</g>
<g filter="url(#filter7_i)">
<circle cx="160.5" cy="327.5" r="3.5" fill="#00FF29"/>
</g>
<g filter="url(#filter8_dd)">
<rect x="45" y="53" width="138" height="78" rx="39" fill="url(#paint7_radial)"/>
<rect x="46.5" y="54.5" width="135" height="75" rx="37.5" stroke="url(#paint8_radial)" stroke-width="3"/>
</g>
<g filter="url(#filter9_f)">
<path d="M102.748 68.04C87.7718 68.04 83.1638 78.84 83.1638 92.52C83.1638 106.2 87.7718 117 102.748 117C117.724 117 122.332 106.2 122.332 92.52C122.332 78.84 117.724 68.04 102.748 68.04ZM115.06 109.224L92.5238 73.8C95.3318 71.712 98.7878 70.92 102.748 70.92C112.324 70.92 119.452 75.672 119.452 92.52C119.452 100.656 117.796 105.912 115.06 109.224ZM86.0438 92.52C86.0438 84.456 87.6998 79.128 90.4358 75.816L112.9 111.312C110.092 113.328 106.636 114.12 102.748 114.12C93.0998 114.12 86.0438 109.368 86.0438 92.52ZM144.094 68.04H127.39V70.92H141.214V117H144.094V68.04Z" fill="#00FF29"/>
</g>
<path d="M102.748 68.04C87.7718 68.04 83.1638 78.84 83.1638 92.52C83.1638 106.2 87.7718 117 102.748 117C117.724 117 122.332 106.2 122.332 92.52C122.332 78.84 117.724 68.04 102.748 68.04ZM115.06 109.224L92.5238 73.8C95.3318 71.712 98.7878 70.92 102.748 70.92C112.324 70.92 119.452 75.672 119.452 92.52C119.452 100.656 117.796 105.912 115.06 109.224ZM86.0438 92.52C86.0438 84.456 87.6998 79.128 90.4358 75.816L112.9 111.312C110.092 113.328 106.636 114.12 102.748 114.12C93.0998 114.12 86.0438 109.368 86.0438 92.52ZM144.094 68.04H127.39V70.92H141.214V117H144.094V68.04Z" fill="#00FF29"/>
<g filter="url(#filter10_f)">
<path d="M66.1488 153.784V153.4C68.0448 153.208 68.6688 152.272 68.6688 151.12C68.6688 149.272 67.6848 148 65.1648 148H59.5728V160H65.1648C68.0208 160 69.0288 158.536 69.0288 156.688C69.0288 154.864 68.2848 153.976 66.1488 153.784ZM61.9728 150.4H64.9008C66.0048 150.4 66.2688 150.616 66.2688 151.432C66.2688 152.248 66.0048 152.464 64.9008 152.464H61.9728V150.4ZM64.7568 157.6H61.9728V154.864H64.7568C66.2208 154.864 66.6288 155.224 66.6288 156.232C66.6288 157.24 66.2208 157.6 64.7568 157.6ZM76.6704 160C80.3184 160 82.4064 157.528 82.4064 154C82.4064 150.472 80.3184 148 76.6704 148C73.0224 148 70.9344 150.472 70.9344 154C70.9344 157.528 73.0224 160 76.6704 160ZM76.6704 157.6C74.1984 157.6 73.3344 156.88 73.3344 154C73.3344 151.12 74.1984 150.4 76.6704 150.4C79.1424 150.4 80.0064 151.12 80.0064 154C80.0064 156.88 79.1424 157.6 76.6704 157.6ZM97.0254 148H87.8574V149.968C87.8334 154.12 87.6174 157.6 85.0494 157.6V160C89.8254 160 90.2574 154.96 90.2814 150.4H94.6254V160H97.0254V148ZM105.045 151.792H102.309V148H99.9088V160H105.045C108.285 160 109.437 158.032 109.437 155.896C109.437 153.76 108.285 151.792 105.045 151.792ZM104.661 157.6H102.309V154.192H104.661C106.317 154.192 107.037 154.312 107.037 155.896C107.037 157.48 106.317 157.6 104.661 157.6ZM121.372 148H110.38V150.4H114.676V160H117.076V150.4H121.372V148ZM135.155 148L130.619 156.136H130.235L125.699 148H123.299V160H125.699V153.712H126.083L128.867 158.416H131.987L134.771 153.712H135.155V160H137.555V148H135.155ZM150.091 153.76C150.091 150.232 148.603 148 144.907 148C141.211 148 139.723 150.472 139.723 154C139.723 156.136 140.395 160 145.819 160C146.731 160 147.403 160 149.275 159.52V157.168C147.715 157.6 146.779 157.6 145.819 157.6C143.203 157.6 142.435 156.568 142.219 155.2H150.091V153.76ZM144.907 150.4C146.803 150.4 147.595 151.048 147.691 152.8H142.147C142.291 151.192 143.107 150.4 144.907 150.4ZM162.036 148H151.044V150.4H155.34V160H157.74V150.4H162.036V148ZM170.414 148C168.734 148 167.558 148.648 166.838 149.44V148H164.438V163.84H166.838V158.56C167.558 159.352 168.734 160 170.414 160C174.302 160 175.67 157.528 175.67 154C175.67 150.472 174.302 148 170.414 148ZM170.054 157.6C167.702 157.6 166.838 156.88 166.838 154C166.838 151.12 167.702 150.4 170.054 150.4C172.406 150.4 173.27 151.12 173.27 154C173.27 156.88 172.406 157.6 170.054 157.6Z" fill="#00FF29"/>
</g>
<path d="M66.1488 153.784V153.4C68.0448 153.208 68.6688 152.272 68.6688 151.12C68.6688 149.272 67.6848 148 65.1648 148H59.5728V160H65.1648C68.0208 160 69.0288 158.536 69.0288 156.688C69.0288 154.864 68.2848 153.976 66.1488 153.784ZM61.9728 150.4H64.9008C66.0048 150.4 66.2688 150.616 66.2688 151.432C66.2688 152.248 66.0048 152.464 64.9008 152.464H61.9728V150.4ZM64.7568 157.6H61.9728V154.864H64.7568C66.2208 154.864 66.6288 155.224 66.6288 156.232C66.6288 157.24 66.2208 157.6 64.7568 157.6ZM76.6704 160C80.3184 160 82.4064 157.528 82.4064 154C82.4064 150.472 80.3184 148 76.6704 148C73.0224 148 70.9344 150.472 70.9344 154C70.9344 157.528 73.0224 160 76.6704 160ZM76.6704 157.6C74.1984 157.6 73.3344 156.88 73.3344 154C73.3344 151.12 74.1984 150.4 76.6704 150.4C79.1424 150.4 80.0064 151.12 80.0064 154C80.0064 156.88 79.1424 157.6 76.6704 157.6ZM97.0254 148H87.8574V149.968C87.8334 154.12 87.6174 157.6 85.0494 157.6V160C89.8254 160 90.2574 154.96 90.2814 150.4H94.6254V160H97.0254V148ZM105.045 151.792H102.309V148H99.9088V160H105.045C108.285 160 109.437 158.032 109.437 155.896C109.437 153.76 108.285 151.792 105.045 151.792ZM104.661 157.6H102.309V154.192H104.661C106.317 154.192 107.037 154.312 107.037 155.896C107.037 157.48 106.317 157.6 104.661 157.6ZM121.372 148H110.38V150.4H114.676V160H117.076V150.4H121.372V148ZM135.155 148L130.619 156.136H130.235L125.699 148H123.299V160H125.699V153.712H126.083L128.867 158.416H131.987L134.771 153.712H135.155V160H137.555V148H135.155ZM150.091 153.76C150.091 150.232 148.603 148 144.907 148C141.211 148 139.723 150.472 139.723 154C139.723 156.136 140.395 160 145.819 160C146.731 160 147.403 160 149.275 159.52V157.168C147.715 157.6 146.779 157.6 145.819 157.6C143.203 157.6 142.435 156.568 142.219 155.2H150.091V153.76ZM144.907 150.4C146.803 150.4 147.595 151.048 147.691 152.8H142.147C142.291 151.192 143.107 150.4 144.907 150.4ZM162.036 148H151.044V150.4H155.34V160H157.74V150.4H162.036V148ZM170.414 148C168.734 148 167.558 148.648 166.838 149.44V148H164.438V163.84H166.838V158.56C167.558 159.352 168.734 160 170.414 160C174.302 160 175.67 157.528 175.67 154C175.67 150.472 174.302 148 170.414 148ZM170.054 157.6C167.702 157.6 166.838 156.88 166.838 154C166.838 151.12 167.702 150.4 170.054 150.4C172.406 150.4 173.27 151.12 173.27 154C173.27 156.88 172.406 157.6 170.054 157.6Z" fill="#00FF29"/>
<g filter="url(#filter11_ddii)">
<rect x="41" y="270" width="147" height="8" rx="4" fill="#3F7373"/>
</g>
<g filter="url(#filter12_f)">
<rect x="43" y="272" width="141" height="4" rx="2" fill="#1BFF40"/>
</g>
<rect x="43" y="272" width="142" height="4" rx="2" fill="#1BFF40"/>
<g filter="url(#filter13_ii)">
<circle cx="180.5" cy="273.5" r="7.5" fill="url(#paint9_linear)"/>
</g>
<g filter="url(#filter14_f)">
<circle cx="180.5" cy="273.5" r="3.5" fill="#00FF29"/>
</g>
<circle cx="180.5" cy="273.5" r="3.5" fill="#00FF29"/>
<g filter="url(#filter15_f)">
<path d="M91.1414 33.48H88.0054V43H91.1414C94.3054 43 95.4114 41.376 95.4114 38.24C95.4114 35.09 94.3054 33.48 91.1414 33.48ZM91.1414 41.6H89.4054V34.88H91.1414C93.3254 34.88 94.0114 35.51 94.0114 38.24C94.0114 40.914 93.3254 41.6 91.1414 41.6ZM102.865 39.36C102.865 37.302 101.997 36 99.8412 36C97.6852 36 96.8172 37.442 96.8172 39.5C96.8172 40.746 97.2092 43 100.373 43C100.905 43 101.297 43 102.389 42.72V41.348C101.479 41.6 100.933 41.6 100.373 41.6C98.8472 41.6 98.3992 40.998 98.2732 40.2H102.865V39.36ZM99.8412 37.4C100.947 37.4 101.409 37.778 101.465 38.8H98.2312C98.3152 37.862 98.7912 37.4 99.8412 37.4ZM116.555 33.48H109.303V34.88H112.229V43H113.629V34.88H116.555V33.48ZM122.033 39.36C122.033 37.302 121.165 36 119.009 36C116.853 36 115.985 37.442 115.985 39.5C115.985 40.746 116.377 43 119.541 43C120.073 43 120.465 43 121.557 42.72V41.348C120.647 41.6 120.101 41.6 119.541 41.6C118.015 41.6 117.567 40.998 117.441 40.2H122.033V39.36ZM119.009 37.4C120.115 37.4 120.577 37.778 120.633 38.8H117.399C117.483 37.862 117.959 37.4 119.009 37.4ZM127.528 36H123.44V43H124.84V37.4H127.528V36ZM132.737 36H128.649V43H130.049V37.4H132.737V36ZM139.296 41.6V36H134.256V37.4H137.896V38.94C137.476 38.52 136.93 38.24 135.95 38.24C134.242 38.24 133.444 39.332 133.444 40.62C133.444 41.908 134.242 43 135.95 43C136.93 43 137.476 42.72 137.896 42.3V43H140.136V41.6H139.296ZM136.37 41.6C135.348 41.6 134.844 41.39 134.844 40.62C134.844 39.85 135.348 39.64 136.37 39.64C137.392 39.64 137.896 39.85 137.896 40.62C137.896 41.39 137.392 41.6 136.37 41.6Z" fill="#00FF29"/>
</g>
<path d="M91.1414 33.48H88.0054V43H91.1414C94.3054 43 95.4114 41.376 95.4114 38.24C95.4114 35.09 94.3054 33.48 91.1414 33.48ZM91.1414 41.6H89.4054V34.88H91.1414C93.3254 34.88 94.0114 35.51 94.0114 38.24C94.0114 40.914 93.3254 41.6 91.1414 41.6ZM102.865 39.36C102.865 37.302 101.997 36 99.8412 36C97.6852 36 96.8172 37.442 96.8172 39.5C96.8172 40.746 97.2092 43 100.373 43C100.905 43 101.297 43 102.389 42.72V41.348C101.479 41.6 100.933 41.6 100.373 41.6C98.8472 41.6 98.3992 40.998 98.2732 40.2H102.865V39.36ZM99.8412 37.4C100.947 37.4 101.409 37.778 101.465 38.8H98.2312C98.3152 37.862 98.7912 37.4 99.8412 37.4ZM116.555 33.48H109.303V34.88H112.229V43H113.629V34.88H116.555V33.48ZM122.033 39.36C122.033 37.302 121.165 36 119.009 36C116.853 36 115.985 37.442 115.985 39.5C115.985 40.746 116.377 43 119.541 43C120.073 43 120.465 43 121.557 42.72V41.348C120.647 41.6 120.101 41.6 119.541 41.6C118.015 41.6 117.567 40.998 117.441 40.2H122.033V39.36ZM119.009 37.4C120.115 37.4 120.577 37.778 120.633 38.8H117.399C117.483 37.862 117.959 37.4 119.009 37.4ZM127.528 36H123.44V43H124.84V37.4H127.528V36ZM132.737 36H128.649V43H130.049V37.4H132.737V36ZM139.296 41.6V36H134.256V37.4H137.896V38.94C137.476 38.52 136.93 38.24 135.95 38.24C134.242 38.24 133.444 39.332 133.444 40.62C133.444 41.908 134.242 43 135.95 43C136.93 43 137.476 42.72 137.896 42.3V43H140.136V41.6H139.296ZM136.37 41.6C135.348 41.6 134.844 41.39 134.844 40.62C134.844 39.85 135.348 39.64 136.37 39.64C137.392 39.64 137.896 39.85 137.896 40.62C137.896 41.39 137.392 41.6 136.37 41.6Z" fill="#00FF29"/>
<g filter="url(#filter16_ddii)">
<circle cx="117.5" cy="215.5" r="27.5" fill="url(#paint10_radial)"/>
</g>
<g filter="url(#filter17_ddii)">
<circle cx="117.5" cy="215.5" r="17.5" fill="url(#paint11_radial)"/>
</g>
<g filter="url(#filter18_f)">
<path d="M127 216C127 221.523 122.523 226 117 226C111.477 226 107 221.523 107 216C107 210.477 111.477 206 117 206C122.523 206 127 210.477 127 216ZM109.284 216C109.284 220.262 112.738 223.716 117 223.716C121.262 223.716 124.716 220.262 124.716 216C124.716 211.738 121.262 208.284 117 208.284C112.738 208.284 109.284 211.738 109.284 216Z" fill="#1BFF40"/>
</g>
<g filter="url(#filter19_dd)">
<path d="M127 216C127 221.523 122.523 226 117 226C111.477 226 107 221.523 107 216C107 210.477 111.477 206 117 206C122.523 206 127 210.477 127 216ZM109.284 216C109.284 220.262 112.738 223.716 117 223.716C121.262 223.716 124.716 220.262 124.716 216C124.716 211.738 121.262 208.284 117 208.284C112.738 208.284 109.284 211.738 109.284 216Z" fill="#00FF29"/>
</g>
<defs>
<filter id="filter0_ddii" x="0" y="0" width="228" height="397.46" filterUnits="userSpaceOnUse" color-interpolation-filters="sRGB">
<feFlood flood-opacity="0" result="BackgroundImageFix"/>
<feColorMatrix in="SourceAlpha" type="matrix" values="0 0 0 0 0 0 0 0 0 0 0 0 0 0 0 0 0 0 127 0"/>
<feOffset dx="-4" dy="-4"/>
<feGaussianBlur stdDeviation="5"/>
<feColorMatrix type="matrix" values="0 0 0 0 0.270588 0 0 0 0 0.47451 0 0 0 0 0.47451 0 0 0 1 0"/>
<feBlend mode="normal" in2="BackgroundImageFix" result="effect1_dropShadow"/>
<feColorMatrix in="SourceAlpha" type="matrix" values="0 0 0 0 0 0 0 0 0 0 0 0 0 0 0 0 0 0 127 0"/>
<feOffset dx="4" dy="4"/>
<feGaussianBlur stdDeviation="5"/>
<feColorMatrix type="matrix" values="0 0 0 0 0.223529 0 0 0 0 0.427451 0 0 0 0 0.427451 0 0 0 1 0"/>
<feBlend mode="normal" in2="effect1_dropShadow" result="effect2_dropShadow"/>
<feBlend mode="normal" in="SourceGraphic" in2="effect2_dropShadow" result="shape"/>
<feColorMatrix in="SourceAlpha" type="matrix" values="0 0 0 0 0 0 0 0 0 0 0 0 0 0 0 0 0 0 127 0" result="hardAlpha"/>
<feOffset dx="-4" dy="-4"/>
<feGaussianBlur stdDeviation="4"/>
<feComposite in2="hardAlpha" operator="arithmetic" k2="-1" k3="1"/>
<feColorMatrix type="matrix" values="0 0 0 0 0.227451 0 0 0 0 0.431373 0 0 0 0 0.431373 0 0 0 1 0"/>
<feBlend mode="normal" in2="shape" result="effect3_innerShadow"/>
<feColorMatrix in="SourceAlpha" type="matrix" values="0 0 0 0 0 0 0 0 0 0 0 0 0 0 0 0 0 0 127 0" result="hardAlpha"/>
<feOffset dx="4" dy="4"/>
<feGaussianBlur stdDeviation="4"/>
<feComposite in2="hardAlpha" operator="arithmetic" k2="-1" k3="1"/>
<feColorMatrix type="matrix" values="0 0 0 0 0.262745 0 0 0 0 0.466667 0 0 0 0 0.466667 0 0 0 1 0"/>
<feBlend mode="normal" in2="effect3_innerShadow" result="effect4_innerShadow"/>
</filter>
<filter id="filter1_dd" x="18" y="277" width="101" height="101" filterUnits="userSpaceOnUse" color-interpolation-filters="sRGB">
<feFlood flood-opacity="0" result="BackgroundImageFix"/>
<feColorMatrix in="SourceAlpha" type="matrix" values="0 0 0 0 0 0 0 0 0 0 0 0 0 0 0 0 0 0 127 0"/>
<feOffset dx="-7" dy="-7"/>
<feGaussianBlur stdDeviation="8"/>
<feColorMatrix type="matrix" values="0 0 0 0 0.262745 0 0 0 0 0.470588 0 0 0 0 0.470588 0 0 0 1 0"/>
<feBlend mode="normal" in2="BackgroundImageFix" result="effect1_dropShadow"/>
<feColorMatrix in="SourceAlpha" type="matrix" values="0 0 0 0 0 0 0 0 0 0 0 0 0 0 0 0 0 0 127 0"/>
<feOffset dx="7" dy="7"/>
<feGaussianBlur stdDeviation="8"/>
<feColorMatrix type="matrix" values="0 0 0 0 0.215686 0 0 0 0 0.419608 0 0 0 0 0.419608 0 0 0 1 0"/>
<feBlend mode="normal" in2="effect1_dropShadow" result="effect2_dropShadow"/>
<feBlend mode="normal" in="SourceGraphic" in2="effect2_dropShadow" result="shape"/>
</filter>
<filter id="filter2_ii" x="59" y="318" width="19" height="19" filterUnits="userSpaceOnUse" color-interpolation-filters="sRGB">
<feFlood flood-opacity="0" result="BackgroundImageFix"/>
<feBlend mode="normal" in="SourceGraphic" in2="BackgroundImageFix" result="shape"/>
<feColorMatrix in="SourceAlpha" type="matrix" values="0 0 0 0 0 0 0 0 0 0 0 0 0 0 0 0 0 0 127 0" result="hardAlpha"/>
<feOffset dx="-2" dy="-2"/>
<feGaussianBlur stdDeviation="2.5"/>
<feComposite in2="hardAlpha" operator="arithmetic" k2="-1" k3="1"/>
<feColorMatrix type="matrix" values="0 0 0 0 0.266667 0 0 0 0 0.470588 0 0 0 0 0.470588 0 0 0 1 0"/>
<feBlend mode="normal" in2="shape" result="effect1_innerShadow"/>
<feColorMatrix in="SourceAlpha" type="matrix" values="0 0 0 0 0 0 0 0 0 0 0 0 0 0 0 0 0 0 127 0" result="hardAlpha"/>
<feOffset dx="2" dy="2"/>
<feGaussianBlur stdDeviation="2.5"/>
<feComposite in2="hardAlpha" operator="arithmetic" k2="-1" k3="1"/>
<feColorMatrix type="matrix" values="0 0 0 0 0.223529 0 0 0 0 0.427451 0 0 0 0 0.427451 0 0 0 1 0"/>
<feBlend mode="normal" in2="effect1_innerShadow" result="effect2_innerShadow"/>
</filter>
<filter id="filter3_f" x="55" y="314" width="27" height="27" filterUnits="userSpaceOnUse" color-interpolation-filters="sRGB">
<feFlood flood-opacity="0" result="BackgroundImageFix"/>
<feBlend mode="normal" in="SourceGraphic" in2="BackgroundImageFix" result="shape"/>
<feGaussianBlur stdDeviation="5" result="effect1_foregroundBlur"/>
</filter>
<filter id="filter4_dd" x="110" y="277" width="101" height="101" filterUnits="userSpaceOnUse" color-interpolation-filters="sRGB">
<feFlood flood-opacity="0" result="BackgroundImageFix"/>
<feColorMatrix in="SourceAlpha" type="matrix" values="0 0 0 0 0 0 0 0 0 0 0 0 0 0 0 0 0 0 127 0"/>
<feOffset dx="-7" dy="-7"/>
<feGaussianBlur stdDeviation="8"/>
<feColorMatrix type="matrix" values="0 0 0 0 0.262745 0 0 0 0 0.470588 0 0 0 0 0.470588 0 0 0 1 0"/>
<feBlend mode="normal" in2="BackgroundImageFix" result="effect1_dropShadow"/>
<feColorMatrix in="SourceAlpha" type="matrix" values="0 0 0 0 0 0 0 0 0 0 0 0 0 0 0 0 0 0 127 0"/>
<feOffset dx="7" dy="7"/>
<feGaussianBlur stdDeviation="8"/>
<feColorMatrix type="matrix" values="0 0 0 0 0.215686 0 0 0 0 0.419608 0 0 0 0 0.419608 0 0 0 1 0"/>
<feBlend mode="normal" in2="effect1_dropShadow" result="effect2_dropShadow"/>
<feBlend mode="normal" in="SourceGraphic" in2="effect2_dropShadow" result="shape"/>
</filter>
<filter id="filter5_ii" x="151" y="318" width="19" height="19" filterUnits="userSpaceOnUse" color-interpolation-filters="sRGB">
<feFlood flood-opacity="0" result="BackgroundImageFix"/>
<feBlend mode="normal" in="SourceGraphic" in2="BackgroundImageFix" result="shape"/>
<feColorMatrix in="SourceAlpha" type="matrix" values="0 0 0 0 0 0 0 0 0 0 0 0 0 0 0 0 0 0 127 0" result="hardAlpha"/>
<feOffset dx="-2" dy="-2"/>
<feGaussianBlur stdDeviation="2.5"/>
<feComposite in2="hardAlpha" operator="arithmetic" k2="-1" k3="1"/>
<feColorMatrix type="matrix" values="0 0 0 0 0.266667 0 0 0 0 0.470588 0 0 0 0 0.470588 0 0 0 1 0"/>
<feBlend mode="normal" in2="shape" result="effect1_innerShadow"/>
<feColorMatrix in="SourceAlpha" type="matrix" values="0 0 0 0 0 0 0 0 0 0 0 0 0 0 0 0 0 0 127 0" result="hardAlpha"/>
<feOffset dx="2" dy="2"/>
<feGaussianBlur stdDeviation="2.5"/>
<feComposite in2="hardAlpha" operator="arithmetic" k2="-1" k3="1"/>
<feColorMatrix type="matrix" values="0 0 0 0 0.223529 0 0 0 0 0.427451 0 0 0 0 0.427451 0 0 0 1 0"/>
<feBlend mode="normal" in2="effect1_innerShadow" result="effect2_innerShadow"/>
</filter>
<filter id="filter6_f" x="147" y="314" width="27" height="27" filterUnits="userSpaceOnUse" color-interpolation-filters="sRGB">
<feFlood flood-opacity="0" result="BackgroundImageFix"/>
<feBlend mode="normal" in="SourceGraphic" in2="BackgroundImageFix" result="shape"/>
<feGaussianBlur stdDeviation="5" result="effect1_foregroundBlur"/>
</filter>
<filter id="filter7_i" x="155" y="322" width="9" height="9" filterUnits="userSpaceOnUse" color-interpolation-filters="sRGB">
<feFlood flood-opacity="0" result="BackgroundImageFix"/>
<feBlend mode="normal" in="SourceGraphic" in2="BackgroundImageFix" result="shape"/>
<feColorMatrix in="SourceAlpha" type="matrix" values="0 0 0 0 0 0 0 0 0 0 0 0 0 0 0 0 0 0 127 0" result="hardAlpha"/>
<feOffset dx="-2" dy="-2"/>
<feGaussianBlur stdDeviation="2.5"/>
<feComposite in2="hardAlpha" operator="arithmetic" k2="-1" k3="1"/>
<feColorMatrix type="matrix" values="0 0 0 0 1 0 0 0 0 1 0 0 0 0 1 0 0 0 0.2 0"/>
<feBlend mode="normal" in2="shape" result="effect1_innerShadow"/>
</filter>
<filter id="filter8_dd" x="37" y="45" width="154" height="94" filterUnits="userSpaceOnUse" color-interpolation-filters="sRGB">
<feFlood flood-opacity="0" result="BackgroundImageFix"/>
<feColorMatrix in="SourceAlpha" type="matrix" values="0 0 0 0 0 0 0 0 0 0 0 0 0 0 0 0 0 0 127 0"/>
<feOffset dx="-4" dy="-4"/>
<feGaussianBlur stdDeviation="2"/>
<feColorMatrix type="matrix" values="0 0 0 0 0.27451 0 0 0 0 0.478431 0 0 0 0 0.478431 0 0 0 1 0"/>
<feBlend mode="normal" in2="BackgroundImageFix" result="effect1_dropShadow"/>
<feColorMatrix in="SourceAlpha" type="matrix" values="0 0 0 0 0 0 0 0 0 0 0 0 0 0 0 0 0 0 127 0"/>
<feOffset dx="4" dy="4"/>
<feGaussianBlur stdDeviation="2"/>
<feColorMatrix type="matrix" values="0 0 0 0 0.231373 0 0 0 0 0.435294 0 0 0 0 0.435294 0 0 0 1 0"/>
<feBlend mode="normal" in2="effect1_dropShadow" result="effect2_dropShadow"/>
<feBlend mode="normal" in="SourceGraphic" in2="effect2_dropShadow" result="shape"/>
</filter>
<filter id="filter9_f" x="73.1637" y="58.04" width="80.9306" height="68.96" filterUnits="userSpaceOnUse" color-interpolation-filters="sRGB">
<feFlood flood-opacity="0" result="BackgroundImageFix"/>
<feBlend mode="normal" in="SourceGraphic" in2="BackgroundImageFix" result="shape"/>
<feGaussianBlur stdDeviation="5" result="effect1_foregroundBlur"/>
</filter>
<filter id="filter10_f" x="49.5728" y="138" width="136.097" height="35.84" filterUnits="userSpaceOnUse" color-interpolation-filters="sRGB">
<feFlood flood-opacity="0" result="BackgroundImageFix"/>
<feBlend mode="normal" in="SourceGraphic" in2="BackgroundImageFix" result="shape"/>
<feGaussianBlur stdDeviation="5" result="effect1_foregroundBlur"/>
</filter>
<filter id="filter11_ddii" x="31" y="260" width="163" height="24" filterUnits="userSpaceOnUse" color-interpolation-filters="sRGB">
<feFlood flood-opacity="0" result="BackgroundImageFix"/>
<feColorMatrix in="SourceAlpha" type="matrix" values="0 0 0 0 0 0 0 0 0 0 0 0 0 0 0 0 0 0 127 0"/>
<feOffset dx="-2" dy="-2"/>
<feGaussianBlur stdDeviation="4"/>
<feColorMatrix type="matrix" values="0 0 0 0 0.27451 0 0 0 0 0.478431 0 0 0 0 0.478431 0 0 0 1 0"/>
<feBlend mode="normal" in2="BackgroundImageFix" result="effect1_dropShadow"/>
<feColorMatrix in="SourceAlpha" type="matrix" values="0 0 0 0 0 0 0 0 0 0 0 0 0 0 0 0 0 0 127 0"/>
<feOffset dx="2" dy="2"/>
<feGaussianBlur stdDeviation="2"/>
<feColorMatrix type="matrix" values="0 0 0 0 0.227451 0 0 0 0 0.431373 0 0 0 0 0.431373 0 0 0 1 0"/>
<feBlend mode="normal" in2="effect1_dropShadow" result="effect2_dropShadow"/>
<feBlend mode="normal" in="SourceGraphic" in2="effect2_dropShadow" result="shape"/>
<feColorMatrix in="SourceAlpha" type="matrix" values="0 0 0 0 0 0 0 0 0 0 0 0 0 0 0 0 0 0 127 0" result="hardAlpha"/>
<feOffset dx="3" dy="3"/>
<feGaussianBlur stdDeviation="2"/>
<feComposite in2="hardAlpha" operator="arithmetic" k2="-1" k3="1"/>
<feColorMatrix type="matrix" values="0 0 0 0 0.223529 0 0 0 0 0.427451 0 0 0 0 0.427451 0 0 0 1 0"/>
<feBlend mode="normal" in2="shape" result="effect3_innerShadow"/>
<feColorMatrix in="SourceAlpha" type="matrix" values="0 0 0 0 0 0 0 0 0 0 0 0 0 0 0 0 0 0 127 0" result="hardAlpha"/>
<feOffset dx="-3" dy="-3"/>
<feGaussianBlur stdDeviation="2.5"/>
<feComposite in2="hardAlpha" operator="arithmetic" k2="-1" k3="1"/>
<feColorMatrix type="matrix" values="0 0 0 0 0.262745 0 0 0 0 0.466667 0 0 0 0 0.466667 0 0 0 1 0"/>
<feBlend mode="normal" in2="effect3_innerShadow" result="effect4_innerShadow"/>
</filter>
<filter id="filter12_f" x="33" y="262" width="161" height="24" filterUnits="userSpaceOnUse" color-interpolation-filters="sRGB">
<feFlood flood-opacity="0" result="BackgroundImageFix"/>
<feBlend mode="normal" in="SourceGraphic" in2="BackgroundImageFix" result="shape"/>
<feGaussianBlur stdDeviation="5" result="effect1_foregroundBlur"/>
</filter>
<filter id="filter13_ii" x="171" y="264" width="19" height="19" filterUnits="userSpaceOnUse" color-interpolation-filters="sRGB">
<feFlood flood-opacity="0" result="BackgroundImageFix"/>
<feBlend mode="normal" in="SourceGraphic" in2="BackgroundImageFix" result="shape"/>
<feColorMatrix in="SourceAlpha" type="matrix" values="0 0 0 0 0 0 0 0 0 0 0 0 0 0 0 0 0 0 127 0" result="hardAlpha"/>
<feOffset dx="-2" dy="-2"/>
<feGaussianBlur stdDeviation="2.5"/>
<feComposite in2="hardAlpha" operator="arithmetic" k2="-1" k3="1"/>
<feColorMatrix type="matrix" values="0 0 0 0 1 0 0 0 0 1 0 0 0 0 1 0 0 0 0.2 0"/>
<feBlend mode="normal" in2="shape" result="effect1_innerShadow"/>
<feColorMatrix in="SourceAlpha" type="matrix" values="0 0 0 0 0 0 0 0 0 0 0 0 0 0 0 0 0 0 127 0" result="hardAlpha"/>
<feOffset dx="2" dy="2"/>
<feGaussianBlur stdDeviation="2.5"/>
<feComposite in2="hardAlpha" operator="arithmetic" k2="-1" k3="1"/>
<feColorMatrix type="matrix" values="0 0 0 0 0.027451 0 0 0 0 0.223529 0 0 0 0 0.223529 0 0 0 0.75 0"/>
<feBlend mode="normal" in2="effect1_innerShadow" result="effect2_innerShadow"/>
</filter>
<filter id="filter14_f" x="167" y="260" width="27" height="27" filterUnits="userSpaceOnUse" color-interpolation-filters="sRGB">
<feFlood flood-opacity="0" result="BackgroundImageFix"/>
<feBlend mode="normal" in="SourceGraphic" in2="BackgroundImageFix" result="shape"/>
<feGaussianBlur stdDeviation="5" result="effect1_foregroundBlur"/>
</filter>
<filter id="filter15_f" x="78.0054" y="23.48" width="72.1307" height="29.52" filterUnits="userSpaceOnUse" color-interpolation-filters="sRGB">
<feFlood flood-opacity="0" result="BackgroundImageFix"/>
<feBlend mode="normal" in="SourceGraphic" in2="BackgroundImageFix" result="shape"/>
<feGaussianBlur stdDeviation="5" result="effect1_foregroundBlur"/>
</filter>
<filter id="filter16_ddii" x="80" y="178" width="75" height="75" filterUnits="userSpaceOnUse" color-interpolation-filters="sRGB">
<feFlood flood-opacity="0" result="BackgroundImageFix"/>
<feColorMatrix in="SourceAlpha" type="matrix" values="0 0 0 0 0 0 0 0 0 0 0 0 0 0 0 0 0 0 127 0"/>
<feOffset dx="-2" dy="-2"/>
<feGaussianBlur stdDeviation="4"/>
<feColorMatrix type="matrix" values="0 0 0 0 0.278431 0 0 0 0 0.482353 0 0 0 0 0.482353 0 0 0 1 0"/>
<feBlend mode="normal" in2="BackgroundImageFix" result="effect1_dropShadow"/>
<feColorMatrix in="SourceAlpha" type="matrix" values="0 0 0 0 0 0 0 0 0 0 0 0 0 0 0 0 0 0 127 0"/>
<feOffset dx="2" dy="2"/>
<feGaussianBlur stdDeviation="4"/>
<feColorMatrix type="matrix" values="0 0 0 0 0.215686 0 0 0 0 0.419608 0 0 0 0 0.419608 0 0 0 1 0"/>
<feBlend mode="normal" in2="effect1_dropShadow" result="effect2_dropShadow"/>
<feBlend mode="normal" in="SourceGraphic" in2="effect2_dropShadow" result="shape"/>
<feColorMatrix in="SourceAlpha" type="matrix" values="0 0 0 0 0 0 0 0 0 0 0 0 0 0 0 0 0 0 127 0" result="hardAlpha"/>
<feOffset dx="-4" dy="-4"/>
<feGaussianBlur stdDeviation="2"/>
<feComposite in2="hardAlpha" operator="arithmetic" k2="-1" k3="1"/>
<feColorMatrix type="matrix" values="0 0 0 0 0.223529 0 0 0 0 0.427451 0 0 0 0 0.427451 0 0 0 1 0"/>
<feBlend mode="normal" in2="shape" result="effect3_innerShadow"/>
<feColorMatrix in="SourceAlpha" type="matrix" values="0 0 0 0 0 0 0 0 0 0 0 0 0 0 0 0 0 0 127 0" result="hardAlpha"/>
<feOffset dx="4" dy="4"/>
<feGaussianBlur stdDeviation="2"/>
<feComposite in2="hardAlpha" operator="arithmetic" k2="-1" k3="1"/>
<feColorMatrix type="matrix" values="0 0 0 0 0.262745 0 0 0 0 0.466667 0 0 0 0 0.466667 0 0 0 1 0"/>
<feBlend mode="normal" in2="effect3_innerShadow" result="effect4_innerShadow"/>
</filter>
<filter id="filter17_ddii" x="80" y="178" width="75" height="75" filterUnits="userSpaceOnUse" color-interpolation-filters="sRGB">
<feFlood flood-opacity="0" result="BackgroundImageFix"/>
<feColorMatrix in="SourceAlpha" type="matrix" values="0 0 0 0 0 0 0 0 0 0 0 0 0 0 0 0 0 0 127 0"/>
<feOffset dx="-4" dy="-4"/>
<feGaussianBlur stdDeviation="8"/>
<feColorMatrix type="matrix" values="0 0 0 0 0.270588 0 0 0 0 0.47451 0 0 0 0 0.47451 0 0 0 1 0"/>
<feBlend mode="normal" in2="BackgroundImageFix" result="effect1_dropShadow"/>
<feColorMatrix in="SourceAlpha" type="matrix" values="0 0 0 0 0 0 0 0 0 0 0 0 0 0 0 0 0 0 127 0"/>
<feOffset dx="4" dy="4"/>
<feGaussianBlur stdDeviation="8"/>
<feColorMatrix type="matrix" values="0 0 0 0 0.223529 0 0 0 0 0.427451 0 0 0 0 0.427451 0 0 0 1 0"/>
<feBlend mode="normal" in2="effect1_dropShadow" result="effect2_dropShadow"/>
<feBlend mode="normal" in="SourceGraphic" in2="effect2_dropShadow" result="shape"/>
<feColorMatrix in="SourceAlpha" type="matrix" values="0 0 0 0 0 0 0 0 0 0 0 0 0 0 0 0 0 0 127 0" result="hardAlpha"/>
<feOffset dx="2" dy="2"/>
<feGaussianBlur stdDeviation="5"/>
<feComposite in2="hardAlpha" operator="arithmetic" k2="-1" k3="1"/>
<feColorMatrix type="matrix" values="0 0 0 0 0.223529 0 0 0 0 0.427451 0 0 0 0 0.427451 0 0 0 1 0"/>
<feBlend mode="normal" in2="shape" result="effect3_innerShadow"/>
<feColorMatrix in="SourceAlpha" type="matrix" values="0 0 0 0 0 0 0 0 0 0 0 0 0 0 0 0 0 0 127 0" result="hardAlpha"/>
<feOffset dx="-2" dy="-2"/>
<feGaussianBlur stdDeviation="5"/>
<feComposite in2="hardAlpha" operator="arithmetic" k2="-1" k3="1"/>
<feColorMatrix type="matrix" values="0 0 0 0 0.270588 0 0 0 0 0.47451 0 0 0 0 0.47451 0 0 0 1 0"/>
<feBlend mode="normal" in2="effect3_innerShadow" result="effect4_innerShadow"/>
</filter>
<filter id="filter18_f" x="97" y="196" width="40" height="40" filterUnits="userSpaceOnUse" color-interpolation-filters="sRGB">
<feFlood flood-opacity="0" result="BackgroundImageFix"/>
<feBlend mode="normal" in="SourceGraphic" in2="BackgroundImageFix" result="shape"/>
<feGaussianBlur stdDeviation="5" result="effect1_foregroundBlur"/>
</filter>
<filter id="filter19_dd" x="101" y="200" width="32" height="32" filterUnits="userSpaceOnUse" color-interpolation-filters="sRGB">
<feFlood flood-opacity="0" result="BackgroundImageFix"/>
<feColorMatrix in="SourceAlpha" type="matrix" values="0 0 0 0 0 0 0 0 0 0 0 0 0 0 0 0 0 0 127 0"/>
<feOffset dx="-2" dy="-2"/>
<feGaussianBlur stdDeviation="2"/>
<feColorMatrix type="matrix" values="0 0 0 0 0.266667 0 0 0 0 0.470588 0 0 0 0 0.470588 0 0 0 1 0"/>
<feBlend mode="normal" in2="BackgroundImageFix" result="effect1_dropShadow"/>
<feColorMatrix in="SourceAlpha" type="matrix" values="0 0 0 0 0 0 0 0 0 0 0 0 0 0 0 0 0 0 127 0"/>
<feOffset dx="2" dy="2"/>
<feGaussianBlur stdDeviation="2"/>
<feColorMatrix type="matrix" values="0 0 0 0 0.235294 0 0 0 0 0.439216 0 0 0 0 0.439216 0 0 0 1 0"/>
<feBlend mode="normal" in2="effect1_dropShadow" result="effect2_dropShadow"/>
<feBlend mode="normal" in="SourceGraphic" in2="effect2_dropShadow" result="shape"/>
</filter>
<radialGradient id="paint0_radial" cx="0" cy="0" r="1" gradientUnits="userSpaceOnUse" gradientTransform="translate(14 14) rotate(61.5421) scale(419.715 227.205)">
<stop stop-color="#427676"/>
<stop offset="1" stop-color="#3C7070"/>
</radialGradient>
<radialGradient id="paint1_radial" cx="0" cy="0" r="1" gradientUnits="userSpaceOnUse" gradientTransform="translate(41 300) rotate(45) scale(77.7817)">
<stop stop-color="#417575"/>
<stop offset="1" stop-color="#3A6E6E"/>
</radialGradient>
<radialGradient id="paint2_radial" cx="0" cy="0" r="1" gradientUnits="userSpaceOnUse" gradientTransform="translate(41 300) rotate(45) scale(77.7817)">
<stop stop-color="#3A6D6D"/>
<stop offset="1" stop-color="#427575"/>
</radialGradient>
<radialGradient id="paint3_radial" cx="0" cy="0" r="1" gradientUnits="userSpaceOnUse" gradientTransform="translate(61 320) rotate(45) scale(21.2132)">
<stop stop-color="#386D6D"/>
<stop offset="1" stop-color="#427777"/>
</radialGradient>
<radialGradient id="paint4_radial" cx="0" cy="0" r="1" gradientUnits="userSpaceOnUse" gradientTransform="translate(133 300) rotate(45) scale(77.7817)">
<stop stop-color="#417575"/>
<stop offset="1" stop-color="#3A6E6E"/>
</radialGradient>
<radialGradient id="paint5_radial" cx="0" cy="0" r="1" gradientUnits="userSpaceOnUse" gradientTransform="translate(133 300) rotate(45) scale(77.7817)">
<stop stop-color="#3A6D6D"/>
<stop offset="1" stop-color="#427575"/>
</radialGradient>
<radialGradient id="paint6_radial" cx="0" cy="0" r="1" gradientUnits="userSpaceOnUse" gradientTransform="translate(153 320) rotate(45) scale(21.2132)">
<stop stop-color="#386D6D"/>
<stop offset="1" stop-color="#427777"/>
</radialGradient>
<radialGradient id="paint7_radial" cx="0" cy="0" r="1" gradientUnits="userSpaceOnUse" gradientTransform="translate(45 53) rotate(29.4759) scale(158.518 280.455)">
<stop stop-color="#447878"/>
<stop offset="1" stop-color="#3C7070"/>
</radialGradient>
<radialGradient id="paint8_radial" cx="0" cy="0" r="1" gradientUnits="userSpaceOnUse" gradientTransform="translate(45 53) rotate(29.4759) scale(158.518 331.814)">
<stop stop-color="#487C7C"/>
<stop offset="1" stop-color="#396D6D"/>
</radialGradient>
<linearGradient id="paint9_linear" x1="173" y1="266" x2="188" y2="281" gradientUnits="userSpaceOnUse">
<stop stop-color="#578B8B"/>
<stop offset="1" stop-color="#336767"/>
</linearGradient>
<radialGradient id="paint10_radial" cx="0" cy="0" r="1" gradientUnits="userSpaceOnUse" gradientTransform="translate(90 188) rotate(45) scale(77.7817)">
<stop stop-color="#427676"/>
<stop offset="1" stop-color="#3B6F6F"/>
</radialGradient>
<radialGradient id="paint11_radial" cx="0" cy="0" r="1" gradientUnits="userSpaceOnUse" gradientTransform="translate(100 198) rotate(45) scale(49.4975)">
<stop stop-color="#3C7070"/>
<stop offset="1" stop-color="#427676"/>
</radialGradient>
</defs>
</svg>
