<svg width="528" height="177" viewBox="0 0 528 177" fill="none" xmlns="http://www.w3.org/2000/svg">
<g filter="url(#filter0_ddii)">
<rect x="14" y="14" width="500" height="149" rx="60" fill="url(#paint0_radial)"/>
</g>
<g filter="url(#filter1_f)">
<path d="M421.167 126.48H418.031V136H421.167C424.331 136 425.437 134.376 425.437 131.24C425.437 128.09 424.331 126.48 421.167 126.48ZM421.167 134.6H419.431V127.88H421.167C423.351 127.88 424.037 128.51 424.037 131.24C424.037 133.914 423.351 134.6 421.167 134.6ZM432.891 132.36C432.891 130.302 432.023 129 429.867 129C427.711 129 426.843 130.442 426.843 132.5C426.843 133.746 427.235 136 430.399 136C430.931 136 431.323 136 432.415 135.72V134.348C431.505 134.6 430.959 134.6 430.399 134.6C428.873 134.6 428.425 133.998 428.299 133.2H432.891V132.36ZM429.867 130.4C430.973 130.4 431.435 130.778 431.491 131.8H428.257C428.341 130.862 428.817 130.4 429.867 130.4ZM446.58 126.48H439.328V127.88H442.254V136H443.654V127.88H446.58V126.48ZM452.059 132.36C452.059 130.302 451.191 129 449.035 129C446.879 129 446.011 130.442 446.011 132.5C446.011 133.746 446.403 136 449.567 136C450.099 136 450.491 136 451.583 135.72V134.348C450.673 134.6 450.127 134.6 449.567 134.6C448.041 134.6 447.593 133.998 447.467 133.2H452.059V132.36ZM449.035 130.4C450.141 130.4 450.603 130.778 450.659 131.8H447.425C447.509 130.862 447.985 130.4 449.035 130.4ZM457.553 129H453.465V136H454.865V130.4H457.553V129ZM462.762 129H458.674V136H460.074V130.4H462.762V129ZM469.322 134.6V129H464.282V130.4H467.922V131.94C467.502 131.52 466.956 131.24 465.976 131.24C464.268 131.24 463.47 132.332 463.47 133.62C463.47 134.908 464.268 136 465.976 136C466.956 136 467.502 135.72 467.922 135.3V136H470.162V134.6H469.322ZM466.396 134.6C465.374 134.6 464.87 134.39 464.87 133.62C464.87 132.85 465.374 132.64 466.396 132.64C467.418 132.64 467.922 132.85 467.922 133.62C467.922 134.39 467.418 134.6 466.396 134.6Z" fill="#00FF29"/>
</g>
<path d="M421.167 126.48H418.031V136H421.167C424.331 136 425.437 134.376 425.437 131.24C425.437 128.09 424.331 126.48 421.167 126.48ZM421.167 134.6H419.431V127.88H421.167C423.351 127.88 424.037 128.51 424.037 131.24C424.037 133.914 423.351 134.6 421.167 134.6ZM432.891 132.36C432.891 130.302 432.023 129 429.867 129C427.711 129 426.843 130.442 426.843 132.5C426.843 133.746 427.235 136 430.399 136C430.931 136 431.323 136 432.415 135.72V134.348C431.505 134.6 430.959 134.6 430.399 134.6C428.873 134.6 428.425 133.998 428.299 133.2H432.891V132.36ZM429.867 130.4C430.973 130.4 431.435 130.778 431.491 131.8H428.257C428.341 130.862 428.817 130.4 429.867 130.4ZM446.58 126.48H439.328V127.88H442.254V136H443.654V127.88H446.58V126.48ZM452.059 132.36C452.059 130.302 451.191 129 449.035 129C446.879 129 446.011 130.442 446.011 132.5C446.011 133.746 446.403 136 449.567 136C450.099 136 450.491 136 451.583 135.72V134.348C450.673 134.6 450.127 134.6 449.567 134.6C448.041 134.6 447.593 133.998 447.467 133.2H452.059V132.36ZM449.035 130.4C450.141 130.4 450.603 130.778 450.659 131.8H447.425C447.509 130.862 447.985 130.4 449.035 130.4ZM457.553 129H453.465V136H454.865V130.4H457.553V129ZM462.762 129H458.674V136H460.074V130.4H462.762V129ZM469.322 134.6V129H464.282V130.4H467.922V131.94C467.502 131.52 466.956 131.24 465.976 131.24C464.268 131.24 463.47 132.332 463.47 133.62C463.47 134.908 464.268 136 465.976 136C466.956 136 467.502 135.72 467.922 135.3V136H470.162V134.6H469.322ZM466.396 134.6C465.374 134.6 464.87 134.39 464.87 133.62C464.87 132.85 465.374 132.64 466.396 132.64C467.418 132.64 467.922 132.85 467.922 133.62C467.922 134.39 467.418 134.6 466.396 134.6Z" fill="#00FF29"/>
<g filter="url(#filter2_dd)">
<rect x="57" y="59" width="110" height="60" rx="30" fill="url(#paint1_radial)"/>
<rect x="58.5" y="60.5" width="107" height="57" rx="28.5" stroke="url(#paint2_radial)" stroke-width="3"/>
</g>
<g filter="url(#filter3_f)">
<path d="M97.7739 85.32L107.326 74.28V72.36H87.7419V74.28H104.782L95.6619 84.84L96.3339 86.76H97.0539C101.038 86.76 106.366 88.152 106.366 94.92C106.366 101.448 101.758 103.08 97.2939 103.08C92.8299 103.08 88.2219 101.448 88.2219 94.92H86.3019C86.3019 100.056 89.0379 105 97.2939 105C105.55 105 108.286 100.056 108.286 94.92C108.286 88.344 103.822 84.84 97.7739 85.32ZM126.639 72.36C116.655 72.36 113.583 79.56 113.583 88.68C113.583 97.8 116.655 105 126.639 105C136.623 105 139.695 97.8 139.695 88.68C139.695 79.56 136.623 72.36 126.639 72.36ZM134.847 99.816L119.823 76.2C121.695 74.808 123.999 74.28 126.639 74.28C133.023 74.28 137.775 77.448 137.775 88.68C137.775 94.104 136.671 97.608 134.847 99.816ZM115.503 88.68C115.503 83.304 116.607 79.752 118.431 77.544L133.407 101.208C131.535 102.552 129.231 103.08 126.639 103.08C120.207 103.08 115.503 99.912 115.503 88.68Z" fill="#00FF29"/>
</g>
<path d="M96.7739 85.32L106.326 74.28V72.36H86.7419V74.28H103.782L94.6619 84.84L95.3339 86.76H96.0539C100.038 86.76 105.366 88.152 105.366 94.92C105.366 101.448 100.758 103.08 96.2939 103.08C91.8299 103.08 87.2219 101.448 87.2219 94.92H85.3019C85.3019 100.056 88.0379 105 96.2939 105C104.55 105 107.286 100.056 107.286 94.92C107.286 88.344 102.822 84.84 96.7739 85.32ZM125.639 72.36C115.655 72.36 112.583 79.56 112.583 88.68C112.583 97.8 115.655 105 125.639 105C135.623 105 138.695 97.8 138.695 88.68C138.695 79.56 135.623 72.36 125.639 72.36ZM133.847 99.816L118.823 76.2C120.695 74.808 122.999 74.28 125.639 74.28C132.023 74.28 136.775 77.448 136.775 88.68C136.775 94.104 135.671 97.608 133.847 99.816ZM114.503 88.68C114.503 83.304 115.607 79.752 117.431 77.544L132.407 101.208C130.535 102.552 128.231 103.08 125.639 103.08C119.207 103.08 114.503 99.912 114.503 88.68Z" fill="#00FF29"/>
<g filter="url(#filter4_f)">
<path d="M183.216 90.8C186.384 90.8 187.992 89.048 187.992 86C187.992 82.952 186.384 81.2 183.216 81.2C180.048 81.2 178.44 82.952 178.44 86C178.44 89.048 180.048 90.8 183.216 90.8ZM183.216 88.4C181.464 88.4 180.84 87.68 180.84 86C180.84 84.32 181.464 83.6 183.216 83.6C184.968 83.6 185.592 84.32 185.592 86C185.592 87.68 184.968 88.4 183.216 88.4ZM190.622 89.84C190.622 93.92 192.638 98 197.87 98C202.334 98 204.614 95.144 204.758 91.784H202.358C201.95 94.376 201.134 95.6 197.87 95.6C194.414 95.6 193.022 93.944 193.022 89.84C193.022 85.736 194.414 84.08 197.87 84.08C201.134 84.08 201.95 85.304 202.358 87.896H204.758C204.614 84.536 202.334 81.68 197.87 81.68C192.638 81.68 190.622 85.76 190.622 89.84Z" fill="#00FF29"/>
</g>
<path d="M183.216 90.8C186.384 90.8 187.992 89.048 187.992 86C187.992 82.952 186.384 81.2 183.216 81.2C180.048 81.2 178.44 82.952 178.44 86C178.44 89.048 180.048 90.8 183.216 90.8ZM183.216 88.4C181.464 88.4 180.84 87.68 180.84 86C180.84 84.32 181.464 83.6 183.216 83.6C184.968 83.6 185.592 84.32 185.592 86C185.592 87.68 184.968 88.4 183.216 88.4ZM190.622 89.84C190.622 93.92 192.638 98 197.87 98C202.334 98 204.614 95.144 204.758 91.784H202.358C201.95 94.376 201.134 95.6 197.87 95.6C194.414 95.6 193.022 93.944 193.022 89.84C193.022 85.736 194.414 84.08 197.87 84.08C201.134 84.08 201.95 85.304 202.358 87.896H204.758C204.614 84.536 202.334 81.68 197.87 81.68C192.638 81.68 190.622 85.76 190.622 89.84Z" fill="#00FF29"/>
<g filter="url(#filter5_ddii)">
<rect x="57" y="41" width="414" height="8" rx="4" fill="#3F7373"/>
</g>
<g filter="url(#filter6_f)">
<rect x="59" y="43" width="141" height="4" rx="2" fill="#1BFF40"/>
</g>
<rect x="59" y="43" width="141" height="4" rx="2" fill="#1BFF40"/>
<g filter="url(#filter7_ii)">
<circle cx="198.5" cy="44.5" r="7.5" fill="url(#paint3_linear)"/>
</g>
<g filter="url(#filter8_f)">
<circle cx="198.5" cy="44.5" r="3.5" fill="#00FF29"/>
</g>
<circle cx="198.5" cy="44.5" r="3.5" fill="#00FF29"/>
<g filter="url(#filter9_f)">
<path d="M297.051 86H286.059V88.4H290.355V98H292.755V88.4H297.051V86ZM308.638 91.76C308.638 88.232 307.15 86 303.454 86C299.758 86 298.27 88.472 298.27 92C298.27 94.136 298.942 98 304.366 98C305.278 98 305.95 98 307.822 97.52V95.168C306.262 95.6 305.326 95.6 304.366 95.6C301.75 95.6 300.982 94.568 300.766 93.2H308.638V91.76ZM303.454 88.4C305.35 88.4 306.142 89.048 306.238 90.8H300.694C300.838 89.192 301.654 88.4 303.454 88.4ZM317.008 86C315.328 86 314.152 86.648 313.432 87.44V86H311.032V101.84H313.432V96.56C314.152 97.352 315.328 98 317.008 98C320.896 98 322.264 95.528 322.264 92C322.264 88.472 320.896 86 317.008 86ZM316.648 95.6C314.296 95.6 313.432 94.88 313.432 92C313.432 89.12 314.296 88.4 316.648 88.4C319 88.4 319.864 89.12 319.864 92C319.864 94.88 319 95.6 316.648 95.6ZM336.288 86L331.752 94.136H331.368L326.832 86H324.432V98H326.832V91.712H327.216L330 96.416H333.12L335.904 91.712H336.288V98H338.688V86H336.288ZM346.592 98C350.24 98 352.328 95.528 352.328 92C352.328 88.472 350.24 86 346.592 86C342.944 86 340.856 88.472 340.856 92C340.856 95.528 342.944 98 346.592 98ZM346.592 95.6C344.12 95.6 343.256 94.88 343.256 92C343.256 89.12 344.12 88.4 346.592 88.4C349.064 88.4 349.928 89.12 349.928 92C349.928 94.88 349.064 95.6 346.592 95.6ZM361.187 86C359.507 86 358.331 86.648 357.611 87.44V86H355.211V101.84H357.611V96.56C358.331 97.352 359.507 98 361.187 98C365.075 98 366.443 95.528 366.443 92C366.443 88.472 365.075 86 361.187 86ZM360.827 95.6C358.475 95.6 357.611 94.88 357.611 92C357.611 89.12 358.475 88.4 360.827 88.4C363.179 88.4 364.043 89.12 364.043 92C364.043 94.88 363.179 95.6 360.827 95.6ZM378.74 91.76C378.74 88.232 377.252 86 373.556 86C369.86 86 368.372 88.472 368.372 92C368.372 94.136 369.044 98 374.468 98C375.38 98 376.052 98 377.924 97.52V95.168C376.364 95.6 375.428 95.6 374.468 95.6C371.852 95.6 371.084 94.568 370.868 93.2H378.74V91.76ZM373.556 88.4C375.452 88.4 376.244 89.048 376.34 90.8H370.796C370.94 89.192 371.756 88.4 373.556 88.4ZM389.359 86H381.151V98H383.551V88.4H389.359V86ZM400.355 86V91.52C400.355 93.92 399.491 94.64 397.379 94.64C395.267 94.64 394.403 93.92 394.403 91.52V86H392.003V91.52C392.003 94.568 393.371 97.04 397.019 97.04C398.459 97.04 399.635 96.392 400.355 95.6V99.44H393.635V101.84H402.755V86H400.355ZM417.619 86H408.451V87.968C408.427 92.12 408.211 95.6 405.643 95.6V98C410.419 98 410.851 92.96 410.875 88.4H415.219V98H417.619V86ZM425.674 86C421.45 86 420.274 87.08 420.274 89.552C420.274 91.952 421.45 92.384 423.85 92.648V93.032H420.034V98H422.434V94.088H427.69V98H430.09V86H425.674ZM427.69 91.688H425.674C423.37 91.688 422.674 91.472 422.674 90.032C422.674 88.52 423.37 88.4 425.674 88.4H427.69V91.688ZM442.997 86H432.005V88.4H436.301V98H438.701V88.4H442.997V86ZM449.952 98C453.6 98 455.688 95.528 455.688 92C455.688 88.472 453.6 86 449.952 86C446.304 86 444.216 88.472 444.216 92C444.216 95.528 446.304 98 449.952 98ZM449.952 95.6C447.48 95.6 446.616 94.88 446.616 92C446.616 89.12 447.48 88.4 449.952 88.4C452.424 88.4 453.288 89.12 453.288 92C453.288 94.88 452.424 95.6 449.952 95.6ZM464.547 86C462.867 86 461.691 86.648 460.971 87.44V86H458.571V101.84H460.971V96.56C461.691 97.352 462.867 98 464.547 98C468.435 98 469.803 95.528 469.803 92C469.803 88.472 468.435 86 464.547 86ZM464.187 95.6C461.835 95.6 460.971 94.88 460.971 92C460.971 89.12 461.835 88.4 464.187 88.4C466.539 88.4 467.403 89.12 467.403 92C467.403 94.88 466.539 95.6 464.187 95.6Z" fill="#00FF29"/>
</g>
<path d="M297.051 86H286.059V88.4H290.355V98H292.755V88.4H297.051V86ZM308.638 91.76C308.638 88.232 307.15 86 303.454 86C299.758 86 298.27 88.472 298.27 92C298.27 94.136 298.942 98 304.366 98C305.278 98 305.95 98 307.822 97.52V95.168C306.262 95.6 305.326 95.6 304.366 95.6C301.75 95.6 300.982 94.568 300.766 93.2H308.638V91.76ZM303.454 88.4C305.35 88.4 306.142 89.048 306.238 90.8H300.694C300.838 89.192 301.654 88.4 303.454 88.4ZM317.008 86C315.328 86 314.152 86.648 313.432 87.44V86H311.032V101.84H313.432V96.56C314.152 97.352 315.328 98 317.008 98C320.896 98 322.264 95.528 322.264 92C322.264 88.472 320.896 86 317.008 86ZM316.648 95.6C314.296 95.6 313.432 94.88 313.432 92C313.432 89.12 314.296 88.4 316.648 88.4C319 88.4 319.864 89.12 319.864 92C319.864 94.88 319 95.6 316.648 95.6ZM336.288 86L331.752 94.136H331.368L326.832 86H324.432V98H326.832V91.712H327.216L330 96.416H333.12L335.904 91.712H336.288V98H338.688V86H336.288ZM346.592 98C350.24 98 352.328 95.528 352.328 92C352.328 88.472 350.24 86 346.592 86C342.944 86 340.856 88.472 340.856 92C340.856 95.528 342.944 98 346.592 98ZM346.592 95.6C344.12 95.6 343.256 94.88 343.256 92C343.256 89.12 344.12 88.4 346.592 88.4C349.064 88.4 349.928 89.12 349.928 92C349.928 94.88 349.064 95.6 346.592 95.6ZM361.187 86C359.507 86 358.331 86.648 357.611 87.44V86H355.211V101.84H357.611V96.56C358.331 97.352 359.507 98 361.187 98C365.075 98 366.443 95.528 366.443 92C366.443 88.472 365.075 86 361.187 86ZM360.827 95.6C358.475 95.6 357.611 94.88 357.611 92C357.611 89.12 358.475 88.4 360.827 88.4C363.179 88.4 364.043 89.12 364.043 92C364.043 94.88 363.179 95.6 360.827 95.6ZM378.74 91.76C378.74 88.232 377.252 86 373.556 86C369.86 86 368.372 88.472 368.372 92C368.372 94.136 369.044 98 374.468 98C375.38 98 376.052 98 377.924 97.52V95.168C376.364 95.6 375.428 95.6 374.468 95.6C371.852 95.6 371.084 94.568 370.868 93.2H378.74V91.76ZM373.556 88.4C375.452 88.4 376.244 89.048 376.34 90.8H370.796C370.94 89.192 371.756 88.4 373.556 88.4ZM389.359 86H381.151V98H383.551V88.4H389.359V86ZM400.355 86V91.52C400.355 93.92 399.491 94.64 397.379 94.64C395.267 94.64 394.403 93.92 394.403 91.52V86H392.003V91.52C392.003 94.568 393.371 97.04 397.019 97.04C398.459 97.04 399.635 96.392 400.355 95.6V99.44H393.635V101.84H402.755V86H400.355ZM417.619 86H408.451V87.968C408.427 92.12 408.211 95.6 405.643 95.6V98C410.419 98 410.851 92.96 410.875 88.4H415.219V98H417.619V86ZM425.674 86C421.45 86 420.274 87.08 420.274 89.552C420.274 91.952 421.45 92.384 423.85 92.648V93.032H420.034V98H422.434V94.088H427.69V98H430.09V86H425.674ZM427.69 91.688H425.674C423.37 91.688 422.674 91.472 422.674 90.032C422.674 88.52 423.37 88.4 425.674 88.4H427.69V91.688ZM442.997 86H432.005V88.4H436.301V98H438.701V88.4H442.997V86ZM449.952 98C453.6 98 455.688 95.528 455.688 92C455.688 88.472 453.6 86 449.952 86C446.304 86 444.216 88.472 444.216 92C444.216 95.528 446.304 98 449.952 98ZM449.952 95.6C447.48 95.6 446.616 94.88 446.616 92C446.616 89.12 447.48 88.4 449.952 88.4C452.424 88.4 453.288 89.12 453.288 92C453.288 94.88 452.424 95.6 449.952 95.6ZM464.547 86C462.867 86 461.691 86.648 460.971 87.44V86H458.571V101.84H460.971V96.56C461.691 97.352 462.867 98 464.547 98C468.435 98 469.803 95.528 469.803 92C469.803 88.472 468.435 86 464.547 86ZM464.187 95.6C461.835 95.6 460.971 94.88 460.971 92C460.971 89.12 461.835 88.4 464.187 88.4C466.539 88.4 467.403 89.12 467.403 92C467.403 94.88 466.539 95.6 464.187 95.6Z" fill="#00FF29"/>
<defs>
<filter id="filter0_ddii" x="0" y="0" width="528" height="177" filterUnits="userSpaceOnUse" color-interpolation-filters="sRGB">
<feFlood flood-opacity="0" result="BackgroundImageFix"/>
<feColorMatrix in="SourceAlpha" type="matrix" values="0 0 0 0 0 0 0 0 0 0 0 0 0 0 0 0 0 0 127 0"/>
<feOffset dx="-4" dy="-4"/>
<feGaussianBlur stdDeviation="5"/>
<feColorMatrix type="matrix" values="0 0 0 0 0.270588 0 0 0 0 0.47451 0 0 0 0 0.47451 0 0 0 1 0"/>
<feBlend mode="normal" in2="BackgroundImageFix" result="effect1_dropShadow"/>
<feColorMatrix in="SourceAlpha" type="matrix" values="0 0 0 0 0 0 0 0 0 0 0 0 0 0 0 0 0 0 127 0"/>
<feOffset dx="4" dy="4"/>
<feGaussianBlur stdDeviation="5"/>
<feColorMatrix type="matrix" values="0 0 0 0 0.223529 0 0 0 0 0.427451 0 0 0 0 0.427451 0 0 0 1 0"/>
<feBlend mode="normal" in2="effect1_dropShadow" result="effect2_dropShadow"/>
<feBlend mode="normal" in="SourceGraphic" in2="effect2_dropShadow" result="shape"/>
<feColorMatrix in="SourceAlpha" type="matrix" values="0 0 0 0 0 0 0 0 0 0 0 0 0 0 0 0 0 0 127 0" result="hardAlpha"/>
<feOffset dx="-4" dy="-4"/>
<feGaussianBlur stdDeviation="4"/>
<feComposite in2="hardAlpha" operator="arithmetic" k2="-1" k3="1"/>
<feColorMatrix type="matrix" values="0 0 0 0 0.227451 0 0 0 0 0.431373 0 0 0 0 0.431373 0 0 0 1 0"/>
<feBlend mode="normal" in2="shape" result="effect3_innerShadow"/>
<feColorMatrix in="SourceAlpha" type="matrix" values="0 0 0 0 0 0 0 0 0 0 0 0 0 0 0 0 0 0 127 0" result="hardAlpha"/>
<feOffset dx="4" dy="4"/>
<feGaussianBlur stdDeviation="4"/>
<feComposite in2="hardAlpha" operator="arithmetic" k2="-1" k3="1"/>
<feColorMatrix type="matrix" values="0 0 0 0 0.262745 0 0 0 0 0.466667 0 0 0 0 0.466667 0 0 0 1 0"/>
<feBlend mode="normal" in2="effect3_innerShadow" result="effect4_innerShadow"/>
</filter>
<filter id="filter1_f" x="408.031" y="116.48" width="72.1307" height="29.52" filterUnits="userSpaceOnUse" color-interpolation-filters="sRGB">
<feFlood flood-opacity="0" result="BackgroundImageFix"/>
<feBlend mode="normal" in="SourceGraphic" in2="BackgroundImageFix" result="shape"/>
<feGaussianBlur stdDeviation="5" result="effect1_foregroundBlur"/>
</filter>
<filter id="filter2_dd" x="49" y="51" width="126" height="76" filterUnits="userSpaceOnUse" color-interpolation-filters="sRGB">
<feFlood flood-opacity="0" result="BackgroundImageFix"/>
<feColorMatrix in="SourceAlpha" type="matrix" values="0 0 0 0 0 0 0 0 0 0 0 0 0 0 0 0 0 0 127 0"/>
<feOffset dx="-4" dy="-4"/>
<feGaussianBlur stdDeviation="2"/>
<feColorMatrix type="matrix" values="0 0 0 0 0.27451 0 0 0 0 0.478431 0 0 0 0 0.478431 0 0 0 1 0"/>
<feBlend mode="normal" in2="BackgroundImageFix" result="effect1_dropShadow"/>
<feColorMatrix in="SourceAlpha" type="matrix" values="0 0 0 0 0 0 0 0 0 0 0 0 0 0 0 0 0 0 127 0"/>
<feOffset dx="4" dy="4"/>
<feGaussianBlur stdDeviation="2"/>
<feColorMatrix type="matrix" values="0 0 0 0 0.231373 0 0 0 0 0.435294 0 0 0 0 0.435294 0 0 0 1 0"/>
<feBlend mode="normal" in2="effect1_dropShadow" result="effect2_dropShadow"/>
<feBlend mode="normal" in="SourceGraphic" in2="effect2_dropShadow" result="shape"/>
</filter>
<filter id="filter3_f" x="76.3019" y="62.3599" width="73.3932" height="52.64" filterUnits="userSpaceOnUse" color-interpolation-filters="sRGB">
<feFlood flood-opacity="0" result="BackgroundImageFix"/>
<feBlend mode="normal" in="SourceGraphic" in2="BackgroundImageFix" result="shape"/>
<feGaussianBlur stdDeviation="5" result="effect1_foregroundBlur"/>
</filter>
<filter id="filter4_f" x="168.44" y="71.2002" width="46.3179" height="36.8" filterUnits="userSpaceOnUse" color-interpolation-filters="sRGB">
<feFlood flood-opacity="0" result="BackgroundImageFix"/>
<feBlend mode="normal" in="SourceGraphic" in2="BackgroundImageFix" result="shape"/>
<feGaussianBlur stdDeviation="5" result="effect1_foregroundBlur"/>
</filter>
<filter id="filter5_ddii" x="47" y="31" width="430" height="24" filterUnits="userSpaceOnUse" color-interpolation-filters="sRGB">
<feFlood flood-opacity="0" result="BackgroundImageFix"/>
<feColorMatrix in="SourceAlpha" type="matrix" values="0 0 0 0 0 0 0 0 0 0 0 0 0 0 0 0 0 0 127 0"/>
<feOffset dx="-2" dy="-2"/>
<feGaussianBlur stdDeviation="4"/>
<feColorMatrix type="matrix" values="0 0 0 0 0.27451 0 0 0 0 0.478431 0 0 0 0 0.478431 0 0 0 1 0"/>
<feBlend mode="normal" in2="BackgroundImageFix" result="effect1_dropShadow"/>
<feColorMatrix in="SourceAlpha" type="matrix" values="0 0 0 0 0 0 0 0 0 0 0 0 0 0 0 0 0 0 127 0"/>
<feOffset dx="2" dy="2"/>
<feGaussianBlur stdDeviation="2"/>
<feColorMatrix type="matrix" values="0 0 0 0 0.227451 0 0 0 0 0.431373 0 0 0 0 0.431373 0 0 0 1 0"/>
<feBlend mode="normal" in2="effect1_dropShadow" result="effect2_dropShadow"/>
<feBlend mode="normal" in="SourceGraphic" in2="effect2_dropShadow" result="shape"/>
<feColorMatrix in="SourceAlpha" type="matrix" values="0 0 0 0 0 0 0 0 0 0 0 0 0 0 0 0 0 0 127 0" result="hardAlpha"/>
<feOffset dx="3" dy="3"/>
<feGaussianBlur stdDeviation="2"/>
<feComposite in2="hardAlpha" operator="arithmetic" k2="-1" k3="1"/>
<feColorMatrix type="matrix" values="0 0 0 0 0.223529 0 0 0 0 0.427451 0 0 0 0 0.427451 0 0 0 1 0"/>
<feBlend mode="normal" in2="shape" result="effect3_innerShadow"/>
<feColorMatrix in="SourceAlpha" type="matrix" values="0 0 0 0 0 0 0 0 0 0 0 0 0 0 0 0 0 0 127 0" result="hardAlpha"/>
<feOffset dx="-3" dy="-3"/>
<feGaussianBlur stdDeviation="2.5"/>
<feComposite in2="hardAlpha" operator="arithmetic" k2="-1" k3="1"/>
<feColorMatrix type="matrix" values="0 0 0 0 0.262745 0 0 0 0 0.466667 0 0 0 0 0.466667 0 0 0 1 0"/>
<feBlend mode="normal" in2="effect3_innerShadow" result="effect4_innerShadow"/>
</filter>
<filter id="filter6_f" x="49" y="33" width="161" height="24" filterUnits="userSpaceOnUse" color-interpolation-filters="sRGB">
<feFlood flood-opacity="0" result="BackgroundImageFix"/>
<feBlend mode="normal" in="SourceGraphic" in2="BackgroundImageFix" result="shape"/>
<feGaussianBlur stdDeviation="5" result="effect1_foregroundBlur"/>
</filter>
<filter id="filter7_ii" x="189" y="35" width="19" height="19" filterUnits="userSpaceOnUse" color-interpolation-filters="sRGB">
<feFlood flood-opacity="0" result="BackgroundImageFix"/>
<feBlend mode="normal" in="SourceGraphic" in2="BackgroundImageFix" result="shape"/>
<feColorMatrix in="SourceAlpha" type="matrix" values="0 0 0 0 0 0 0 0 0 0 0 0 0 0 0 0 0 0 127 0" result="hardAlpha"/>
<feOffset dx="-2" dy="-2"/>
<feGaussianBlur stdDeviation="2.5"/>
<feComposite in2="hardAlpha" operator="arithmetic" k2="-1" k3="1"/>
<feColorMatrix type="matrix" values="0 0 0 0 1 0 0 0 0 1 0 0 0 0 1 0 0 0 0.2 0"/>
<feBlend mode="normal" in2="shape" result="effect1_innerShadow"/>
<feColorMatrix in="SourceAlpha" type="matrix" values="0 0 0 0 0 0 0 0 0 0 0 0 0 0 0 0 0 0 127 0" result="hardAlpha"/>
<feOffset dx="2" dy="2"/>
<feGaussianBlur stdDeviation="2.5"/>
<feComposite in2="hardAlpha" operator="arithmetic" k2="-1" k3="1"/>
<feColorMatrix type="matrix" values="0 0 0 0 0.027451 0 0 0 0 0.223529 0 0 0 0 0.223529 0 0 0 0.75 0"/>
<feBlend mode="normal" in2="effect1_innerShadow" result="effect2_innerShadow"/>
</filter>
<filter id="filter8_f" x="185" y="31" width="27" height="27" filterUnits="userSpaceOnUse" color-interpolation-filters="sRGB">
<feFlood flood-opacity="0" result="BackgroundImageFix"/>
<feBlend mode="normal" in="SourceGraphic" in2="BackgroundImageFix" result="shape"/>
<feGaussianBlur stdDeviation="5" result="effect1_foregroundBlur"/>
</filter>
<filter id="filter9_f" x="276.059" y="76" width="203.743" height="35.84" filterUnits="userSpaceOnUse" color-interpolation-filters="sRGB">
<feFlood flood-opacity="0" result="BackgroundImageFix"/>
<feBlend mode="normal" in="SourceGraphic" in2="BackgroundImageFix" result="shape"/>
<feGaussianBlur stdDeviation="5" result="effect1_foregroundBlur"/>
</filter>
<radialGradient id="paint0_radial" cx="0" cy="0" r="1" gradientUnits="userSpaceOnUse" gradientTransform="translate(14 14) rotate(16.5745) scale(521.676 184.302)">
<stop stop-color="#427676"/>
<stop offset="1" stop-color="#3C7070"/>
</radialGradient>
<radialGradient id="paint1_radial" cx="0" cy="0" r="1" gradientUnits="userSpaceOnUse" gradientTransform="translate(57 59) rotate(28.6105) scale(125.3 217.552)">
<stop stop-color="#447878"/>
<stop offset="1" stop-color="#3C7070"/>
</radialGradient>
<radialGradient id="paint2_radial" cx="0" cy="0" r="1" gradientUnits="userSpaceOnUse" gradientTransform="translate(57 59) rotate(28.6105) scale(125.3 257.392)">
<stop stop-color="#487C7C"/>
<stop offset="1" stop-color="#396D6D"/>
</radialGradient>
<linearGradient id="paint3_linear" x1="191" y1="37" x2="206" y2="52" gradientUnits="userSpaceOnUse">
<stop stop-color="#366B6B"/>
<stop offset="1" stop-color="#0C4040"/>
</linearGradient>
</defs>
</svg>
