<svg width="295" height="58" viewBox="0 0 295 58" fill="none" xmlns="http://www.w3.org/2000/svg">
<g filter="url(#filter0_f)">
<path d="M31.8215 20.16V15.36H10.7975V48H31.8215V43.2H15.5975V33.6H27.9815V28.8H15.5975V20.16H31.8215ZM41.1856 15.36H36.1456L46.4176 48H54.0016L64.2736 15.36H59.2336L50.5936 42.816H49.8256L41.1856 15.36ZM85.9055 48H90.9455L80.6735 15.36H73.0895L62.8175 48H67.8575L70.2095 40.56H83.5535L85.9055 48ZM71.6975 35.76L76.4975 20.544H77.2655L82.0655 35.76H71.6975ZM96.7081 35.952H113.604V31.152H96.7081V35.952ZM134.229 35.04V34.272C141.429 33.744 143.301 31.104 143.301 25.824C143.301 19.92 140.949 15.36 130.581 15.36H119.829V48H124.629V37.296H138.981V48H143.781V35.04H134.229ZM124.629 32.496V20.16H130.581C137.109 20.16 138.501 21.36 138.501 26.304C138.501 31.104 137.109 32.496 130.581 32.496H124.629ZM164.524 48C174.508 48 180.46 40.8 180.46 31.68C180.46 22.56 174.508 15.36 164.524 15.36C154.54 15.36 148.588 22.56 148.588 31.68C148.588 40.8 154.54 48 164.524 48ZM164.524 43.2C158.092 43.2 153.388 40.368 153.388 31.68C153.388 22.992 158.092 20.16 164.524 20.16C170.908 20.16 175.66 22.992 175.66 31.68C175.66 40.368 170.908 43.2 164.524 43.2ZM185.724 35.952H202.62V31.152H185.724V35.952ZM229.004 24H213.644V14.4H208.844V48H213.644V28.8H224.204V48H229.004V24ZM235.224 15.36V20.16H251.64L237.144 48H242.568L257.064 20.16V15.36H235.224ZM262.833 15.36V20.16H279.249L264.753 48H270.177L284.673 20.16V15.36H262.833Z" fill="#00FF29"/>
</g>
<path d="M31.8215 20.16V15.36H10.7975V48H31.8215V43.2H15.5975V33.6H27.9815V28.8H15.5975V20.16H31.8215ZM41.1856 15.36H36.1456L46.4176 48H54.0016L64.2736 15.36H59.2336L50.5936 42.816H49.8256L41.1856 15.36ZM85.9055 48H90.9455L80.6735 15.36H73.0895L62.8175 48H67.8575L70.2095 40.56H83.5535L85.9055 48ZM71.6975 35.76L76.4975 20.544H77.2655L82.0655 35.76H71.6975ZM96.7081 35.952H113.604V31.152H96.7081V35.952ZM134.229 35.04V34.272C141.429 33.744 143.301 31.104 143.301 25.824C143.301 19.92 140.949 15.36 130.581 15.36H119.829V48H124.629V37.296H138.981V48H143.781V35.04H134.229ZM124.629 32.496V20.16H130.581C137.109 20.16 138.501 21.36 138.501 26.304C138.501 31.104 137.109 32.496 130.581 32.496H124.629ZM164.524 48C174.508 48 180.46 40.8 180.46 31.68C180.46 22.56 174.508 15.36 164.524 15.36C154.54 15.36 148.588 22.56 148.588 31.68C148.588 40.8 154.54 48 164.524 48ZM164.524 43.2C158.092 43.2 153.388 40.368 153.388 31.68C153.388 22.992 158.092 20.16 164.524 20.16C170.908 20.16 175.66 22.992 175.66 31.68C175.66 40.368 170.908 43.2 164.524 43.2ZM185.724 35.952H202.62V31.152H185.724V35.952ZM229.004 24H213.644V14.4H208.844V48H213.644V28.8H224.204V48H229.004V24ZM235.224 15.36V20.16H251.64L237.144 48H242.568L257.064 20.16V15.36H235.224ZM262.833 15.36V20.16H279.249L264.753 48H270.177L284.673 20.16V15.36H262.833Z" fill="#00FF29"/>
<defs>
<filter id="filter0_f" x="0.797485" y="4.3999" width="293.876" height="53.6" filterUnits="userSpaceOnUse" color-interpolation-filters="sRGB">
<feFlood flood-opacity="0" result="BackgroundImageFix"/>
<feBlend mode="normal" in="SourceGraphic" in2="BackgroundImageFix" result="shape"/>
<feGaussianBlur stdDeviation="5" result="effect1_foregroundBlur"/>
</filter>
</defs>
</svg>
