<svg width="488" height="329" viewBox="0 0 488 329" fill="none" xmlns="http://www.w3.org/2000/svg">
<g filter="url(#filter0_ddii)">
<rect x="14" y="14" width="460" height="301" rx="60" fill="url(#paint0_radial)"/>
</g>
<g filter="url(#filter1_f)">
<path d="M104.573 56.68H93.7246V59.08C93.7246 65.248 93.5326 70.6 90.9166 70.6V73C95.9326 73 96.1726 65.704 96.1486 59.08H102.173V73H104.573V56.68ZM117.021 70.6V61H108.381V63.4H114.621V66.04C113.901 65.32 112.965 64.84 111.285 64.84C108.357 64.84 106.989 66.712 106.989 68.92C106.989 71.128 108.357 73 111.285 73C112.965 73 113.901 72.52 114.621 71.8V73H118.461V70.6H117.021ZM112.005 70.6C110.253 70.6 109.389 70.24 109.389 68.92C109.389 67.6 110.253 67.24 112.005 67.24C113.757 67.24 114.621 67.6 114.621 68.92C114.621 70.24 113.757 70.6 112.005 70.6ZM126.588 61C124.908 61 123.732 61.648 123.012 62.44C123.012 60.376 123.084 59.08 126.708 59.08C128.148 59.08 129.324 59.08 130.404 58.552V56.2C129.012 56.68 128.1 56.68 126.708 56.68C121.284 56.68 120.612 59.824 120.612 62.2V65.8C120.612 70.504 121.98 73 126.228 73C130.476 73 131.844 70.528 131.844 67C131.844 63.472 130.476 61 126.588 61ZM126.228 70.6C123.876 70.6 123.012 69.16 123.012 66.76C123.012 64.12 123.876 63.4 126.228 63.4C128.58 63.4 129.444 64.12 129.444 67C129.444 69.88 128.58 70.6 126.228 70.6ZM139.749 73C143.397 73 145.484 70.528 145.484 67C145.484 63.472 143.397 61 139.749 61C136.101 61 134.013 63.472 134.013 67C134.013 70.528 136.101 73 139.749 73ZM139.749 70.6C137.277 70.6 136.413 69.88 136.413 67C136.413 64.12 137.277 63.4 139.749 63.4C142.221 63.4 143.085 64.12 143.085 67C143.085 69.88 142.221 70.6 139.749 70.6ZM154.344 61C152.664 61 151.488 61.648 150.768 62.44V61H148.368V76.84H150.768V71.56C151.488 72.352 152.664 73 154.344 73C158.232 73 159.6 70.528 159.6 67C159.6 63.472 158.232 61 154.344 61ZM153.984 70.6C151.632 70.6 150.768 69.88 150.768 67C150.768 64.12 151.632 63.4 153.984 63.4C156.336 63.4 157.2 64.12 157.2 67C157.2 69.88 156.336 70.6 153.984 70.6ZM171.56 70.6V61H162.92V63.4H169.16V66.04C168.44 65.32 167.504 64.84 165.824 64.84C162.896 64.84 161.528 66.712 161.528 68.92C161.528 71.128 162.896 73 165.824 73C167.504 73 168.44 72.52 169.16 71.8V73H173V70.6H171.56ZM166.544 70.6C164.792 70.6 163.928 70.24 163.928 68.92C163.928 67.6 164.792 67.24 166.544 67.24C168.296 67.24 169.16 67.6 169.16 68.92C169.16 70.24 168.296 70.6 166.544 70.6ZM185.2 61H174.208V63.4H178.504V73H180.904V63.4H185.2V61ZM192.155 73C195.803 73 197.891 70.528 197.891 67C197.891 63.472 195.803 61 192.155 61C188.507 61 186.419 63.472 186.419 67C186.419 70.528 188.507 73 192.155 73ZM192.155 70.6C189.683 70.6 188.819 69.88 188.819 67C188.819 64.12 189.683 63.4 192.155 63.4C194.627 63.4 195.491 64.12 195.491 67C195.491 69.88 194.627 70.6 192.155 70.6ZM206.75 61C205.07 61 203.894 61.648 203.174 62.44V61H200.774V76.84H203.174V71.56C203.894 72.352 205.07 73 206.75 73C210.638 73 212.006 70.528 212.006 67C212.006 63.472 210.638 61 206.75 61ZM206.39 70.6C204.038 70.6 203.174 69.88 203.174 67C203.174 64.12 204.038 63.4 206.39 63.4C208.742 63.4 209.606 64.12 209.606 67C209.606 69.88 208.742 70.6 206.39 70.6ZM222.55 61V66.064H216.574V61H214.174V73H216.574V68.464H222.55V73H224.95V61H222.55ZM237.162 70.6V61H228.522V63.4H234.762V66.04C234.042 65.32 233.106 64.84 231.426 64.84C228.498 64.84 227.13 66.712 227.13 68.92C227.13 71.128 228.498 73 231.426 73C233.106 73 234.042 72.52 234.762 71.8V73H238.602V70.6H237.162ZM232.146 70.6C230.394 70.6 229.53 70.24 229.53 68.92C229.53 67.6 230.394 67.24 232.146 67.24C233.898 67.24 234.762 67.6 234.762 68.92C234.762 70.24 233.898 70.6 232.146 70.6ZM246.393 61C242.169 61 240.993 62.08 240.993 64.552C240.993 66.952 242.169 67.384 244.569 67.648V68.032H240.753V73H243.153V69.088H248.409V73H250.809V61H246.393ZM248.409 66.688H246.393C244.089 66.688 243.393 66.472 243.393 65.032C243.393 63.52 244.089 63.4 246.393 63.4H248.409V66.688ZM268.062 61C266.382 61 265.206 61.648 264.486 62.44V61H262.086V76.84H264.486V71.56C265.206 72.352 266.382 73 268.062 73C271.95 73 273.318 70.528 273.318 67C273.318 63.472 271.95 61 268.062 61ZM267.702 70.6C265.35 70.6 264.486 69.88 264.486 67C264.486 64.12 265.35 63.4 267.702 63.4C270.054 63.4 270.918 64.12 270.918 67C270.918 69.88 270.054 70.6 267.702 70.6ZM285.279 70.6V61H276.639V63.4H282.879V66.04C282.159 65.32 281.223 64.84 279.543 64.84C276.615 64.84 275.247 66.712 275.247 68.92C275.247 71.128 276.615 73 279.543 73C281.223 73 282.159 72.52 282.879 71.8V73H286.719V70.6H285.279ZM280.263 70.6C278.511 70.6 277.647 70.24 277.647 68.92C277.647 67.6 278.511 67.24 280.263 67.24C282.015 67.24 282.879 67.6 282.879 68.92C282.879 70.24 282.015 70.6 280.263 70.6ZM294.846 61C293.166 61 291.99 61.648 291.27 62.44C291.27 60.376 291.342 59.08 294.966 59.08C296.406 59.08 297.582 59.08 298.662 58.552V56.2C297.27 56.68 296.358 56.68 294.966 56.68C289.542 56.68 288.87 59.824 288.87 62.2V65.8C288.87 70.504 290.238 73 294.486 73C298.734 73 300.102 70.528 300.102 67C300.102 63.472 298.734 61 294.846 61ZM294.486 70.6C292.134 70.6 291.27 69.16 291.27 66.76C291.27 64.12 292.134 63.4 294.486 63.4C296.838 63.4 297.702 64.12 297.702 67C297.702 69.88 296.838 70.6 294.486 70.6ZM308.006 73C311.654 73 313.742 70.528 313.742 67C313.742 63.472 311.654 61 308.006 61C304.358 61 302.27 63.472 302.27 67C302.27 70.528 304.358 73 308.006 73ZM308.006 70.6C305.534 70.6 304.67 69.88 304.67 67C304.67 64.12 305.534 63.4 308.006 63.4C310.478 63.4 311.342 64.12 311.342 67C311.342 69.88 310.478 70.6 308.006 70.6ZM327.137 61H316.145V63.4H320.441V73H322.841V63.4H327.137V61ZM338.388 70.6V61H329.748V63.4H335.988V66.04C335.268 65.32 334.332 64.84 332.652 64.84C329.724 64.84 328.356 66.712 328.356 68.92C328.356 71.128 329.724 73 332.652 73C334.332 73 335.268 72.52 335.988 71.8V73H339.828V70.6H338.388ZM333.372 70.6C331.62 70.6 330.756 70.24 330.756 68.92C330.756 67.6 331.62 67.24 333.372 67.24C335.124 67.24 335.988 67.6 335.988 68.92C335.988 70.24 335.124 70.6 333.372 70.6ZM351.702 73V55.864H354.126L361.926 69.976H362.022C362.006 69.56 361.982 69.08 361.95 68.536C361.918 67.992 361.894 67.448 361.878 66.904C361.862 66.344 361.854 65.864 361.854 65.464V55.864H363.75V73H361.398L353.502 58.84H353.406C353.438 59.256 353.462 59.752 353.478 60.328C353.51 60.888 353.534 61.448 353.55 62.008C353.582 62.568 353.598 63.064 353.598 63.496V73H351.702ZM369.102 69.784C368.078 69.784 367.23 69.432 366.558 68.728C365.886 68.024 365.55 67.016 365.55 65.704C365.55 64.392 365.87 63.392 366.51 62.704C367.166 62 368.054 61.648 369.174 61.648C370.198 61.648 371.046 61.992 371.718 62.68C372.406 63.368 372.75 64.376 372.75 65.704C372.75 67.016 372.422 68.024 371.766 68.728C371.11 69.432 370.222 69.784 369.102 69.784ZM369.15 68.392C369.854 68.392 370.358 68.168 370.662 67.72C370.966 67.256 371.118 66.584 371.118 65.704C371.118 64.808 370.966 64.152 370.662 63.736C370.358 63.304 369.854 63.088 369.15 63.088C368.462 63.088 367.958 63.304 367.638 63.736C367.318 64.152 367.158 64.808 367.158 65.704C367.158 66.584 367.31 67.256 367.614 67.72C367.934 68.168 368.446 68.392 369.15 68.392ZM366.03 73V71.344H372.198V73H366.03ZM380.899 56.68H375.331V59.08H378.499V73H380.899V56.68ZM390.554 56.68C385.562 56.68 384.026 60.28 384.026 64.84C384.026 69.4 385.562 73 390.554 73C395.546 73 397.082 69.4 397.082 64.84C397.082 60.28 395.546 56.68 390.554 56.68ZM394.682 64.84C394.682 66.208 394.586 67.312 394.346 68.128L388.25 59.512C388.826 59.2 389.594 59.08 390.554 59.08C393.746 59.08 394.682 60.496 394.682 64.84ZM386.426 64.84C386.426 63.472 386.522 62.392 386.738 61.552L392.858 70.168C392.258 70.48 391.514 70.6 390.554 70.6C387.338 70.6 386.426 69.184 386.426 64.84Z" fill="#1BFF40"/>
</g>
<path d="M104.573 56.68H93.7246V59.08C93.7246 65.248 93.5326 70.6 90.9166 70.6V73C95.9326 73 96.1726 65.704 96.1486 59.08H102.173V73H104.573V56.68ZM117.021 70.6V61H108.381V63.4H114.621V66.04C113.901 65.32 112.965 64.84 111.285 64.84C108.357 64.84 106.989 66.712 106.989 68.92C106.989 71.128 108.357 73 111.285 73C112.965 73 113.901 72.52 114.621 71.8V73H118.461V70.6H117.021ZM112.005 70.6C110.253 70.6 109.389 70.24 109.389 68.92C109.389 67.6 110.253 67.24 112.005 67.24C113.757 67.24 114.621 67.6 114.621 68.92C114.621 70.24 113.757 70.6 112.005 70.6ZM126.588 61C124.908 61 123.732 61.648 123.012 62.44C123.012 60.376 123.084 59.08 126.708 59.08C128.148 59.08 129.324 59.08 130.404 58.552V56.2C129.012 56.68 128.1 56.68 126.708 56.68C121.284 56.68 120.612 59.824 120.612 62.2V65.8C120.612 70.504 121.98 73 126.228 73C130.476 73 131.844 70.528 131.844 67C131.844 63.472 130.476 61 126.588 61ZM126.228 70.6C123.876 70.6 123.012 69.16 123.012 66.76C123.012 64.12 123.876 63.4 126.228 63.4C128.58 63.4 129.444 64.12 129.444 67C129.444 69.88 128.58 70.6 126.228 70.6ZM139.749 73C143.397 73 145.484 70.528 145.484 67C145.484 63.472 143.397 61 139.749 61C136.101 61 134.013 63.472 134.013 67C134.013 70.528 136.101 73 139.749 73ZM139.749 70.6C137.277 70.6 136.413 69.88 136.413 67C136.413 64.12 137.277 63.4 139.749 63.4C142.221 63.4 143.085 64.12 143.085 67C143.085 69.88 142.221 70.6 139.749 70.6ZM154.344 61C152.664 61 151.488 61.648 150.768 62.44V61H148.368V76.84H150.768V71.56C151.488 72.352 152.664 73 154.344 73C158.232 73 159.6 70.528 159.6 67C159.6 63.472 158.232 61 154.344 61ZM153.984 70.6C151.632 70.6 150.768 69.88 150.768 67C150.768 64.12 151.632 63.4 153.984 63.4C156.336 63.4 157.2 64.12 157.2 67C157.2 69.88 156.336 70.6 153.984 70.6ZM171.56 70.6V61H162.92V63.4H169.16V66.04C168.44 65.32 167.504 64.84 165.824 64.84C162.896 64.84 161.528 66.712 161.528 68.92C161.528 71.128 162.896 73 165.824 73C167.504 73 168.44 72.52 169.16 71.8V73H173V70.6H171.56ZM166.544 70.6C164.792 70.6 163.928 70.24 163.928 68.92C163.928 67.6 164.792 67.24 166.544 67.24C168.296 67.24 169.16 67.6 169.16 68.92C169.16 70.24 168.296 70.6 166.544 70.6ZM185.2 61H174.208V63.4H178.504V73H180.904V63.4H185.2V61ZM192.155 73C195.803 73 197.891 70.528 197.891 67C197.891 63.472 195.803 61 192.155 61C188.507 61 186.419 63.472 186.419 67C186.419 70.528 188.507 73 192.155 73ZM192.155 70.6C189.683 70.6 188.819 69.88 188.819 67C188.819 64.12 189.683 63.4 192.155 63.4C194.627 63.4 195.491 64.12 195.491 67C195.491 69.88 194.627 70.6 192.155 70.6ZM206.75 61C205.07 61 203.894 61.648 203.174 62.44V61H200.774V76.84H203.174V71.56C203.894 72.352 205.07 73 206.75 73C210.638 73 212.006 70.528 212.006 67C212.006 63.472 210.638 61 206.75 61ZM206.39 70.6C204.038 70.6 203.174 69.88 203.174 67C203.174 64.12 204.038 63.4 206.39 63.4C208.742 63.4 209.606 64.12 209.606 67C209.606 69.88 208.742 70.6 206.39 70.6ZM222.55 61V66.064H216.574V61H214.174V73H216.574V68.464H222.55V73H224.95V61H222.55ZM237.162 70.6V61H228.522V63.4H234.762V66.04C234.042 65.32 233.106 64.84 231.426 64.84C228.498 64.84 227.13 66.712 227.13 68.92C227.13 71.128 228.498 73 231.426 73C233.106 73 234.042 72.52 234.762 71.8V73H238.602V70.6H237.162ZM232.146 70.6C230.394 70.6 229.53 70.24 229.53 68.92C229.53 67.6 230.394 67.24 232.146 67.24C233.898 67.24 234.762 67.6 234.762 68.92C234.762 70.24 233.898 70.6 232.146 70.6ZM246.393 61C242.169 61 240.993 62.08 240.993 64.552C240.993 66.952 242.169 67.384 244.569 67.648V68.032H240.753V73H243.153V69.088H248.409V73H250.809V61H246.393ZM248.409 66.688H246.393C244.089 66.688 243.393 66.472 243.393 65.032C243.393 63.52 244.089 63.4 246.393 63.4H248.409V66.688ZM268.062 61C266.382 61 265.206 61.648 264.486 62.44V61H262.086V76.84H264.486V71.56C265.206 72.352 266.382 73 268.062 73C271.95 73 273.318 70.528 273.318 67C273.318 63.472 271.95 61 268.062 61ZM267.702 70.6C265.35 70.6 264.486 69.88 264.486 67C264.486 64.12 265.35 63.4 267.702 63.4C270.054 63.4 270.918 64.12 270.918 67C270.918 69.88 270.054 70.6 267.702 70.6ZM285.279 70.6V61H276.639V63.4H282.879V66.04C282.159 65.32 281.223 64.84 279.543 64.84C276.615 64.84 275.247 66.712 275.247 68.92C275.247 71.128 276.615 73 279.543 73C281.223 73 282.159 72.52 282.879 71.8V73H286.719V70.6H285.279ZM280.263 70.6C278.511 70.6 277.647 70.24 277.647 68.92C277.647 67.6 278.511 67.24 280.263 67.24C282.015 67.24 282.879 67.6 282.879 68.92C282.879 70.24 282.015 70.6 280.263 70.6ZM294.846 61C293.166 61 291.99 61.648 291.27 62.44C291.27 60.376 291.342 59.08 294.966 59.08C296.406 59.08 297.582 59.08 298.662 58.552V56.2C297.27 56.68 296.358 56.68 294.966 56.68C289.542 56.68 288.87 59.824 288.87 62.2V65.8C288.87 70.504 290.238 73 294.486 73C298.734 73 300.102 70.528 300.102 67C300.102 63.472 298.734 61 294.846 61ZM294.486 70.6C292.134 70.6 291.27 69.16 291.27 66.76C291.27 64.12 292.134 63.4 294.486 63.4C296.838 63.4 297.702 64.12 297.702 67C297.702 69.88 296.838 70.6 294.486 70.6ZM308.006 73C311.654 73 313.742 70.528 313.742 67C313.742 63.472 311.654 61 308.006 61C304.358 61 302.27 63.472 302.27 67C302.27 70.528 304.358 73 308.006 73ZM308.006 70.6C305.534 70.6 304.67 69.88 304.67 67C304.67 64.12 305.534 63.4 308.006 63.4C310.478 63.4 311.342 64.12 311.342 67C311.342 69.88 310.478 70.6 308.006 70.6ZM327.137 61H316.145V63.4H320.441V73H322.841V63.4H327.137V61ZM338.388 70.6V61H329.748V63.4H335.988V66.04C335.268 65.32 334.332 64.84 332.652 64.84C329.724 64.84 328.356 66.712 328.356 68.92C328.356 71.128 329.724 73 332.652 73C334.332 73 335.268 72.52 335.988 71.8V73H339.828V70.6H338.388ZM333.372 70.6C331.62 70.6 330.756 70.24 330.756 68.92C330.756 67.6 331.62 67.24 333.372 67.24C335.124 67.24 335.988 67.6 335.988 68.92C335.988 70.24 335.124 70.6 333.372 70.6ZM351.702 73V55.864H354.126L361.926 69.976H362.022C362.006 69.56 361.982 69.08 361.95 68.536C361.918 67.992 361.894 67.448 361.878 66.904C361.862 66.344 361.854 65.864 361.854 65.464V55.864H363.75V73H361.398L353.502 58.84H353.406C353.438 59.256 353.462 59.752 353.478 60.328C353.51 60.888 353.534 61.448 353.55 62.008C353.582 62.568 353.598 63.064 353.598 63.496V73H351.702ZM369.102 69.784C368.078 69.784 367.23 69.432 366.558 68.728C365.886 68.024 365.55 67.016 365.55 65.704C365.55 64.392 365.87 63.392 366.51 62.704C367.166 62 368.054 61.648 369.174 61.648C370.198 61.648 371.046 61.992 371.718 62.68C372.406 63.368 372.75 64.376 372.75 65.704C372.75 67.016 372.422 68.024 371.766 68.728C371.11 69.432 370.222 69.784 369.102 69.784ZM369.15 68.392C369.854 68.392 370.358 68.168 370.662 67.72C370.966 67.256 371.118 66.584 371.118 65.704C371.118 64.808 370.966 64.152 370.662 63.736C370.358 63.304 369.854 63.088 369.15 63.088C368.462 63.088 367.958 63.304 367.638 63.736C367.318 64.152 367.158 64.808 367.158 65.704C367.158 66.584 367.31 67.256 367.614 67.72C367.934 68.168 368.446 68.392 369.15 68.392ZM366.03 73V71.344H372.198V73H366.03ZM380.899 56.68H375.331V59.08H378.499V73H380.899V56.68ZM390.554 56.68C385.562 56.68 384.026 60.28 384.026 64.84C384.026 69.4 385.562 73 390.554 73C395.546 73 397.082 69.4 397.082 64.84C397.082 60.28 395.546 56.68 390.554 56.68ZM394.682 64.84C394.682 66.208 394.586 67.312 394.346 68.128L388.25 59.512C388.826 59.2 389.594 59.08 390.554 59.08C393.746 59.08 394.682 60.496 394.682 64.84ZM386.426 64.84C386.426 63.472 386.522 62.392 386.738 61.552L392.858 70.168C392.258 70.48 391.514 70.6 390.554 70.6C387.338 70.6 386.426 69.184 386.426 64.84Z" fill="#1BFF40"/>
<g filter="url(#filter2_dd)">
<rect x="55" y="106" width="379" height="52" rx="26" fill="url(#paint1_radial)"/>
<rect x="56.5" y="107.5" width="376" height="49" rx="24.5" stroke="url(#paint2_radial)" stroke-width="3"/>
</g>
<g filter="url(#filter3_dd)">
<rect x="55" y="168" width="379" height="87" rx="43.5" fill="url(#paint3_radial)"/>
<rect x="56.5" y="169.5" width="376" height="84" rx="42" stroke="url(#paint4_radial)" stroke-width="3"/>
</g>
<g filter="url(#filter4_f)">
<path d="M100.146 211V214.374H95.4V211H94.84V218H95.4V214.934H100.146V218H100.706V211H100.146ZM107.682 217.44V211H103.062V211.56H107.122V214.22C106.842 213.618 105.946 213.1 104.826 213.1C102.978 213.1 102.11 214.192 102.11 215.55C102.11 216.908 102.978 218 104.826 218C105.946 218 106.842 217.482 107.122 216.88V218H108.802V217.44H107.682ZM104.826 217.44C103.524 217.44 102.67 216.81 102.67 215.55C102.67 214.29 103.524 213.66 104.826 213.66C106.128 213.66 107.122 214.29 107.122 215.55C107.122 216.81 106.128 217.44 104.826 217.44ZM115.215 211V214.22C115.215 215.62 114.711 216.88 112.779 216.88C110.847 216.88 110.343 215.9 110.343 214.22V211H109.783V214.22C109.783 216.278 110.595 217.44 112.779 217.44C113.759 217.44 114.795 217.062 115.215 216.18V219.68H110.595V220.24H115.775V211H115.215ZM121.859 211V214.64H120.137C118.121 214.64 117.589 213.254 117.589 211H117.029C117.029 213.24 117.575 215.2 120.137 215.2H121.859V218H122.419V211H121.859ZM128.858 211L124.882 216.698H124.658V211H124.098V218H124.658L128.634 212.302H128.858V218H129.418V211H128.858ZM136.106 211H130.534V211.56H133.04V218H133.6V211.56H136.106V211ZM139.799 213.212H137.783V211H137.223V218H139.799C141.689 218 142.361 216.852 142.361 215.606C142.361 214.36 141.689 213.212 139.799 213.212ZM139.575 217.44H137.783V213.772H139.575C140.541 213.772 141.801 213.954 141.801 215.606C141.801 217.258 140.541 217.44 139.575 217.44ZM143.768 214.5C143.768 216.558 144.846 218 146.946 218C148.598 218 149.816 216.866 149.816 215.34H149.256C149.2 216.768 148.066 217.44 146.946 217.44C145.672 217.44 144.328 216.81 144.328 214.5C144.328 212.19 145.672 211.56 146.946 211.56C148.066 211.56 149.2 212.232 149.256 213.66H149.816C149.816 212.134 148.598 211 146.946 211C144.846 211 143.768 212.442 143.768 214.5ZM154.373 211C151.909 211 151.223 211.77 151.223 213.212C151.223 214.472 152.049 214.724 152.609 214.878V215.102H151.363V218H151.923V215.438H155.829V218H156.389V211H154.373ZM155.829 214.878H154.373C153.029 214.878 151.783 214.654 151.783 213.212C151.783 211.77 153.029 211.56 154.373 211.56H155.829V214.878ZM167.227 214.416V214.192C167.913 214.08 168.417 213.394 168.417 212.708C168.417 211.602 167.773 211 166.303 211H163.391V218H166.303C167.927 218 168.627 217.286 168.627 216.18C168.627 215.144 168.053 214.528 167.227 214.416ZM163.951 211.56H166.219C166.863 211.56 167.857 211.546 167.857 212.666C167.857 213.758 166.863 214.024 166.219 214.024H163.951V211.56ZM166.135 217.44H163.951V214.584H166.135C166.989 214.584 168.067 214.934 168.067 216.18C168.067 217.37 166.989 217.44 166.135 217.44ZM172.611 213.212H170.595V211H170.035V218H172.611C174.501 218 175.173 216.852 175.173 215.606C175.173 214.36 174.501 213.212 172.611 213.212ZM176.769 211V218H177.329V211H176.769ZM172.387 217.44H170.595V213.772H172.387C173.353 213.772 174.613 213.954 174.613 215.606C174.613 217.258 173.353 217.44 172.387 217.44ZM182.283 211C181.513 211 180.127 211.378 179.567 212.54V211H179.007V220.24H179.567V216.46C180.127 217.622 181.513 218 182.283 218C184.621 218 185.559 216.278 185.559 214.5C185.559 212.722 184.621 211 182.283 211ZM182.283 217.44C181.051 217.44 179.567 216.6 179.567 214.5C179.567 212.4 181.051 211.56 182.283 211.56C183.655 211.56 184.999 212.33 184.999 214.5C184.999 216.67 183.655 217.44 182.283 217.44ZM192.256 217.44V211H187.636V211.56H191.696V214.22C191.416 213.618 190.52 213.1 189.4 213.1C187.552 213.1 186.684 214.192 186.684 215.55C186.684 216.908 187.552 218 189.4 218C190.52 218 191.416 217.482 191.696 216.88V218H193.376V217.44H192.256ZM189.4 217.44C188.098 217.44 187.244 216.81 187.244 215.55C187.244 214.29 188.098 213.66 189.4 213.66C190.702 213.66 191.696 214.29 191.696 215.55C191.696 216.81 190.702 217.44 189.4 217.44ZM204.861 217.44H203.461V211H202.901V217.44H199.401V211H198.841V217.44H195.341V211H194.781V218H204.301V220.24H204.861V217.44ZM211.026 211L207.05 216.698H206.826V211H206.266V218H206.826L210.802 212.302H211.026V218H211.586V211H211.026ZM217.102 214.416V214.192C217.788 214.08 218.292 213.394 218.292 212.708C218.292 211.602 217.648 211 216.178 211H213.266V218H216.178C217.802 218 218.502 217.286 218.502 216.18C218.502 215.144 217.928 214.528 217.102 214.416ZM213.826 211.56H216.094C216.738 211.56 217.732 211.546 217.732 212.666C217.732 213.758 216.738 214.024 216.094 214.024H213.826V211.56ZM216.01 217.44H213.826V214.584H216.01C216.864 214.584 217.942 214.934 217.942 216.18C217.942 217.37 216.864 217.44 216.01 217.44ZM225.342 217.44V211H220.722V211.56H224.782V214.22C224.502 213.618 223.606 213.1 222.486 213.1C220.638 213.1 219.77 214.192 219.77 215.55C219.77 216.908 220.638 218 222.486 218C223.606 218 224.502 217.482 224.782 216.88V218H226.462V217.44H225.342ZM222.486 217.44C221.184 217.44 220.33 216.81 220.33 215.55C220.33 214.29 221.184 213.66 222.486 213.66C223.788 213.66 224.782 214.29 224.782 215.55C224.782 216.81 223.788 217.44 222.486 217.44ZM232.452 211H226.88V211.56H229.386V218H229.946V211.56H232.452V211ZM236.145 213.212H234.129V211H233.569V218H236.145C238.035 218 238.707 216.852 238.707 215.606C238.707 214.36 238.035 213.212 236.145 213.212ZM235.921 217.44H234.129V213.772H235.921C236.887 213.772 238.147 213.954 238.147 215.606C238.147 217.258 236.887 217.44 235.921 217.44ZM251.449 211H245.709V218H246.269V211.56H250.889V218H251.449V211ZM256.412 211C255.642 211 254.256 211.378 253.696 212.54V211H253.136V220.24H253.696V216.46C254.256 217.622 255.642 218 256.412 218C258.75 218 259.688 216.278 259.688 214.5C259.688 212.722 258.75 211 256.412 211ZM256.412 217.44C255.18 217.44 253.696 216.6 253.696 214.5C253.696 212.4 255.18 211.56 256.412 211.56C257.784 211.56 259.128 212.33 259.128 214.5C259.128 216.67 257.784 217.44 256.412 217.44ZM264.296 218C266.424 218 267.642 216.558 267.642 214.5C267.642 212.442 266.424 211 264.296 211C262.168 211 260.95 212.442 260.95 214.5C260.95 216.558 262.168 218 264.296 218ZM264.296 217.44C262.434 217.44 261.51 216.208 261.51 214.5C261.51 212.792 262.434 211.56 264.296 211.56C266.158 211.56 267.082 212.792 267.082 214.5C267.082 216.208 266.158 217.44 264.296 217.44ZM273.02 214.416V214.192C273.706 214.08 274.21 213.394 274.21 212.708C274.21 211.602 273.566 211 272.096 211H269.184V218H272.096C273.72 218 274.42 217.286 274.42 216.18C274.42 215.144 273.846 214.528 273.02 214.416ZM269.744 211.56H272.012C272.656 211.56 273.65 211.546 273.65 212.666C273.65 213.758 272.656 214.024 272.012 214.024H269.744V211.56ZM271.928 217.44H269.744V214.584H271.928C272.782 214.584 273.86 214.934 273.86 216.18C273.86 217.37 272.782 217.44 271.928 217.44ZM278.884 218C281.012 218 282.23 216.558 282.23 214.5C282.23 212.442 281.012 211 278.884 211C276.756 211 275.538 212.442 275.538 214.5C275.538 216.558 276.756 218 278.884 218ZM278.884 217.44C277.022 217.44 276.098 216.208 276.098 214.5C276.098 212.792 277.022 211.56 278.884 211.56C280.746 211.56 281.67 212.792 281.67 214.5C281.67 216.208 280.746 217.44 278.884 217.44ZM289.96 217.44V211H285.732V211.042C285.732 214.192 285.732 215.942 284.514 217.44H283.772V220.24H284.332V218H289.96V220.24H290.52V217.44H289.96ZM285.186 217.44C286.208 216.026 286.292 214.388 286.292 211.56H289.4V217.44H285.186ZM297.363 211V214.374H292.617V211H292.057V218H292.617V214.934H297.363V218H297.923V211H297.363ZM304.364 211L300.388 216.698H300.164V211H299.604V218H300.164L304.14 212.302H304.364V218H304.924V211H304.364ZM312.33 211H311.644L309.18 214.234H307.164V211H306.604V218H307.164V214.794H309.18L311.644 218H312.33L309.684 214.514L312.33 211ZM94.7 231.5C94.7 233.558 95.778 235 97.878 235C99.53 235 100.748 233.866 100.748 232.34H100.188C100.132 233.768 98.998 234.44 97.878 234.44C96.604 234.44 95.26 233.81 95.26 231.5C95.26 229.19 96.604 228.56 97.878 228.56C98.998 228.56 100.132 229.232 100.188 230.66H100.748C100.748 229.134 99.53 228 97.878 228C95.778 228 94.7 229.442 94.7 231.5ZM113.052 228V231.374H108.306V228H107.746V235H108.306V231.934H113.052V235H113.612V228H113.052ZM120.588 234.44V228H115.968V228.56H120.028V231.22C119.748 230.618 118.852 230.1 117.732 230.1C115.884 230.1 115.016 231.192 115.016 232.55C115.016 233.908 115.884 235 117.732 235C118.852 235 119.748 234.482 120.028 233.88V235H121.708V234.44H120.588ZM117.732 234.44C116.43 234.44 115.576 233.81 115.576 232.55C115.576 231.29 116.43 230.66 117.732 230.66C119.034 230.66 120.028 231.29 120.028 232.55C120.028 233.81 119.034 234.44 117.732 234.44ZM127.873 228L123.897 233.698H123.673V228H123.113V235H123.673L127.649 229.302H127.873V235H128.433V228H127.873ZM137.029 228L133.963 233.362H133.739L130.673 228H130.113V235H130.673V229.512H130.897L133.501 234.076H134.201L136.805 229.512H137.029V235H137.589V228H137.029ZM145.045 231.36C145.045 229.302 144.177 228 142.021 228C139.865 228 138.997 229.484 138.997 231.5C138.997 232.886 139.389 235 142.553 235C143.085 235 143.477 235 144.569 234.72V234.16C143.659 234.412 143.113 234.44 142.553 234.44C139.991 234.44 139.613 232.942 139.571 231.78H145.045V231.36ZM139.557 231.22C139.557 229.12 140.859 228.56 142.021 228.56C143.183 228.56 144.485 228.98 144.485 231.22H139.557ZM151.757 228V231.374H147.011V228H146.451V235H147.011V231.934H151.757V235H152.317V228H151.757ZM156.574 230.212H154.558V228H153.998V235H156.574C158.464 235 159.136 233.852 159.136 232.606C159.136 231.36 158.464 230.212 156.574 230.212ZM156.35 234.44H154.558V230.772H156.35C157.316 230.772 158.576 230.954 158.576 232.606C158.576 234.258 157.316 234.44 156.35 234.44ZM168.804 228V234.44H165.304V228H164.744V234.44H161.244V228H160.684V235H169.364V228H168.804ZM175.807 228L171.831 233.698H171.607V228H171.047V235H171.607L175.583 229.302H175.807V235H176.367V228H175.807ZM184.963 228L181.897 233.362H181.673L178.607 228H178.047V235H178.607V229.512H178.831L181.435 234.076H182.135L184.739 229.512H184.963V235H185.523V228H184.963ZM192.386 231.5C192.386 233.558 193.464 235 195.564 235C197.216 235 198.434 233.866 198.434 232.34H197.874C197.818 233.768 196.684 234.44 195.564 234.44C194.29 234.44 192.946 233.81 192.946 231.5C192.946 229.19 194.29 228.56 195.564 228.56C196.684 228.56 197.818 229.232 197.874 230.66H198.434C198.434 229.134 197.216 228 195.564 228C193.464 228 192.386 229.442 192.386 231.5ZM203.183 235C205.311 235 206.529 233.558 206.529 231.5C206.529 229.442 205.311 228 203.183 228C201.055 228 199.837 229.442 199.837 231.5C199.837 233.558 201.055 235 203.183 235ZM203.183 234.44C201.321 234.44 200.397 233.208 200.397 231.5C200.397 229.792 201.321 228.56 203.183 228.56C205.045 228.56 205.969 229.792 205.969 231.5C205.969 233.208 205.045 234.44 203.183 234.44ZM213.81 228H208.07V235H208.63V228.56H213.25V235H213.81V228ZM218.774 228C218.004 228 216.618 228.378 216.058 229.54V228H215.498V237.24H216.058V233.46C216.618 234.622 218.004 235 218.774 235C221.112 235 222.05 233.278 222.05 231.5C222.05 229.722 221.112 228 218.774 228ZM218.774 234.44C217.542 234.44 216.058 233.6 216.058 231.5C216.058 229.4 217.542 228.56 218.774 228.56C220.146 228.56 221.49 229.33 221.49 231.5C221.49 233.67 220.146 234.44 218.774 234.44ZM226.657 235C228.785 235 230.003 233.558 230.003 231.5C230.003 229.442 228.785 228 226.657 228C224.529 228 223.311 229.442 223.311 231.5C223.311 233.558 224.529 235 226.657 235ZM226.657 234.44C224.795 234.44 223.871 233.208 223.871 231.5C223.871 229.792 224.795 228.56 226.657 228.56C228.519 228.56 229.443 229.792 229.443 231.5C229.443 233.208 228.519 234.44 226.657 234.44ZM236.977 228H231.405V228.56H233.911V235H234.471V228.56H236.977V228ZM242.854 228L238.878 233.698H238.654V228H238.094V235H238.654L242.63 229.302H242.854V235H243.414V228H242.854ZM248.93 231.416V231.192C249.616 231.08 250.12 230.394 250.12 229.708C250.12 228.602 249.476 228 248.006 228H245.094V235H248.006C249.63 235 250.33 234.286 250.33 233.18C250.33 232.144 249.756 231.528 248.93 231.416ZM245.654 228.56H247.922C248.566 228.56 249.56 228.546 249.56 229.666C249.56 230.758 248.566 231.024 247.922 231.024H245.654V228.56ZM247.838 234.44H245.654V231.584H247.838C248.692 231.584 249.77 231.934 249.77 233.18C249.77 234.37 248.692 234.44 247.838 234.44ZM258.164 228H253.516V228.56C253.53 231.444 253.558 234.44 251.738 234.44V235C254.16 235 254.104 231.402 254.076 228.56H257.604V235H258.164V228ZM265.617 231.36C265.617 229.302 264.749 228 262.593 228C260.437 228 259.569 229.484 259.569 231.5C259.569 232.886 259.961 235 263.125 235C263.657 235 264.049 235 265.141 234.72V234.16C264.231 234.412 263.685 234.44 263.125 234.44C260.563 234.44 260.185 232.942 260.143 231.78H265.617V231.36ZM260.129 231.22C260.129 229.12 261.431 228.56 262.593 228.56C263.755 228.56 265.057 228.98 265.057 231.22H260.129ZM272.33 228V231.374H267.584V228H267.024V235H267.584V231.934H272.33V235H272.89V228H272.33ZM279.33 228L275.354 233.698H275.13V228H274.57V235H275.13L279.106 229.302H279.33V235H279.89V228H279.33ZM287.342 231.36C287.342 229.302 286.474 228 284.318 228C282.162 228 281.294 229.484 281.294 231.5C281.294 232.886 281.686 235 284.85 235C285.382 235 285.774 235 286.866 234.72V234.16C285.956 234.412 285.41 234.44 284.85 234.44C282.288 234.44 281.91 232.942 281.868 231.78H287.342V231.36ZM281.854 231.22C281.854 229.12 283.156 228.56 284.318 228.56C285.48 228.56 286.782 228.98 286.782 231.22H281.854ZM295.664 228L292.598 233.362H292.374L289.308 228H288.748V235H289.308V229.512H289.532L292.136 234.076H292.836L295.44 229.512H295.664V235H296.224V228H295.664Z" fill="#1BFF40"/>
</g>
<path d="M100.146 211V214.374H95.4V211H94.84V218H95.4V214.934H100.146V218H100.706V211H100.146ZM107.682 217.44V211H103.062V211.56H107.122V214.22C106.842 213.618 105.946 213.1 104.826 213.1C102.978 213.1 102.11 214.192 102.11 215.55C102.11 216.908 102.978 218 104.826 218C105.946 218 106.842 217.482 107.122 216.88V218H108.802V217.44H107.682ZM104.826 217.44C103.524 217.44 102.67 216.81 102.67 215.55C102.67 214.29 103.524 213.66 104.826 213.66C106.128 213.66 107.122 214.29 107.122 215.55C107.122 216.81 106.128 217.44 104.826 217.44ZM115.215 211V214.22C115.215 215.62 114.711 216.88 112.779 216.88C110.847 216.88 110.343 215.9 110.343 214.22V211H109.783V214.22C109.783 216.278 110.595 217.44 112.779 217.44C113.759 217.44 114.795 217.062 115.215 216.18V219.68H110.595V220.24H115.775V211H115.215ZM121.859 211V214.64H120.137C118.121 214.64 117.589 213.254 117.589 211H117.029C117.029 213.24 117.575 215.2 120.137 215.2H121.859V218H122.419V211H121.859ZM128.858 211L124.882 216.698H124.658V211H124.098V218H124.658L128.634 212.302H128.858V218H129.418V211H128.858ZM136.106 211H130.534V211.56H133.04V218H133.6V211.56H136.106V211ZM139.799 213.212H137.783V211H137.223V218H139.799C141.689 218 142.361 216.852 142.361 215.606C142.361 214.36 141.689 213.212 139.799 213.212ZM139.575 217.44H137.783V213.772H139.575C140.541 213.772 141.801 213.954 141.801 215.606C141.801 217.258 140.541 217.44 139.575 217.44ZM143.768 214.5C143.768 216.558 144.846 218 146.946 218C148.598 218 149.816 216.866 149.816 215.34H149.256C149.2 216.768 148.066 217.44 146.946 217.44C145.672 217.44 144.328 216.81 144.328 214.5C144.328 212.19 145.672 211.56 146.946 211.56C148.066 211.56 149.2 212.232 149.256 213.66H149.816C149.816 212.134 148.598 211 146.946 211C144.846 211 143.768 212.442 143.768 214.5ZM154.373 211C151.909 211 151.223 211.77 151.223 213.212C151.223 214.472 152.049 214.724 152.609 214.878V215.102H151.363V218H151.923V215.438H155.829V218H156.389V211H154.373ZM155.829 214.878H154.373C153.029 214.878 151.783 214.654 151.783 213.212C151.783 211.77 153.029 211.56 154.373 211.56H155.829V214.878ZM167.227 214.416V214.192C167.913 214.08 168.417 213.394 168.417 212.708C168.417 211.602 167.773 211 166.303 211H163.391V218H166.303C167.927 218 168.627 217.286 168.627 216.18C168.627 215.144 168.053 214.528 167.227 214.416ZM163.951 211.56H166.219C166.863 211.56 167.857 211.546 167.857 212.666C167.857 213.758 166.863 214.024 166.219 214.024H163.951V211.56ZM166.135 217.44H163.951V214.584H166.135C166.989 214.584 168.067 214.934 168.067 216.18C168.067 217.37 166.989 217.44 166.135 217.44ZM172.611 213.212H170.595V211H170.035V218H172.611C174.501 218 175.173 216.852 175.173 215.606C175.173 214.36 174.501 213.212 172.611 213.212ZM176.769 211V218H177.329V211H176.769ZM172.387 217.44H170.595V213.772H172.387C173.353 213.772 174.613 213.954 174.613 215.606C174.613 217.258 173.353 217.44 172.387 217.44ZM182.283 211C181.513 211 180.127 211.378 179.567 212.54V211H179.007V220.24H179.567V216.46C180.127 217.622 181.513 218 182.283 218C184.621 218 185.559 216.278 185.559 214.5C185.559 212.722 184.621 211 182.283 211ZM182.283 217.44C181.051 217.44 179.567 216.6 179.567 214.5C179.567 212.4 181.051 211.56 182.283 211.56C183.655 211.56 184.999 212.33 184.999 214.5C184.999 216.67 183.655 217.44 182.283 217.44ZM192.256 217.44V211H187.636V211.56H191.696V214.22C191.416 213.618 190.52 213.1 189.4 213.1C187.552 213.1 186.684 214.192 186.684 215.55C186.684 216.908 187.552 218 189.4 218C190.52 218 191.416 217.482 191.696 216.88V218H193.376V217.44H192.256ZM189.4 217.44C188.098 217.44 187.244 216.81 187.244 215.55C187.244 214.29 188.098 213.66 189.4 213.66C190.702 213.66 191.696 214.29 191.696 215.55C191.696 216.81 190.702 217.44 189.4 217.44ZM204.861 217.44H203.461V211H202.901V217.44H199.401V211H198.841V217.44H195.341V211H194.781V218H204.301V220.24H204.861V217.44ZM211.026 211L207.05 216.698H206.826V211H206.266V218H206.826L210.802 212.302H211.026V218H211.586V211H211.026ZM217.102 214.416V214.192C217.788 214.08 218.292 213.394 218.292 212.708C218.292 211.602 217.648 211 216.178 211H213.266V218H216.178C217.802 218 218.502 217.286 218.502 216.18C218.502 215.144 217.928 214.528 217.102 214.416ZM213.826 211.56H216.094C216.738 211.56 217.732 211.546 217.732 212.666C217.732 213.758 216.738 214.024 216.094 214.024H213.826V211.56ZM216.01 217.44H213.826V214.584H216.01C216.864 214.584 217.942 214.934 217.942 216.18C217.942 217.37 216.864 217.44 216.01 217.44ZM225.342 217.44V211H220.722V211.56H224.782V214.22C224.502 213.618 223.606 213.1 222.486 213.1C220.638 213.1 219.77 214.192 219.77 215.55C219.77 216.908 220.638 218 222.486 218C223.606 218 224.502 217.482 224.782 216.88V218H226.462V217.44H225.342ZM222.486 217.44C221.184 217.44 220.33 216.81 220.33 215.55C220.33 214.29 221.184 213.66 222.486 213.66C223.788 213.66 224.782 214.29 224.782 215.55C224.782 216.81 223.788 217.44 222.486 217.44ZM232.452 211H226.88V211.56H229.386V218H229.946V211.56H232.452V211ZM236.145 213.212H234.129V211H233.569V218H236.145C238.035 218 238.707 216.852 238.707 215.606C238.707 214.36 238.035 213.212 236.145 213.212ZM235.921 217.44H234.129V213.772H235.921C236.887 213.772 238.147 213.954 238.147 215.606C238.147 217.258 236.887 217.44 235.921 217.44ZM251.449 211H245.709V218H246.269V211.56H250.889V218H251.449V211ZM256.412 211C255.642 211 254.256 211.378 253.696 212.54V211H253.136V220.24H253.696V216.46C254.256 217.622 255.642 218 256.412 218C258.75 218 259.688 216.278 259.688 214.5C259.688 212.722 258.75 211 256.412 211ZM256.412 217.44C255.18 217.44 253.696 216.6 253.696 214.5C253.696 212.4 255.18 211.56 256.412 211.56C257.784 211.56 259.128 212.33 259.128 214.5C259.128 216.67 257.784 217.44 256.412 217.44ZM264.296 218C266.424 218 267.642 216.558 267.642 214.5C267.642 212.442 266.424 211 264.296 211C262.168 211 260.95 212.442 260.95 214.5C260.95 216.558 262.168 218 264.296 218ZM264.296 217.44C262.434 217.44 261.51 216.208 261.51 214.5C261.51 212.792 262.434 211.56 264.296 211.56C266.158 211.56 267.082 212.792 267.082 214.5C267.082 216.208 266.158 217.44 264.296 217.44ZM273.02 214.416V214.192C273.706 214.08 274.21 213.394 274.21 212.708C274.21 211.602 273.566 211 272.096 211H269.184V218H272.096C273.72 218 274.42 217.286 274.42 216.18C274.42 215.144 273.846 214.528 273.02 214.416ZM269.744 211.56H272.012C272.656 211.56 273.65 211.546 273.65 212.666C273.65 213.758 272.656 214.024 272.012 214.024H269.744V211.56ZM271.928 217.44H269.744V214.584H271.928C272.782 214.584 273.86 214.934 273.86 216.18C273.86 217.37 272.782 217.44 271.928 217.44ZM278.884 218C281.012 218 282.23 216.558 282.23 214.5C282.23 212.442 281.012 211 278.884 211C276.756 211 275.538 212.442 275.538 214.5C275.538 216.558 276.756 218 278.884 218ZM278.884 217.44C277.022 217.44 276.098 216.208 276.098 214.5C276.098 212.792 277.022 211.56 278.884 211.56C280.746 211.56 281.67 212.792 281.67 214.5C281.67 216.208 280.746 217.44 278.884 217.44ZM289.96 217.44V211H285.732V211.042C285.732 214.192 285.732 215.942 284.514 217.44H283.772V220.24H284.332V218H289.96V220.24H290.52V217.44H289.96ZM285.186 217.44C286.208 216.026 286.292 214.388 286.292 211.56H289.4V217.44H285.186ZM297.363 211V214.374H292.617V211H292.057V218H292.617V214.934H297.363V218H297.923V211H297.363ZM304.364 211L300.388 216.698H300.164V211H299.604V218H300.164L304.14 212.302H304.364V218H304.924V211H304.364ZM312.33 211H311.644L309.18 214.234H307.164V211H306.604V218H307.164V214.794H309.18L311.644 218H312.33L309.684 214.514L312.33 211ZM94.7 231.5C94.7 233.558 95.778 235 97.878 235C99.53 235 100.748 233.866 100.748 232.34H100.188C100.132 233.768 98.998 234.44 97.878 234.44C96.604 234.44 95.26 233.81 95.26 231.5C95.26 229.19 96.604 228.56 97.878 228.56C98.998 228.56 100.132 229.232 100.188 230.66H100.748C100.748 229.134 99.53 228 97.878 228C95.778 228 94.7 229.442 94.7 231.5ZM113.052 228V231.374H108.306V228H107.746V235H108.306V231.934H113.052V235H113.612V228H113.052ZM120.588 234.44V228H115.968V228.56H120.028V231.22C119.748 230.618 118.852 230.1 117.732 230.1C115.884 230.1 115.016 231.192 115.016 232.55C115.016 233.908 115.884 235 117.732 235C118.852 235 119.748 234.482 120.028 233.88V235H121.708V234.44H120.588ZM117.732 234.44C116.43 234.44 115.576 233.81 115.576 232.55C115.576 231.29 116.43 230.66 117.732 230.66C119.034 230.66 120.028 231.29 120.028 232.55C120.028 233.81 119.034 234.44 117.732 234.44ZM127.873 228L123.897 233.698H123.673V228H123.113V235H123.673L127.649 229.302H127.873V235H128.433V228H127.873ZM137.029 228L133.963 233.362H133.739L130.673 228H130.113V235H130.673V229.512H130.897L133.501 234.076H134.201L136.805 229.512H137.029V235H137.589V228H137.029ZM145.045 231.36C145.045 229.302 144.177 228 142.021 228C139.865 228 138.997 229.484 138.997 231.5C138.997 232.886 139.389 235 142.553 235C143.085 235 143.477 235 144.569 234.72V234.16C143.659 234.412 143.113 234.44 142.553 234.44C139.991 234.44 139.613 232.942 139.571 231.78H145.045V231.36ZM139.557 231.22C139.557 229.12 140.859 228.56 142.021 228.56C143.183 228.56 144.485 228.98 144.485 231.22H139.557ZM151.757 228V231.374H147.011V228H146.451V235H147.011V231.934H151.757V235H152.317V228H151.757ZM156.574 230.212H154.558V228H153.998V235H156.574C158.464 235 159.136 233.852 159.136 232.606C159.136 231.36 158.464 230.212 156.574 230.212ZM156.35 234.44H154.558V230.772H156.35C157.316 230.772 158.576 230.954 158.576 232.606C158.576 234.258 157.316 234.44 156.35 234.44ZM168.804 228V234.44H165.304V228H164.744V234.44H161.244V228H160.684V235H169.364V228H168.804ZM175.807 228L171.831 233.698H171.607V228H171.047V235H171.607L175.583 229.302H175.807V235H176.367V228H175.807ZM184.963 228L181.897 233.362H181.673L178.607 228H178.047V235H178.607V229.512H178.831L181.435 234.076H182.135L184.739 229.512H184.963V235H185.523V228H184.963ZM192.386 231.5C192.386 233.558 193.464 235 195.564 235C197.216 235 198.434 233.866 198.434 232.34H197.874C197.818 233.768 196.684 234.44 195.564 234.44C194.29 234.44 192.946 233.81 192.946 231.5C192.946 229.19 194.29 228.56 195.564 228.56C196.684 228.56 197.818 229.232 197.874 230.66H198.434C198.434 229.134 197.216 228 195.564 228C193.464 228 192.386 229.442 192.386 231.5ZM203.183 235C205.311 235 206.529 233.558 206.529 231.5C206.529 229.442 205.311 228 203.183 228C201.055 228 199.837 229.442 199.837 231.5C199.837 233.558 201.055 235 203.183 235ZM203.183 234.44C201.321 234.44 200.397 233.208 200.397 231.5C200.397 229.792 201.321 228.56 203.183 228.56C205.045 228.56 205.969 229.792 205.969 231.5C205.969 233.208 205.045 234.44 203.183 234.44ZM213.81 228H208.07V235H208.63V228.56H213.25V235H213.81V228ZM218.774 228C218.004 228 216.618 228.378 216.058 229.54V228H215.498V237.24H216.058V233.46C216.618 234.622 218.004 235 218.774 235C221.112 235 222.05 233.278 222.05 231.5C222.05 229.722 221.112 228 218.774 228ZM218.774 234.44C217.542 234.44 216.058 233.6 216.058 231.5C216.058 229.4 217.542 228.56 218.774 228.56C220.146 228.56 221.49 229.33 221.49 231.5C221.49 233.67 220.146 234.44 218.774 234.44ZM226.657 235C228.785 235 230.003 233.558 230.003 231.5C230.003 229.442 228.785 228 226.657 228C224.529 228 223.311 229.442 223.311 231.5C223.311 233.558 224.529 235 226.657 235ZM226.657 234.44C224.795 234.44 223.871 233.208 223.871 231.5C223.871 229.792 224.795 228.56 226.657 228.56C228.519 228.56 229.443 229.792 229.443 231.5C229.443 233.208 228.519 234.44 226.657 234.44ZM236.977 228H231.405V228.56H233.911V235H234.471V228.56H236.977V228ZM242.854 228L238.878 233.698H238.654V228H238.094V235H238.654L242.63 229.302H242.854V235H243.414V228H242.854ZM248.93 231.416V231.192C249.616 231.08 250.12 230.394 250.12 229.708C250.12 228.602 249.476 228 248.006 228H245.094V235H248.006C249.63 235 250.33 234.286 250.33 233.18C250.33 232.144 249.756 231.528 248.93 231.416ZM245.654 228.56H247.922C248.566 228.56 249.56 228.546 249.56 229.666C249.56 230.758 248.566 231.024 247.922 231.024H245.654V228.56ZM247.838 234.44H245.654V231.584H247.838C248.692 231.584 249.77 231.934 249.77 233.18C249.77 234.37 248.692 234.44 247.838 234.44ZM258.164 228H253.516V228.56C253.53 231.444 253.558 234.44 251.738 234.44V235C254.16 235 254.104 231.402 254.076 228.56H257.604V235H258.164V228ZM265.617 231.36C265.617 229.302 264.749 228 262.593 228C260.437 228 259.569 229.484 259.569 231.5C259.569 232.886 259.961 235 263.125 235C263.657 235 264.049 235 265.141 234.72V234.16C264.231 234.412 263.685 234.44 263.125 234.44C260.563 234.44 260.185 232.942 260.143 231.78H265.617V231.36ZM260.129 231.22C260.129 229.12 261.431 228.56 262.593 228.56C263.755 228.56 265.057 228.98 265.057 231.22H260.129ZM272.33 228V231.374H267.584V228H267.024V235H267.584V231.934H272.33V235H272.89V228H272.33ZM279.33 228L275.354 233.698H275.13V228H274.57V235H275.13L279.106 229.302H279.33V235H279.89V228H279.33ZM287.342 231.36C287.342 229.302 286.474 228 284.318 228C282.162 228 281.294 229.484 281.294 231.5C281.294 232.886 281.686 235 284.85 235C285.382 235 285.774 235 286.866 234.72V234.16C285.956 234.412 285.41 234.44 284.85 234.44C282.288 234.44 281.91 232.942 281.868 231.78H287.342V231.36ZM281.854 231.22C281.854 229.12 283.156 228.56 284.318 228.56C285.48 228.56 286.782 228.98 286.782 231.22H281.854ZM295.664 228L292.598 233.362H292.374L289.308 228H288.748V235H289.308V229.512H289.532L292.136 234.076H292.836L295.44 229.512H295.664V235H296.224V228H295.664Z" fill="#1BFF40"/>
<g filter="url(#filter5_f)">
<path d="M101.407 128L97.375 133.544H97.087V128H95.287V137H97.087L101.119 131.456H101.407V137H103.207V128H101.407ZM105.008 133.76C105.008 135.506 106.034 137 108.77 137C111.326 137 112.172 135.686 112.172 134.48C112.172 133.526 111.776 132.716 110.21 132.536V132.248C111.506 132.122 111.938 131.474 111.938 130.34C111.938 129.314 110.912 128 108.716 128C106.34 128 105.314 129.494 105.314 130.88H107.114C107.114 129.98 107.762 129.8 108.716 129.8C109.49 129.8 110.138 129.98 110.138 130.7C110.138 131.456 109.58 131.546 108.986 131.546H108.194V133.346H108.986C109.58 133.346 110.372 133.436 110.372 134.3C110.372 134.894 109.904 135.2 108.77 135.2C107.456 135.2 106.808 134.894 106.808 133.76H105.008ZM122.865 128L119.463 134.102H119.175L115.773 128H113.973V137H115.773V132.284H116.061L118.149 135.812H120.489L122.577 132.284H122.865V137H124.665V128H122.865ZM134.067 132.32C134.067 129.674 132.951 128 130.179 128C127.407 128 126.291 129.854 126.291 132.5C126.291 134.102 126.795 137 130.863 137C131.547 137 132.051 137 133.455 136.64V134.876C132.285 135.2 131.583 135.2 130.863 135.2C128.901 135.2 128.325 134.426 128.163 133.4H134.067V132.32ZM130.179 129.8C131.601 129.8 132.195 130.286 132.267 131.6H128.109C128.217 130.394 128.829 129.8 130.179 129.8ZM140.344 128C139.084 128 138.202 128.486 137.662 129.08V128H135.862V139.88H137.662V135.92C138.202 136.514 139.084 137 140.344 137C143.26 137 144.286 135.146 144.286 132.5C144.286 129.854 143.26 128 140.344 128ZM140.074 135.2C138.31 135.2 137.662 134.66 137.662 132.5C137.662 130.34 138.31 129.8 140.074 129.8C141.838 129.8 142.486 130.34 142.486 132.5C142.486 134.66 141.838 135.2 140.074 135.2ZM153.508 132.32C153.508 129.674 152.392 128 149.62 128C146.848 128 145.732 129.854 145.732 132.5C145.732 134.102 146.236 137 150.304 137C150.988 137 151.492 137 152.896 136.64V134.876C151.726 135.2 151.024 135.2 150.304 135.2C148.342 135.2 147.766 134.426 147.604 133.4H153.508V132.32ZM149.62 129.8C151.042 129.8 151.636 130.286 151.708 131.6H147.55C147.658 130.394 148.27 129.8 149.62 129.8ZM161.598 128V131.798H157.116V128H155.316V137H157.116V133.598H161.598V137H163.398V128H161.598ZM171.684 128L167.652 133.544H167.364V128H165.564V137H167.364L171.396 131.456H171.684V137H173.484V128H171.684ZM182.881 132.32C182.881 129.674 181.765 128 178.993 128C176.221 128 175.105 129.854 175.105 132.5C175.105 134.102 175.609 137 179.677 137C180.361 137 180.865 137 182.269 136.64V134.876C181.099 135.2 180.397 135.2 179.677 135.2C177.715 135.2 177.139 134.426 176.977 133.4H182.881V132.32ZM178.993 129.8C180.415 129.8 181.009 130.286 181.081 131.6H176.923C177.031 130.394 177.643 129.8 178.993 129.8ZM190.978 132.5C190.978 135.146 192.364 137 195.01 137C197.368 137 198.754 135.542 198.754 133.58H196.954C196.882 134.516 196.504 135.2 195.1 135.2C193.426 135.2 192.778 134.66 192.778 132.5C192.778 130.34 193.426 129.8 195.1 129.8C196.504 129.8 196.882 130.484 196.954 131.42H198.754C198.754 129.458 197.368 128 195.01 128C192.364 128 190.978 129.854 190.978 132.5ZM204.491 137C207.227 137 208.793 135.146 208.793 132.5C208.793 129.854 207.227 128 204.491 128C201.755 128 200.189 129.854 200.189 132.5C200.189 135.146 201.755 137 204.491 137ZM204.491 135.2C202.637 135.2 201.989 134.66 201.989 132.5C201.989 130.34 202.637 129.8 204.491 129.8C206.345 129.8 206.993 130.34 206.993 132.5C206.993 134.66 206.345 135.2 204.491 135.2ZM219.235 128H210.775V137H212.575V129.8H217.435V137H219.235V128ZM225.879 128C224.619 128 223.737 128.486 223.197 129.08V128H221.397V139.88H223.197V135.92C223.737 136.514 224.619 137 225.879 137C228.795 137 229.821 135.146 229.821 132.5C229.821 129.854 228.795 128 225.879 128ZM225.609 135.2C223.845 135.2 223.197 134.66 223.197 132.5C223.197 130.34 223.845 129.8 225.609 129.8C227.373 129.8 228.021 130.34 228.021 132.5C228.021 134.66 227.373 135.2 225.609 135.2ZM235.569 137C238.305 137 239.871 135.146 239.871 132.5C239.871 129.854 238.305 128 235.569 128C232.833 128 231.267 129.854 231.267 132.5C231.267 135.146 232.833 137 235.569 137ZM235.569 135.2C233.715 135.2 233.067 134.66 233.067 132.5C233.067 130.34 233.715 129.8 235.569 129.8C237.423 129.8 238.071 130.34 238.071 132.5C238.071 134.66 237.423 135.2 235.569 135.2ZM249.917 128H241.673V129.8H244.895V137H246.695V129.8H249.917V128ZM257.483 128L253.451 133.544H253.163V128H251.363V137H253.163L257.195 131.456H257.483V137H259.283V128H257.483ZM266.367 132.338V132.05C267.789 131.906 268.257 131.204 268.257 130.34C268.257 128.954 267.519 128 265.629 128H261.435V137H265.629C267.771 137 268.527 135.902 268.527 134.516C268.527 133.148 267.969 132.482 266.367 132.338ZM263.235 129.8H265.431C266.259 129.8 266.457 129.962 266.457 130.574C266.457 131.186 266.259 131.348 265.431 131.348H263.235V129.8ZM265.323 135.2H263.235V133.148H265.323C266.421 133.148 266.727 133.418 266.727 134.174C266.727 134.93 266.421 135.2 265.323 135.2ZM279.312 128H272.436V129.476C272.418 132.59 272.256 135.2 270.33 135.2V137C273.912 137 274.236 133.22 274.254 129.8H277.512V137H279.312V128ZM288.719 132.32C288.719 129.674 287.603 128 284.831 128C282.059 128 280.943 129.854 280.943 132.5C280.943 134.102 281.447 137 285.515 137C286.199 137 286.703 137 288.107 136.64V134.876C286.937 135.2 286.235 135.2 285.515 135.2C283.553 135.2 282.977 134.426 282.815 133.4H288.719V132.32ZM284.831 129.8C286.253 129.8 286.847 130.286 286.919 131.6H282.761C282.869 130.394 283.481 129.8 284.831 129.8ZM296.809 128V131.798H292.327V128H290.527V137H292.327V133.598H296.809V137H298.609V128H296.809ZM306.895 128L302.863 133.544H302.575V128H300.775V137H302.575L306.607 131.456H306.895V137H308.695V128H306.895ZM314.726 128C311.558 128 310.676 128.81 310.676 130.664C310.676 132.464 311.558 132.788 313.358 132.986V133.274H310.496V137H312.296V134.066H316.238V137H318.038V128H314.726ZM316.238 132.266H314.726C312.998 132.266 312.476 132.104 312.476 131.024C312.476 129.89 312.998 129.8 314.726 129.8H316.238V132.266ZM334.776 128H326.316V137H328.116V129.8H332.976V137H334.776V128ZM345.916 128H339.04V129.476C339.022 132.59 338.86 135.2 336.934 135.2V137C340.516 137 340.84 133.22 340.858 129.8H344.116V137H345.916V128ZM355.322 132.32C355.322 129.674 354.206 128 351.434 128C348.662 128 347.546 129.854 347.546 132.5C347.546 134.102 348.05 137 352.118 137C352.802 137 353.306 137 354.71 136.64V134.876C353.54 135.2 352.838 135.2 352.118 135.2C350.156 135.2 349.58 134.426 349.418 133.4H355.322V132.32ZM351.434 129.8C352.856 129.8 353.45 130.286 353.522 131.6H349.364C349.472 130.394 350.084 129.8 351.434 129.8ZM356.757 132.5C356.757 135.146 358.143 137 360.789 137C363.147 137 364.533 135.542 364.533 133.58H362.733C362.661 134.516 362.283 135.2 360.879 135.2C359.205 135.2 358.557 134.66 358.557 132.5C358.557 130.34 359.205 129.8 360.879 129.8C362.283 129.8 362.661 130.484 362.733 131.42H364.533C364.533 129.458 363.147 128 360.789 128C358.143 128 356.757 129.854 356.757 132.5ZM373.744 132.32C373.744 129.674 372.628 128 369.856 128C367.084 128 365.968 129.854 365.968 132.5C365.968 134.102 366.472 137 370.54 137C371.224 137 371.728 137 373.132 136.64V134.876C371.962 135.2 371.26 135.2 370.54 135.2C368.578 135.2 368.002 134.426 367.84 133.4H373.744V132.32ZM369.856 129.8C371.278 129.8 371.872 130.286 371.944 131.6H367.786C367.894 130.394 368.506 129.8 369.856 129.8ZM381.835 128V131.798H377.353V128H375.553V137H377.353V133.598H381.835V137H383.635V128H381.835ZM391.921 128L387.889 133.544H387.601V128H385.801V137H387.601L391.633 131.456H391.921V137H393.721V128H391.921Z" fill="#1BFF40"/>
</g>
<path d="M101.407 128L97.375 133.544H97.087V128H95.287V137H97.087L101.119 131.456H101.407V137H103.207V128H101.407ZM105.008 133.76C105.008 135.506 106.034 137 108.77 137C111.326 137 112.172 135.686 112.172 134.48C112.172 133.526 111.776 132.716 110.21 132.536V132.248C111.506 132.122 111.938 131.474 111.938 130.34C111.938 129.314 110.912 128 108.716 128C106.34 128 105.314 129.494 105.314 130.88H107.114C107.114 129.98 107.762 129.8 108.716 129.8C109.49 129.8 110.138 129.98 110.138 130.7C110.138 131.456 109.58 131.546 108.986 131.546H108.194V133.346H108.986C109.58 133.346 110.372 133.436 110.372 134.3C110.372 134.894 109.904 135.2 108.77 135.2C107.456 135.2 106.808 134.894 106.808 133.76H105.008ZM122.865 128L119.463 134.102H119.175L115.773 128H113.973V137H115.773V132.284H116.061L118.149 135.812H120.489L122.577 132.284H122.865V137H124.665V128H122.865ZM134.067 132.32C134.067 129.674 132.951 128 130.179 128C127.407 128 126.291 129.854 126.291 132.5C126.291 134.102 126.795 137 130.863 137C131.547 137 132.051 137 133.455 136.64V134.876C132.285 135.2 131.583 135.2 130.863 135.2C128.901 135.2 128.325 134.426 128.163 133.4H134.067V132.32ZM130.179 129.8C131.601 129.8 132.195 130.286 132.267 131.6H128.109C128.217 130.394 128.829 129.8 130.179 129.8ZM140.344 128C139.084 128 138.202 128.486 137.662 129.08V128H135.862V139.88H137.662V135.92C138.202 136.514 139.084 137 140.344 137C143.26 137 144.286 135.146 144.286 132.5C144.286 129.854 143.26 128 140.344 128ZM140.074 135.2C138.31 135.2 137.662 134.66 137.662 132.5C137.662 130.34 138.31 129.8 140.074 129.8C141.838 129.8 142.486 130.34 142.486 132.5C142.486 134.66 141.838 135.2 140.074 135.2ZM153.508 132.32C153.508 129.674 152.392 128 149.62 128C146.848 128 145.732 129.854 145.732 132.5C145.732 134.102 146.236 137 150.304 137C150.988 137 151.492 137 152.896 136.64V134.876C151.726 135.2 151.024 135.2 150.304 135.2C148.342 135.2 147.766 134.426 147.604 133.4H153.508V132.32ZM149.62 129.8C151.042 129.8 151.636 130.286 151.708 131.6H147.55C147.658 130.394 148.27 129.8 149.62 129.8ZM161.598 128V131.798H157.116V128H155.316V137H157.116V133.598H161.598V137H163.398V128H161.598ZM171.684 128L167.652 133.544H167.364V128H165.564V137H167.364L171.396 131.456H171.684V137H173.484V128H171.684ZM182.881 132.32C182.881 129.674 181.765 128 178.993 128C176.221 128 175.105 129.854 175.105 132.5C175.105 134.102 175.609 137 179.677 137C180.361 137 180.865 137 182.269 136.64V134.876C181.099 135.2 180.397 135.2 179.677 135.2C177.715 135.2 177.139 134.426 176.977 133.4H182.881V132.32ZM178.993 129.8C180.415 129.8 181.009 130.286 181.081 131.6H176.923C177.031 130.394 177.643 129.8 178.993 129.8ZM190.978 132.5C190.978 135.146 192.364 137 195.01 137C197.368 137 198.754 135.542 198.754 133.58H196.954C196.882 134.516 196.504 135.2 195.1 135.2C193.426 135.2 192.778 134.66 192.778 132.5C192.778 130.34 193.426 129.8 195.1 129.8C196.504 129.8 196.882 130.484 196.954 131.42H198.754C198.754 129.458 197.368 128 195.01 128C192.364 128 190.978 129.854 190.978 132.5ZM204.491 137C207.227 137 208.793 135.146 208.793 132.5C208.793 129.854 207.227 128 204.491 128C201.755 128 200.189 129.854 200.189 132.5C200.189 135.146 201.755 137 204.491 137ZM204.491 135.2C202.637 135.2 201.989 134.66 201.989 132.5C201.989 130.34 202.637 129.8 204.491 129.8C206.345 129.8 206.993 130.34 206.993 132.5C206.993 134.66 206.345 135.2 204.491 135.2ZM219.235 128H210.775V137H212.575V129.8H217.435V137H219.235V128ZM225.879 128C224.619 128 223.737 128.486 223.197 129.08V128H221.397V139.88H223.197V135.92C223.737 136.514 224.619 137 225.879 137C228.795 137 229.821 135.146 229.821 132.5C229.821 129.854 228.795 128 225.879 128ZM225.609 135.2C223.845 135.2 223.197 134.66 223.197 132.5C223.197 130.34 223.845 129.8 225.609 129.8C227.373 129.8 228.021 130.34 228.021 132.5C228.021 134.66 227.373 135.2 225.609 135.2ZM235.569 137C238.305 137 239.871 135.146 239.871 132.5C239.871 129.854 238.305 128 235.569 128C232.833 128 231.267 129.854 231.267 132.5C231.267 135.146 232.833 137 235.569 137ZM235.569 135.2C233.715 135.2 233.067 134.66 233.067 132.5C233.067 130.34 233.715 129.8 235.569 129.8C237.423 129.8 238.071 130.34 238.071 132.5C238.071 134.66 237.423 135.2 235.569 135.2ZM249.917 128H241.673V129.8H244.895V137H246.695V129.8H249.917V128ZM257.483 128L253.451 133.544H253.163V128H251.363V137H253.163L257.195 131.456H257.483V137H259.283V128H257.483ZM266.367 132.338V132.05C267.789 131.906 268.257 131.204 268.257 130.34C268.257 128.954 267.519 128 265.629 128H261.435V137H265.629C267.771 137 268.527 135.902 268.527 134.516C268.527 133.148 267.969 132.482 266.367 132.338ZM263.235 129.8H265.431C266.259 129.8 266.457 129.962 266.457 130.574C266.457 131.186 266.259 131.348 265.431 131.348H263.235V129.8ZM265.323 135.2H263.235V133.148H265.323C266.421 133.148 266.727 133.418 266.727 134.174C266.727 134.93 266.421 135.2 265.323 135.2ZM279.312 128H272.436V129.476C272.418 132.59 272.256 135.2 270.33 135.2V137C273.912 137 274.236 133.22 274.254 129.8H277.512V137H279.312V128ZM288.719 132.32C288.719 129.674 287.603 128 284.831 128C282.059 128 280.943 129.854 280.943 132.5C280.943 134.102 281.447 137 285.515 137C286.199 137 286.703 137 288.107 136.64V134.876C286.937 135.2 286.235 135.2 285.515 135.2C283.553 135.2 282.977 134.426 282.815 133.4H288.719V132.32ZM284.831 129.8C286.253 129.8 286.847 130.286 286.919 131.6H282.761C282.869 130.394 283.481 129.8 284.831 129.8ZM296.809 128V131.798H292.327V128H290.527V137H292.327V133.598H296.809V137H298.609V128H296.809ZM306.895 128L302.863 133.544H302.575V128H300.775V137H302.575L306.607 131.456H306.895V137H308.695V128H306.895ZM314.726 128C311.558 128 310.676 128.81 310.676 130.664C310.676 132.464 311.558 132.788 313.358 132.986V133.274H310.496V137H312.296V134.066H316.238V137H318.038V128H314.726ZM316.238 132.266H314.726C312.998 132.266 312.476 132.104 312.476 131.024C312.476 129.89 312.998 129.8 314.726 129.8H316.238V132.266ZM334.776 128H326.316V137H328.116V129.8H332.976V137H334.776V128ZM345.916 128H339.04V129.476C339.022 132.59 338.86 135.2 336.934 135.2V137C340.516 137 340.84 133.22 340.858 129.8H344.116V137H345.916V128ZM355.322 132.32C355.322 129.674 354.206 128 351.434 128C348.662 128 347.546 129.854 347.546 132.5C347.546 134.102 348.05 137 352.118 137C352.802 137 353.306 137 354.71 136.64V134.876C353.54 135.2 352.838 135.2 352.118 135.2C350.156 135.2 349.58 134.426 349.418 133.4H355.322V132.32ZM351.434 129.8C352.856 129.8 353.45 130.286 353.522 131.6H349.364C349.472 130.394 350.084 129.8 351.434 129.8ZM356.757 132.5C356.757 135.146 358.143 137 360.789 137C363.147 137 364.533 135.542 364.533 133.58H362.733C362.661 134.516 362.283 135.2 360.879 135.2C359.205 135.2 358.557 134.66 358.557 132.5C358.557 130.34 359.205 129.8 360.879 129.8C362.283 129.8 362.661 130.484 362.733 131.42H364.533C364.533 129.458 363.147 128 360.789 128C358.143 128 356.757 129.854 356.757 132.5ZM373.744 132.32C373.744 129.674 372.628 128 369.856 128C367.084 128 365.968 129.854 365.968 132.5C365.968 134.102 366.472 137 370.54 137C371.224 137 371.728 137 373.132 136.64V134.876C371.962 135.2 371.26 135.2 370.54 135.2C368.578 135.2 368.002 134.426 367.84 133.4H373.744V132.32ZM369.856 129.8C371.278 129.8 371.872 130.286 371.944 131.6H367.786C367.894 130.394 368.506 129.8 369.856 129.8ZM381.835 128V131.798H377.353V128H375.553V137H377.353V133.598H381.835V137H383.635V128H381.835ZM391.921 128L387.889 133.544H387.601V128H385.801V137H387.601L391.633 131.456H391.921V137H393.721V128H391.921Z" fill="#1BFF40"/>
<g filter="url(#filter6_f)">
<path d="M105.7 198.2H103.54V191H101.74V198.2H96.88V191H95.08V200H103.9V202.88H105.7V198.2ZM114.559 195.32C114.559 192.674 113.443 191 110.671 191C107.899 191 106.783 192.854 106.783 195.5C106.783 197.102 107.287 200 111.355 200C112.039 200 112.543 200 113.947 199.64V197.876C112.777 198.2 112.075 198.2 111.355 198.2C109.393 198.2 108.817 197.426 108.655 196.4H114.559V195.32ZM110.671 192.8C112.093 192.8 112.687 193.286 112.759 194.6H108.601C108.709 193.394 109.321 192.8 110.671 192.8ZM125.349 191H118.473V192.476C118.455 195.59 118.293 198.2 116.367 198.2V200C119.949 200 120.273 196.22 120.291 192.8H123.549V200H125.349V191ZM131.364 193.844H129.312V191H127.512V200H131.364C133.794 200 134.658 198.524 134.658 196.922C134.658 195.32 133.794 193.844 131.364 193.844ZM131.076 198.2H129.312V195.644H131.076C132.318 195.644 132.858 195.734 132.858 196.922C132.858 198.11 132.318 198.2 131.076 198.2ZM147.59 191C146.33 191 145.448 191.486 144.908 192.08V191H143.108V202.88H144.908V198.92C145.448 199.514 146.33 200 147.59 200C150.506 200 151.532 198.146 151.532 195.5C151.532 192.854 150.506 191 147.59 191ZM147.32 198.2C145.556 198.2 144.908 197.66 144.908 195.5C144.908 193.34 145.556 192.8 147.32 192.8C149.084 192.8 149.732 193.34 149.732 195.5C149.732 197.66 149.084 198.2 147.32 198.2ZM160.502 198.2V191H154.022V192.8H158.702V194.78C158.162 194.24 157.46 193.88 156.2 193.88C154.004 193.88 152.978 195.284 152.978 196.94C152.978 198.596 154.004 200 156.2 200C157.46 200 158.162 199.64 158.702 199.1V200H161.582V198.2H160.502ZM156.74 198.2C155.426 198.2 154.778 197.93 154.778 196.94C154.778 195.95 155.426 195.68 156.74 195.68C158.054 195.68 158.702 195.95 158.702 196.94C158.702 197.93 158.054 198.2 156.74 198.2ZM167.677 191C166.417 191 165.535 191.486 164.995 192.08C164.995 190.532 165.049 189.56 167.767 189.56C168.847 189.56 169.729 189.56 170.539 189.164V187.4C169.495 187.76 168.811 187.76 167.767 187.76C163.699 187.76 163.195 190.118 163.195 191.9V194.6C163.195 198.128 164.221 200 167.407 200C170.593 200 171.619 198.146 171.619 195.5C171.619 192.854 170.593 191 167.677 191ZM167.407 198.2C165.643 198.2 164.995 197.12 164.995 195.32C164.995 193.34 165.643 192.8 167.407 192.8C169.171 192.8 169.819 193.34 169.819 195.5C169.819 197.66 169.171 198.2 167.407 198.2ZM177.548 200C180.284 200 181.85 198.146 181.85 195.5C181.85 192.854 180.284 191 177.548 191C174.812 191 173.246 192.854 173.246 195.5C173.246 198.146 174.812 200 177.548 200ZM177.548 198.2C175.694 198.2 175.046 197.66 175.046 195.5C175.046 193.34 175.694 192.8 177.548 192.8C179.402 192.8 180.05 193.34 180.05 195.5C180.05 197.66 179.402 198.2 177.548 198.2ZM191.896 191H183.652V192.8H186.874V200H188.674V192.8H191.896V191ZM197.194 193.844H195.142V191H193.342V200H197.194C199.624 200 200.488 198.524 200.488 196.922C200.488 195.32 199.624 193.844 197.194 193.844ZM201.82 191V200H203.62V191H201.82ZM196.906 198.2H195.142V195.644H196.906C198.148 195.644 198.688 195.734 198.688 196.922C198.688 198.11 198.148 198.2 196.906 198.2ZM205.787 193.16V194.96H207.587V193.16H205.787ZM205.787 198.2V200H207.587V198.2H205.787Z" fill="#1BFF40"/>
</g>
<path d="M105.7 198.2H103.54V191H101.74V198.2H96.88V191H95.08V200H103.9V202.88H105.7V198.2ZM114.559 195.32C114.559 192.674 113.443 191 110.671 191C107.899 191 106.783 192.854 106.783 195.5C106.783 197.102 107.287 200 111.355 200C112.039 200 112.543 200 113.947 199.64V197.876C112.777 198.2 112.075 198.2 111.355 198.2C109.393 198.2 108.817 197.426 108.655 196.4H114.559V195.32ZM110.671 192.8C112.093 192.8 112.687 193.286 112.759 194.6H108.601C108.709 193.394 109.321 192.8 110.671 192.8ZM125.349 191H118.473V192.476C118.455 195.59 118.293 198.2 116.367 198.2V200C119.949 200 120.273 196.22 120.291 192.8H123.549V200H125.349V191ZM131.364 193.844H129.312V191H127.512V200H131.364C133.794 200 134.658 198.524 134.658 196.922C134.658 195.32 133.794 193.844 131.364 193.844ZM131.076 198.2H129.312V195.644H131.076C132.318 195.644 132.858 195.734 132.858 196.922C132.858 198.11 132.318 198.2 131.076 198.2ZM147.59 191C146.33 191 145.448 191.486 144.908 192.08V191H143.108V202.88H144.908V198.92C145.448 199.514 146.33 200 147.59 200C150.506 200 151.532 198.146 151.532 195.5C151.532 192.854 150.506 191 147.59 191ZM147.32 198.2C145.556 198.2 144.908 197.66 144.908 195.5C144.908 193.34 145.556 192.8 147.32 192.8C149.084 192.8 149.732 193.34 149.732 195.5C149.732 197.66 149.084 198.2 147.32 198.2ZM160.502 198.2V191H154.022V192.8H158.702V194.78C158.162 194.24 157.46 193.88 156.2 193.88C154.004 193.88 152.978 195.284 152.978 196.94C152.978 198.596 154.004 200 156.2 200C157.46 200 158.162 199.64 158.702 199.1V200H161.582V198.2H160.502ZM156.74 198.2C155.426 198.2 154.778 197.93 154.778 196.94C154.778 195.95 155.426 195.68 156.74 195.68C158.054 195.68 158.702 195.95 158.702 196.94C158.702 197.93 158.054 198.2 156.74 198.2ZM167.677 191C166.417 191 165.535 191.486 164.995 192.08C164.995 190.532 165.049 189.56 167.767 189.56C168.847 189.56 169.729 189.56 170.539 189.164V187.4C169.495 187.76 168.811 187.76 167.767 187.76C163.699 187.76 163.195 190.118 163.195 191.9V194.6C163.195 198.128 164.221 200 167.407 200C170.593 200 171.619 198.146 171.619 195.5C171.619 192.854 170.593 191 167.677 191ZM167.407 198.2C165.643 198.2 164.995 197.12 164.995 195.32C164.995 193.34 165.643 192.8 167.407 192.8C169.171 192.8 169.819 193.34 169.819 195.5C169.819 197.66 169.171 198.2 167.407 198.2ZM177.548 200C180.284 200 181.85 198.146 181.85 195.5C181.85 192.854 180.284 191 177.548 191C174.812 191 173.246 192.854 173.246 195.5C173.246 198.146 174.812 200 177.548 200ZM177.548 198.2C175.694 198.2 175.046 197.66 175.046 195.5C175.046 193.34 175.694 192.8 177.548 192.8C179.402 192.8 180.05 193.34 180.05 195.5C180.05 197.66 179.402 198.2 177.548 198.2ZM191.896 191H183.652V192.8H186.874V200H188.674V192.8H191.896V191ZM197.194 193.844H195.142V191H193.342V200H197.194C199.624 200 200.488 198.524 200.488 196.922C200.488 195.32 199.624 193.844 197.194 193.844ZM201.82 191V200H203.62V191H201.82ZM196.906 198.2H195.142V195.644H196.906C198.148 195.644 198.688 195.734 198.688 196.922C198.688 198.11 198.148 198.2 196.906 198.2ZM205.787 193.16V194.96H207.587V193.16H205.787ZM205.787 198.2V200H207.587V198.2H205.787Z" fill="#1BFF40"/>
<g filter="url(#filter7_dd)">
<circle cx="419" cy="275" r="15" fill="url(#paint5_radial)"/>
<circle cx="419" cy="275" r="13.5" stroke="url(#paint6_radial)" stroke-width="3"/>
</g>
<g filter="url(#filter8_ddii)">
<path d="M425 274.5L415.25 280.129V268.871L425 274.5Z" fill="#3D7171"/>
</g>
<g filter="url(#filter9_f)">
<path d="M424.105 274.941C424.268 274.854 424.37 274.684 424.37 274.5C424.37 274.316 424.268 274.146 424.105 274.059L415.203 269.296C415.048 269.213 414.861 269.218 414.71 269.308C414.56 269.398 414.467 269.561 414.467 269.737V279.263C414.467 279.439 414.56 279.602 414.71 279.692C414.861 279.782 415.048 279.787 415.203 279.704L424.105 274.941Z" stroke="#1BFF40" stroke-linejoin="round"/>
</g>
<path d="M424.671 274.941C424.833 274.854 424.935 274.684 424.935 274.5C424.935 274.316 424.833 274.146 424.671 274.059L415.768 269.296C415.614 269.213 415.426 269.218 415.276 269.308C415.125 269.398 415.033 269.561 415.033 269.737V279.263C415.033 279.439 415.125 279.602 415.276 279.692C415.426 279.782 415.614 279.787 415.768 279.704L424.671 274.941Z" stroke="#1BFF40" stroke-linejoin="round"/>
<defs>
<filter id="filter0_ddii" x="0" y="0" width="488" height="329" filterUnits="userSpaceOnUse" color-interpolation-filters="sRGB">
<feFlood flood-opacity="0" result="BackgroundImageFix"/>
<feColorMatrix in="SourceAlpha" type="matrix" values="0 0 0 0 0 0 0 0 0 0 0 0 0 0 0 0 0 0 127 0"/>
<feOffset dx="-4" dy="-4"/>
<feGaussianBlur stdDeviation="5"/>
<feColorMatrix type="matrix" values="0 0 0 0 0.270588 0 0 0 0 0.47451 0 0 0 0 0.47451 0 0 0 1 0"/>
<feBlend mode="normal" in2="BackgroundImageFix" result="effect1_dropShadow"/>
<feColorMatrix in="SourceAlpha" type="matrix" values="0 0 0 0 0 0 0 0 0 0 0 0 0 0 0 0 0 0 127 0"/>
<feOffset dx="4" dy="4"/>
<feGaussianBlur stdDeviation="5"/>
<feColorMatrix type="matrix" values="0 0 0 0 0.223529 0 0 0 0 0.427451 0 0 0 0 0.427451 0 0 0 1 0"/>
<feBlend mode="normal" in2="effect1_dropShadow" result="effect2_dropShadow"/>
<feBlend mode="normal" in="SourceGraphic" in2="effect2_dropShadow" result="shape"/>
<feColorMatrix in="SourceAlpha" type="matrix" values="0 0 0 0 0 0 0 0 0 0 0 0 0 0 0 0 0 0 127 0" result="hardAlpha"/>
<feOffset dx="-4" dy="-4"/>
<feGaussianBlur stdDeviation="4"/>
<feComposite in2="hardAlpha" operator="arithmetic" k2="-1" k3="1"/>
<feColorMatrix type="matrix" values="0 0 0 0 0.227451 0 0 0 0 0.431373 0 0 0 0 0.431373 0 0 0 1 0"/>
<feBlend mode="normal" in2="shape" result="effect3_innerShadow"/>
<feColorMatrix in="SourceAlpha" type="matrix" values="0 0 0 0 0 0 0 0 0 0 0 0 0 0 0 0 0 0 127 0" result="hardAlpha"/>
<feOffset dx="4" dy="4"/>
<feGaussianBlur stdDeviation="4"/>
<feComposite in2="hardAlpha" operator="arithmetic" k2="-1" k3="1"/>
<feColorMatrix type="matrix" values="0 0 0 0 0.262745 0 0 0 0 0.466667 0 0 0 0 0.466667 0 0 0 1 0"/>
<feBlend mode="normal" in2="effect3_innerShadow" result="effect4_innerShadow"/>
</filter>
<filter id="filter1_f" x="80.9166" y="45.8638" width="326.165" height="40.976" filterUnits="userSpaceOnUse" color-interpolation-filters="sRGB">
<feFlood flood-opacity="0" result="BackgroundImageFix"/>
<feBlend mode="normal" in="SourceGraphic" in2="BackgroundImageFix" result="shape"/>
<feGaussianBlur stdDeviation="5" result="effect1_foregroundBlur"/>
</filter>
<filter id="filter2_dd" x="49" y="100" width="391" height="64" filterUnits="userSpaceOnUse" color-interpolation-filters="sRGB">
<feFlood flood-opacity="0" result="BackgroundImageFix"/>
<feColorMatrix in="SourceAlpha" type="matrix" values="0 0 0 0 0 0 0 0 0 0 0 0 0 0 0 0 0 0 127 0"/>
<feOffset dx="-2" dy="-2"/>
<feGaussianBlur stdDeviation="2"/>
<feColorMatrix type="matrix" values="0 0 0 0 0.27451 0 0 0 0 0.478431 0 0 0 0 0.478431 0 0 0 1 0"/>
<feBlend mode="normal" in2="BackgroundImageFix" result="effect1_dropShadow"/>
<feColorMatrix in="SourceAlpha" type="matrix" values="0 0 0 0 0 0 0 0 0 0 0 0 0 0 0 0 0 0 127 0"/>
<feOffset dx="2" dy="2"/>
<feGaussianBlur stdDeviation="2"/>
<feColorMatrix type="matrix" values="0 0 0 0 0.231373 0 0 0 0 0.435294 0 0 0 0 0.435294 0 0 0 1 0"/>
<feBlend mode="normal" in2="effect1_dropShadow" result="effect2_dropShadow"/>
<feBlend mode="normal" in="SourceGraphic" in2="effect2_dropShadow" result="shape"/>
</filter>
<filter id="filter3_dd" x="49" y="162" width="391" height="99" filterUnits="userSpaceOnUse" color-interpolation-filters="sRGB">
<feFlood flood-opacity="0" result="BackgroundImageFix"/>
<feColorMatrix in="SourceAlpha" type="matrix" values="0 0 0 0 0 0 0 0 0 0 0 0 0 0 0 0 0 0 127 0"/>
<feOffset dx="-2" dy="-2"/>
<feGaussianBlur stdDeviation="2"/>
<feColorMatrix type="matrix" values="0 0 0 0 0.27451 0 0 0 0 0.478431 0 0 0 0 0.478431 0 0 0 1 0"/>
<feBlend mode="normal" in2="BackgroundImageFix" result="effect1_dropShadow"/>
<feColorMatrix in="SourceAlpha" type="matrix" values="0 0 0 0 0 0 0 0 0 0 0 0 0 0 0 0 0 0 127 0"/>
<feOffset dx="2" dy="2"/>
<feGaussianBlur stdDeviation="2"/>
<feColorMatrix type="matrix" values="0 0 0 0 0.231373 0 0 0 0 0.435294 0 0 0 0 0.435294 0 0 0 1 0"/>
<feBlend mode="normal" in2="effect1_dropShadow" result="effect2_dropShadow"/>
<feBlend mode="normal" in="SourceGraphic" in2="effect2_dropShadow" result="shape"/>
</filter>
<filter id="filter4_f" x="84.7" y="201" width="237.63" height="46.24" filterUnits="userSpaceOnUse" color-interpolation-filters="sRGB">
<feFlood flood-opacity="0" result="BackgroundImageFix"/>
<feBlend mode="normal" in="SourceGraphic" in2="BackgroundImageFix" result="shape"/>
<feGaussianBlur stdDeviation="5" result="effect1_foregroundBlur"/>
</filter>
<filter id="filter5_f" x="85.287" y="118" width="318.434" height="31.88" filterUnits="userSpaceOnUse" color-interpolation-filters="sRGB">
<feFlood flood-opacity="0" result="BackgroundImageFix"/>
<feBlend mode="normal" in="SourceGraphic" in2="BackgroundImageFix" result="shape"/>
<feGaussianBlur stdDeviation="5" result="effect1_foregroundBlur"/>
</filter>
<filter id="filter6_f" x="85.08" y="177.4" width="132.507" height="35.48" filterUnits="userSpaceOnUse" color-interpolation-filters="sRGB">
<feFlood flood-opacity="0" result="BackgroundImageFix"/>
<feBlend mode="normal" in="SourceGraphic" in2="BackgroundImageFix" result="shape"/>
<feGaussianBlur stdDeviation="5" result="effect1_foregroundBlur"/>
</filter>
<filter id="filter7_dd" x="392" y="248" width="54" height="54" filterUnits="userSpaceOnUse" color-interpolation-filters="sRGB">
<feFlood flood-opacity="0" result="BackgroundImageFix"/>
<feColorMatrix in="SourceAlpha" type="matrix" values="0 0 0 0 0 0 0 0 0 0 0 0 0 0 0 0 0 0 127 0"/>
<feOffset dx="-4" dy="-4"/>
<feGaussianBlur stdDeviation="4"/>
<feColorMatrix type="matrix" values="0 0 0 0 0.262745 0 0 0 0 0.466667 0 0 0 0 0.466667 0 0 0 1 0"/>
<feBlend mode="normal" in2="BackgroundImageFix" result="effect1_dropShadow"/>
<feColorMatrix in="SourceAlpha" type="matrix" values="0 0 0 0 0 0 0 0 0 0 0 0 0 0 0 0 0 0 127 0"/>
<feOffset dx="4" dy="4"/>
<feGaussianBlur stdDeviation="4"/>
<feColorMatrix type="matrix" values="0 0 0 0 0.215686 0 0 0 0 0.419608 0 0 0 0 0.419608 0 0 0 1 0"/>
<feBlend mode="normal" in2="effect1_dropShadow" result="effect2_dropShadow"/>
<feBlend mode="normal" in="SourceGraphic" in2="effect2_dropShadow" result="shape"/>
</filter>
<filter id="filter8_ddii" x="397.25" y="250.871" width="39.75" height="41.2583" filterUnits="userSpaceOnUse" color-interpolation-filters="sRGB">
<feFlood flood-opacity="0" result="BackgroundImageFix"/>
<feColorMatrix in="SourceAlpha" type="matrix" values="0 0 0 0 0 0 0 0 0 0 0 0 0 0 0 0 0 0 127 0"/>
<feOffset dx="-4" dy="-4"/>
<feGaussianBlur stdDeviation="7"/>
<feColorMatrix type="matrix" values="0 0 0 0 0.25098 0 0 0 0 0.454902 0 0 0 0 0.454902 0 0 0 1 0"/>
<feBlend mode="normal" in2="BackgroundImageFix" result="effect1_dropShadow"/>
<feColorMatrix in="SourceAlpha" type="matrix" values="0 0 0 0 0 0 0 0 0 0 0 0 0 0 0 0 0 0 127 0"/>
<feOffset dx="4" dy="4"/>
<feGaussianBlur stdDeviation="4"/>
<feColorMatrix type="matrix" values="0 0 0 0 0.239216 0 0 0 0 0.443137 0 0 0 0 0.443137 0 0 0 1 0"/>
<feBlend mode="normal" in2="effect1_dropShadow" result="effect2_dropShadow"/>
<feBlend mode="normal" in="SourceGraphic" in2="effect2_dropShadow" result="shape"/>
<feColorMatrix in="SourceAlpha" type="matrix" values="0 0 0 0 0 0 0 0 0 0 0 0 0 0 0 0 0 0 127 0" result="hardAlpha"/>
<feOffset dx="1" dy="1"/>
<feGaussianBlur stdDeviation="2"/>
<feComposite in2="hardAlpha" operator="arithmetic" k2="-1" k3="1"/>
<feColorMatrix type="matrix" values="0 0 0 0 0.227451 0 0 0 0 0.431373 0 0 0 0 0.431373 0 0 0 1 0"/>
<feBlend mode="normal" in2="shape" result="effect3_innerShadow"/>
<feColorMatrix in="SourceAlpha" type="matrix" values="0 0 0 0 0 0 0 0 0 0 0 0 0 0 0 0 0 0 127 0" result="hardAlpha"/>
<feOffset dx="-1" dy="-1"/>
<feGaussianBlur stdDeviation="2"/>
<feComposite in2="hardAlpha" operator="arithmetic" k2="-1" k3="1"/>
<feColorMatrix type="matrix" values="0 0 0 0 0.25098 0 0 0 0 0.454902 0 0 0 0 0.454902 0 0 0 1 0"/>
<feBlend mode="normal" in2="effect3_innerShadow" result="effect4_innerShadow"/>
</filter>
<filter id="filter9_f" x="403.967" y="258.737" width="30.9022" height="31.5263" filterUnits="userSpaceOnUse" color-interpolation-filters="sRGB">
<feFlood flood-opacity="0" result="BackgroundImageFix"/>
<feBlend mode="normal" in="SourceGraphic" in2="BackgroundImageFix" result="shape"/>
<feGaussianBlur stdDeviation="5" result="effect1_foregroundBlur"/>
</filter>
<radialGradient id="paint0_radial" cx="0" cy="0" r="1" gradientUnits="userSpaceOnUse" gradientTransform="translate(14 14) rotate(33.1659) scale(549.523 325.172)">
<stop stop-color="#427676"/>
<stop offset="1" stop-color="#3C7070"/>
</radialGradient>
<radialGradient id="paint1_radial" cx="0" cy="0" r="1" gradientUnits="userSpaceOnUse" gradientTransform="translate(55 106) rotate(7.81238) scale(382.551 212.776)">
<stop stop-color="#447878"/>
<stop offset="1" stop-color="#3C7070"/>
</radialGradient>
<radialGradient id="paint2_radial" cx="0" cy="0" r="1" gradientUnits="userSpaceOnUse" gradientTransform="translate(55 106) rotate(7.81238) scale(382.551 251.741)">
<stop stop-color="#487C7C"/>
<stop offset="1" stop-color="#396D6D"/>
</radialGradient>
<radialGradient id="paint3_radial" cx="0" cy="0" r="1" gradientUnits="userSpaceOnUse" gradientTransform="translate(55 168) rotate(12.9284) scale(388.857 350.217)">
<stop stop-color="#447878"/>
<stop offset="1" stop-color="#3C7070"/>
</radialGradient>
<radialGradient id="paint4_radial" cx="0" cy="0" r="1" gradientUnits="userSpaceOnUse" gradientTransform="translate(55 168) rotate(12.9284) scale(388.857 414.351)">
<stop stop-color="#487C7C"/>
<stop offset="1" stop-color="#396D6D"/>
</radialGradient>
<radialGradient id="paint5_radial" cx="0" cy="0" r="1" gradientUnits="userSpaceOnUse" gradientTransform="translate(404 260) rotate(45) scale(42.4264)">
<stop stop-color="#407474"/>
<stop offset="1" stop-color="#3A6E6E"/>
</radialGradient>
<radialGradient id="paint6_radial" cx="0" cy="0" r="1" gradientUnits="userSpaceOnUse" gradientTransform="translate(404 260) rotate(45) scale(42.4264)">
<stop stop-color="#386C6C"/>
<stop offset="1" stop-color="#427676"/>
</radialGradient>
</defs>
</svg>
